<?xml version="1.0" encoding="utf-8"?>
<!-- Generator: Adobe Illustrator 23.0.2, SVG Export Plug-In . SVG Version: 6.00 Build 0)  -->
<svg version="1.1" id="Layer_1" xmlns="http://www.w3.org/2000/svg" xmlns:xlink="http://www.w3.org/1999/xlink" x="0px" y="0px"
	 viewBox="0 0 360 362" style="enable-background:new 0 0 360 362;" xml:space="preserve">
<style type="text/css">
	.st0{fill-rule:evenodd;clip-rule:evenodd;fill:url(#SVGID_1_);}
	.st1{fill-rule:evenodd;clip-rule:evenodd;fill:#002249;}
</style>
<g>
	
		<linearGradient id="SVGID_1_" gradientUnits="userSpaceOnUse" x1="92.09" y1="258.8807" x2="4.4065" y2="378.8107" gradientTransform="matrix(1 0 0 -1 0 364)">
		<stop  offset="0" style="stop-color:#D07156"/>
		<stop  offset="1" style="stop-color:#FEA734"/>
	</linearGradient>
	<path class="st0" d="M0,148.2c10.7,2.1,22.4,1.6,34.7-2.2C95.6,126.9,165.9,68,138.8,0C87.9,0,54,11.8,9.4,27.5
		c-3.1,1.1-6.2,2.2-9.4,3.3V148.2z"/>
	<path class="st1" d="M0,174h360V50.5C298.4,29.4,206.5,1.9,153.8,0.2C72.8-2.4,69.2,25.5,69,27.3c-1.1,9.7,1.4,13.4,19.7,24.6
		c20.5,12.6,18.5,32.1,0,47.1c-11.3,9.2-38.1,28.1-88.7,41.1V174z"/>
</g>
</svg>
