<?xml version="1.0" encoding="utf-8"?>
<!-- Generator: Adobe Illustrator 23.0.2, SVG Export Plug-In . SVG Version: 6.00 Build 0)  -->
<svg version="1.1" id="Layer_1" xmlns="http://www.w3.org/2000/svg" xmlns:xlink="http://www.w3.org/1999/xlink" x="0px" y="0px"
	 viewBox="0 0 360 362" style="enable-background:new 0 0 360 362;" xml:space="preserve">
<style type="text/css">
	.st0{fill-rule:evenodd;clip-rule:evenodd;fill:#815542;}
	.st1{fill-rule:evenodd;clip-rule:evenodd;fill:url(#SVGID_1_);}
	.st2{fill:#061525;}
	.st3{fill-rule:evenodd;clip-rule:evenodd;fill:#061525;}
</style>
<g>
	<path class="st0" d="M0,312h360v-86H0V312z"/>
	
		<linearGradient id="SVGID_1_" gradientUnits="userSpaceOnUse" x1="180.3412" y1="1507.1489" x2="179.6002" y2="1487.2811" gradientTransform="matrix(1 0 0 1 0 -1272)">
		<stop  offset="0" style="stop-color:#D07156"/>
		<stop  offset="1" style="stop-color:#FEA734"/>
	</linearGradient>
	<path class="st1" d="M0,232h360v-12H0V232z"/>
	<g>
		<path class="st2" d="M209,261h-86.9l-1.1,4l88-2.2V261z"/>
		<path class="st2" d="M128.4,188.7c1.3,2,0.7,5.6,0,7.5c1.5,0.8,3.6,2.5,4.8,3.6c1.2,1.2,3.3,4.5,3.7,5.8c0.5,1.7,1.4,5.5,1.1,7.3
			c-0.3,1.7-3.3,1.5-4.8,1.1c0.9,10.5-0.1,35-0.7,45.9l1.1,2.2l-5.5,0.4l-1.5-20.8h-0.7V265l-4.8-0.4l-5.5-37.5
			c-0.9-0.4-2.8-1.6-3.7-3.6c-0.9-2-0.9-10.1-0.7-13.8c0.1-2.4,1-7.9,3.3-10.2c2.4-2.3,5.4-3.6,6.6-4c-0.2-0.9-1.1-3.2-0.4-5.5
			c0.7-2.2,2.8-2.8,4-2.9C125.7,186.9,127.6,187.4,128.4,188.7z"/>
	</g>
	<g>
		<path class="st2" d="M235,188.7c1.2,2.4,0.5,7.3,0,8.5c0.3,0.2,1.4,0.8,3,2c2,1.5,5,5,6.5,9.5c1.2,3.6,0.8,10.2,0.5,13
			c-0.2,0.7-0.9,2-2.5,2s-2.3-1-2.5-1.5c0.3,2.5,1.1,9.2,1.5,16S240,270,239,281.7l3.5,5l-7.5,0.5c0-3.5-0.1-12.5-0.5-20.5
			s-1.8-17.7-2.5-21.5l-2-1l-0.5,46.8h-4c-0.8-8.2-2.1-24.2-2.5-29.8c-0.4-5.6-2.5-12.3-3.5-15c-2-8-1.5-22.5-1.5-22.5
			s-4,0.3-5.5-1.2c-1.5-2-1-8.5,1-15.3s8.8-10.8,12-12c-0.5-0.5-2.2-2.6-1.5-6.5c0.4-2.1,2.2-3.4,4.5-3.7
			C230.5,184.7,233.8,186.3,235,188.7z"/>
		<path class="st3" d="M360,285H227.4l-1.9,6h70.9l1.1-1.7l62.5-1.2V285z"/>
	</g>
</g>
</svg>
