<svg width="278" height="278" viewBox="0 0 278 278" fill="none" xmlns="http://www.w3.org/2000/svg">
<circle cx="138.935" cy="138.935" r="138.935" fill="url(#paint0_linear_945_7513)"/>
<mask id="mask0_945_7513" style="mask-type:alpha" maskUnits="userSpaceOnUse" x="0" y="0" width="278" height="278">
<circle cx="138.935" cy="138.935" r="138.935" fill="url(#paint1_linear_945_7513)"/>
</mask>
<g mask="url(#mask0_945_7513)">
<path opacity="0.5" d="M161.508 1.21057C165.048 7.45492 170.806 26.0626 162.31 45.0454C151.69 68.7739 161.685 96.8735 189.798 75.0183C217.91 53.1631 224.782 48.1676 248.522 52.5386M151.508 0.210571C151.3 8.32822 148.192 28.3106 136.697 41.2988C122.328 57.5341 118.58 76.2671 126.077 85.0092C133.573 93.7513 144.818 99.3712 143.568 124.349C142.319 149.326 161.685 164.937 181.676 150.575C201.667 136.213 208.539 120.602 210.413 104.367C212.288 88.1314 229.78 75.0183 246.022 75.0183C259.017 75.0183 266.43 85.0092 268.512 90.0047M43.5078 36.2106C51.0044 38.9165 68.1024 50.9151 68.6022 69.3984C69.2269 92.5024 71.1011 109.362 77.973 118.104C84.8449 126.846 86.0943 144.33 94.2157 158.068C102.337 171.806 131.074 196.159 162.31 187.416C193.546 178.674 211.038 156.195 239.775 124.349C262.765 98.8717 273.51 109.57 276.009 118.104M136.508 -0.289429C136.556 5.74677 130.065 25.0635 102.962 50.0409C69.0832 81.2626 99.2134 86.8825 104.211 102.493C109.209 118.104 96.0898 137.462 113.582 158.068C131.074 178.674 166.683 183.67 186.049 164.937C205.416 146.204 226.031 106.864 239.775 102.493C253.519 98.1223 264.139 96.8735 271.636 102.493M278.508 138.711C272.261 137.878 257.767 140.209 249.771 156.195C241.774 172.18 261.016 178.258 271.636 179.299M262.265 203.027C257.684 195.95 243.149 182.921 221.658 187.416C194.795 193.036 184.8 207.398 157.937 208.647C131.074 209.896 117.955 199.905 97.964 182.421C77.973 164.937 75.4741 164.937 51.7348 160.566C32.7433 157.069 8.17036 140.287 -0.992188 133.211M7.00781 182.711C20.1269 181.67 53.6089 180.922 68.6022 187.416C87.3438 195.534 116.706 228.629 157.937 228.005C199.168 227.38 201.043 210.521 239.775 234.249M30.5078 227.711C34.6726 229.376 50.4853 233.125 55.4831 223.634C61.7303 211.769 82.9707 206.774 102.962 223.634C122.953 240.493 147.317 256.104 168.557 251.733C189.798 247.362 192.921 239.245 201.667 245.489C208.664 250.484 208.09 259.088 206.008 262.211M94.5078 270.711C87.2194 264.466 77.0984 247.237 81.0966 236.747C86.0943 223.634 105.461 250.484 118.58 257.978C131.699 265.471 142.944 261.1 145.443 267.344C147.442 272.34 140.923 278.17 138.008 279.211" stroke="url(#paint2_linear_945_7513)" stroke-width="2" stroke-linecap="round"/>
</g>
<defs>
<linearGradient id="paint0_linear_945_7513" x1="277.508" y1="250.711" x2="109.506" y2="-9.01367" gradientUnits="userSpaceOnUse">
<stop stop-color="#D36F5A"/>
<stop offset="1" stop-color="#2874DA"/>
</linearGradient>
<linearGradient id="paint1_linear_945_7513" x1="277.508" y1="250.711" x2="109.506" y2="-9.01367" gradientUnits="userSpaceOnUse">
<stop stop-color="#D36F5A"/>
<stop offset="1" stop-color="#2874DA"/>
</linearGradient>
<linearGradient id="paint2_linear_945_7513" x1="226.008" y1="237.711" x2="32.0078" y2="49.7106" gradientUnits="userSpaceOnUse">
<stop stop-color="#FEA734"/>
<stop offset="1" stop-color="#4091F1"/>
</linearGradient>
</defs>
</svg>
