<?xml version="1.0" encoding="utf-8"?>
<!-- Generator: Adobe Illustrator 23.0.2, SVG Export Plug-In . SVG Version: 6.00 Build 0)  -->
<svg version="1.1" id="Layer_1" xmlns="http://www.w3.org/2000/svg" xmlns:xlink="http://www.w3.org/1999/xlink" x="0px" y="0px"
	 viewBox="0 0 360 397" style="enable-background:new 0 0 360 397;" xml:space="preserve">
<style type="text/css">
	.st0{fill:url(#SVGID_1_);}
	.st1{fill-rule:evenodd;clip-rule:evenodd;fill:url(#SVGID_2_);}
	.st2{fill-rule:evenodd;clip-rule:evenodd;fill:url(#SVGID_3_);}
</style>
<linearGradient id="SVGID_1_" gradientUnits="userSpaceOnUse" x1="210.1609" y1="397.1431" x2="242.4069" y2="324.0013" gradientTransform="matrix(1 0 0 -1 0 398)">
	<stop  offset="0" style="stop-color:#CC4403"/>
	<stop  offset="1" style="stop-color:#FF8C35"/>
</linearGradient>
<path class="st0" d="M204.1,0c-7.6,0.6-8.9,9.2-8.7,13.4v29.1l15.7,37.8h42.5c2.1-5,6.3-17.6,6.3-28.3c0-13.4-3.9-29.1-9.4-32.2
	c-4.4-2.5-7.6-0.5-8.7,0.8c0.3-2.4-0.2-7.4-3.9-8.7c-3.8-1.3-7.9,0-9.4,0.8c0-2.9-1.3-8.8-6.3-9.4c-5-0.6-7.9,2.9-8.7,4.7
	C213.6,5,211.7-0.6,204.1,0z"/>
<linearGradient id="SVGID_2_" gradientUnits="userSpaceOnUse" x1="111.2218" y1="371.2585" x2="187.4028" y2="1.2585" gradientTransform="matrix(1 0 0 -1 0 398)">
	<stop  offset="0" style="stop-color:#FE9035"/>
	<stop  offset="1" style="stop-color:#FE7635"/>
</linearGradient>
<path class="st1" d="M0,341.2V397h360v-72.4c-37.9-15.9-68.5-47.4-87.1-82.3c-20.1-37.8-21-125.3-18.9-164.4
	c-5.2-1.6-18.1-8-27.5-21.2c-9.4-13.2-22.3-17.6-27.5-18.1l5.5-6.3c7.1-0.8,20.4-11,18.1-16.5c-1.3-2.9-3.4-2.7-7.2-2.4
	c-3.3,0.3-7.8,0.7-14.1-0.8c-12.4-2.9-15.3,4.3-17.6,9.7c-0.2,0.4-0.4,0.9-0.5,1.3c-0.3,0.6-0.6,1.4-1,2.2
	c-2.8,6.1-7.7,16.5-2.1,26.9c5,9.4,17.3,22.8,22.8,28.3c-0.3,31.5-8.5,112.5-39.3,184.8C138.7,324.3,58.4,340.2,0,341.2z"/>
<linearGradient id="SVGID_3_" gradientUnits="userSpaceOnUse" x1="143.287" y1="-37.7905" x2="295.299" y2="388.5166" gradientTransform="matrix(1 0 0 -1 0 398)">
	<stop  offset="0.2188" style="stop-color:#FFFFFF"/>
	<stop  offset="0.6979" style="stop-color:#FFFFFF;stop-opacity:0"/>
</linearGradient>
<path class="st2" d="M185.4,22.8L185.4,22.8c-0.2,0.5-0.4,0.9-0.6,1.4c-0.3,0.7-0.7,1.5-1,2.3c-1.2,2.6-2.8,5.9-3.7,9.7
	c-1.2,4.9-1.4,10.5,1.6,16c4.9,9.3,17.1,22.5,22.6,28l0.4,0.4l0,0.5c-0.3,31.6-8.5,112.8-39.4,185.3c-15.6,36.7-52.8,56.7-92.4,66.9
	c-24.6,6.3-50.3,8.8-72.7,9.2V340c22.3-0.4,47.8-2.9,72.1-9.1c39.4-10.1,75.6-29.8,90.7-65.4c30.6-71.8,38.9-152.1,39.2-183.8
	c-5.7-5.7-17.6-18.8-22.7-28.2c-3.3-6.3-3.1-12.5-1.8-17.8c1-4,2.7-7.7,3.9-10.3c0.4-0.8,0.7-1.5,0.9-2.1c0.2-0.4,0.3-0.8,0.5-1.2
	c1-2.5,2.3-5.6,4.7-7.9c2.9-2.8,7.3-4.2,14.3-2.6c6,1.4,10.4,1,13.7,0.7c0.2,0,0.5,0,0.7-0.1c1.6-0.1,3.2-0.3,4.5,0.1
	c1.5,0.4,2.5,1.4,3.2,3.1c0.8,1.9,0.2,4.1-0.9,5.9c-1.1,1.9-2.9,3.8-4.9,5.6c-2,1.7-4.4,3.3-6.7,4.5c-2.1,1.1-4.2,1.9-6.1,2.2
	l-3.7,4.2c6.4,1.4,17.6,6.3,26.1,18.2c9.3,13,21.9,19.3,26.9,20.8l0.9,0.3l-0.1,1c-1,19.5-1.4,51.1,1.1,82.5
	c2.5,31.5,7.7,62.6,17.6,81.2c18.3,34.4,48.4,65.4,85.6,81.3v2.7c-38.2-16.1-69.1-47.8-87.8-82.8c-10.2-19.1-15.5-50.7-17.9-82.2
	c-2.4-31-2.2-62.2-1.2-81.9c-5.9-2.1-18.1-8.7-27.2-21.4c-9.2-12.9-21.7-17.1-26.6-17.6l-2.4-0.2l1.6-1.8l5.5-6.3l0.3-0.4l0.5-0.1
	c1.6-0.2,3.6-0.9,5.7-2c2.1-1.1,4.3-2.6,6.2-4.2c1.9-1.6,3.5-3.3,4.4-4.9c1-1.6,1.1-2.8,0.8-3.7c-0.5-1.1-1-1.5-1.6-1.7
	c-0.8-0.2-1.9-0.2-3.6,0c-0.2,0-0.5,0-0.7,0.1c-3.3,0.3-8,0.7-14.4-0.8c-6.4-1.5-9.8-0.1-12,1.9C187.5,17.7,186.4,20.3,185.4,22.8z"
	/>
</svg>
