<?xml version="1.0" encoding="utf-8"?>
<!-- Generator: Adobe Illustrator 23.0.2, SVG Export Plug-In . SVG Version: 6.00 Build 0)  -->
<svg version="1.1" id="Layer_1" xmlns="http://www.w3.org/2000/svg" xmlns:xlink="http://www.w3.org/1999/xlink" x="0px" y="0px"
	 viewBox="0 0 360 397" style="enable-background:new 0 0 360 397;" xml:space="preserve">
<style type="text/css">
	.st0{fill:url(#SVGID_1_);}
	.st1{fill-rule:evenodd;clip-rule:evenodd;fill:url(#SVGID_2_);}
	.st2{fill-rule:evenodd;clip-rule:evenodd;fill:url(#SVGID_3_);}
</style>
<g>
	
		<linearGradient id="SVGID_1_" gradientUnits="userSpaceOnUse" x1="96.3547" y1="702.3473" x2="72.1421" y2="771.4494" gradientTransform="matrix(1 0 0 1 0 -602)">
		<stop  offset="0" style="stop-color:#CC4403"/>
		<stop  offset="1" style="stop-color:#FF8C35"/>
	</linearGradient>
	<path class="st0" d="M101.9,99.2c6.9,0,8.8,7.7,8.9,11.6l2.1,26.6L101.1,173l-38.8,3c-2.3-4.4-7-15.6-7.8-25.4
		c-1-12.2,1.5-26.9,6.3-30.1c3.8-2.6,6.9-1,8,0.1c-0.4-2.1-0.4-6.8,3-8.2c3.4-1.4,7.2-0.6,8.7,0c-0.2-2.6,0.5-8.1,5.1-9.1
		c4.6-0.9,7.4,2.1,8.2,3.7C93.6,104.4,94.9,99.2,101.9,99.2z"/>
	
		<linearGradient id="SVGID_2_" gradientUnits="userSpaceOnUse" x1="199.2954" y1="715.8796" x2="178.7764" y2="1016.3698" gradientTransform="matrix(1 0 0 1 0 -602)">
		<stop  offset="0" style="stop-color:#FE9035"/>
		<stop  offset="1" style="stop-color:#FE7635"/>
	</linearGradient>
	<path class="st1" d="M0,397h360v-4.2c-55.5,7.2-171.5,5.7-202.5-53.7c-33.3-63.9-46.6-137.3-49.1-166c4.6-5.4,14.9-18.5,18.8-27.5
		c4.3-9.9-0.9-19.1-3.9-24.4l0,0c-0.4-0.7-0.8-1.4-1.1-1.9c-0.2-0.4-0.4-0.7-0.6-1.1l0,0l0,0c-2.4-4.8-5.6-11.2-16.7-7.6
		c-5.6,1.8-9.8,1.7-12.8,1.7c-3.5,0-5.4-0.1-6.4,2.7c-1.8,5.2,11.2,13.6,17.7,13.8l5.5,5.4c-4.8,0.9-16.2,5.7-23.8,18.5
		c-7.7,12.7-18.9,19.6-23.6,21.4c4.7,35.5,10.2,115.5-5.5,151.5C44.2,352.4,24.9,378,0,395.9V397z"/>
	
		<linearGradient id="SVGID_3_" gradientUnits="userSpaceOnUse" x1="178.7894" y1="982.5642" x2="162.3344" y2="794.5062" gradientTransform="matrix(1 0 0 1 0 -602)">
		<stop  offset="0" style="stop-color:#FFFFFF"/>
		<stop  offset="1" style="stop-color:#FFFFFF;stop-opacity:0"/>
	</linearGradient>
	<path class="st2" d="M0,396.8c25.2-18,44.8-43.8,56.7-71.1c7.9-18.1,10.5-47.3,10.5-76.2c0-28.6-2.5-57.2-4.8-75.1
		c5.1-2.2,16-9,23.4-21.5c7.5-12.5,18.8-17.3,23.3-18.1l1.5-0.3l-1.1-1.1L104,128l-0.2-0.2h-0.3c-1.5,0-3.4-0.6-5.5-1.5
		c-2-0.9-4.2-2.1-6-3.4c-1.9-1.4-3.5-2.8-4.5-4.3c-1-1.4-1.3-2.7-1-3.6c0.4-1.1,0.9-1.6,1.6-1.9c0.8-0.3,1.8-0.3,3.4-0.3
		c0.2,0,0.4,0,0.6,0c3,0,7.3,0.1,13-1.7c5.8-1.9,9.2-0.9,11.5,1c2,1.6,3.2,4,4.3,6.2c0.2,0.4,0.4,0.8,0.6,1.2c0.3,0.6,0.7,1.3,1.1,2
		l0,0c1.3,2.3,3,5.3,4.1,8.7c1.5,4.5,2.1,9.6-0.3,15c-3.9,8.9-14,21.9-18.7,27.3l-0.2,0.3v0.3c2.5,28.8,15.8,102.3,49.2,166.3
		c8.4,16.2,23.1,28,41,36.7c17.9,8.6,39.1,13.9,60.8,17c37.2,5.3,75.7,3.8,101.5,0.5V392c-25.6,3.3-64.1,4.8-101.2-0.4
		c-21.6-3-42.6-8.4-60.3-16.9s-32-20.2-40.3-36c-33.1-63.5-46.5-136.5-49-165.3c4.7-5.6,14.8-18.5,18.7-27.4
		c2.6-5.8,1.9-11.4,0.3-16.1c-1.2-3.6-3-6.7-4.3-9l0,0l0,0c-0.4-0.7-0.7-1.3-1-1.9c-0.2-0.3-0.4-0.7-0.6-1.1l0,0
		c-1.1-2.2-2.5-4.9-4.8-6.8c-2.8-2.3-6.8-3.2-12.9-1.3c-5.5,1.7-9.5,1.7-12.5,1.7l0,0l0,0c-0.2,0-0.4,0-0.6,0c-1.5,0-2.9,0-4,0.4
		c-1.2,0.5-2,1.3-2.5,2.8c-0.6,1.7,0.1,3.4,1.2,5s2.9,3.2,4.8,4.6c2,1.4,4.2,2.7,6.3,3.6c2,0.9,4,1.4,5.7,1.6l4.2,4.1
		c-5.5,1.5-15.8,6.7-22.9,18.5c-7.6,12.6-18.7,19.3-23.2,21l-0.6,0.2l0.1,0.6c2.4,17.7,4.9,46.6,4.9,75.5S63,307.2,55.2,325
		C43.6,351.8,24.5,377.1,0,394.9V396.8z"/>
</g>
</svg>
