<svg width="360" height="375" viewBox="0 0 360 375" fill="none" xmlns="http://www.w3.org/2000/svg">
<path d="M10 6H-50V362.5C-50 367.3 -10 364.5 10 362.5C10.8333 344.167 20.9 298.1 54.5 260.5C96.5 213.5 152 204 159 202C166 200 173 193.5 173 184.5C173 175.5 169.5 169 159 165.5C148.5 162 109.5 159.5 63.5 116.5C26.7 82.1 12.5 28.5 10 6Z" fill="#002249" stroke="white" stroke-width="4"/>
<path d="M351 6H411V362.5C411 367.3 371 364.5 351 362.5C350.167 344.167 340.1 298.1 306.5 260.5C264.5 213.5 209 204 202 202C195 200 188 193.5 188 184.5C188 175.5 191.5 169 202 165.5C212.5 162 251.5 159.5 297.5 116.5C334.3 82.1 348.5 28.5 351 6Z" fill="#002249" stroke="white" stroke-width="4"/>
<path fill-rule="evenodd" clip-rule="evenodd" d="M-32 7.5C-32 3.35786 -29.3212 0 -26.0167 0H141.017C144.321 0 147 3.35786 147 7.5C147 11.6421 144.321 15 141.017 15H-26.0167C-29.3212 15 -32 11.6421 -32 7.5Z" fill="#002249"/>
<path fill-rule="evenodd" clip-rule="evenodd" d="M-32 367.5C-32 363.358 -29.3212 360 -26.0167 360H141.017C144.321 360 147 363.358 147 367.5C147 371.642 144.321 375 141.017 375H-26.0167C-29.3212 375 -32 371.642 -32 367.5Z" fill="#002249"/>
<path fill-rule="evenodd" clip-rule="evenodd" d="M214 7.5C214 3.35786 216.694 0 220.017 0H387.983C391.306 0 394 3.35786 394 7.5C394 11.6421 391.306 15 387.983 15H220.017C216.694 15 214 11.6421 214 7.5Z" fill="#002249"/>
<path fill-rule="evenodd" clip-rule="evenodd" d="M214 367.5C214 363.358 216.694 360 220.017 360H387.983C391.306 360 394 363.358 394 367.5C394 371.642 391.306 375 387.983 375H220.017C216.694 375 214 371.642 214 367.5Z" fill="#002249"/>
</svg>
