<svg width="184" height="184" viewBox="0 0 184 184" fill="none" xmlns="http://www.w3.org/2000/svg">
<g filter="url(#filter0_d_873_7369)">
<path d="M92 167C133.421 167 167 133.421 167 92C167 50.5786 133.421 17 92 17C50.5786 17 17 50.5786 17 92C17 133.421 50.5786 167 92 167Z" fill="#FFFBF7"/>
<path d="M92 167C133.421 167 167 133.421 167 92C167 50.5786 133.421 17 92 17C50.5786 17 17 50.5786 17 92C17 133.421 50.5786 167 92 167Z" stroke="#FFE0B3" stroke-width="4.93007" stroke-miterlimit="10"/>
</g>
<g filter="url(#filter1_i_873_7369)">
<path d="M92.0002 164.116C131.828 164.116 164.116 131.828 164.116 92.0002C164.116 52.1719 131.828 19.8848 92.0002 19.8848C52.1719 19.8848 19.8848 52.1719 19.8848 92.0002C19.8848 131.828 52.1719 164.116 92.0002 164.116Z" fill="#FFFBF7"/>
</g>
<path d="M92.0002 164.116C131.828 164.116 164.116 131.828 164.116 92.0002C164.116 52.1719 131.828 19.8848 92.0002 19.8848C52.1719 19.8848 19.8848 52.1719 19.8848 92.0002C19.8848 131.828 52.1719 164.116 92.0002 164.116Z" stroke="#FFE0B3" stroke-width="4.93007" stroke-miterlimit="10"/>
<path d="M96.3105 43.6125L95.55 43.08C90.4213 39.4888 83.3525 40.7353 79.7613 45.864L52.1544 85.2907C48.5633 90.4194 49.8097 97.4883 54.9384 101.079L55.6988 101.612C60.8275 105.203 67.8964 103.957 71.4876 98.8279L99.0944 59.4012C102.686 54.2725 101.439 47.2036 96.3105 43.6125Z" stroke="#FFA62B" stroke-width="4.93007" stroke-miterlimit="10"/>
<path d="M61.9159 80.05C55.3986 80.05 50.1152 85.3333 50.1152 91.8507C50.1152 98.368 55.3986 103.651 61.9159 103.651H122.231C128.748 103.651 134.031 98.368 134.031 91.8507C134.031 85.3333 128.748 80.05 122.231 80.05H61.9159Z" stroke="#FFA62B" stroke-width="4.93007" stroke-miterlimit="10"/>
<path d="M129.499 82.342L128.737 81.8129C123.603 78.2441 116.548 79.513 112.98 84.647L85.5448 124.115C81.9761 129.249 83.245 136.304 88.379 139.872L89.1402 140.401C94.2742 143.97 101.329 142.701 104.898 137.567L132.333 98.0998C135.901 92.9658 134.633 85.9108 129.499 82.342Z" stroke="#FFA62B" stroke-width="4.92341" stroke-miterlimit="10"/>
<defs>
<filter id="filter0_d_873_7369" x="0.112079" y="0.112079" width="183.776" height="183.776" filterUnits="userSpaceOnUse" color-interpolation-filters="sRGB">
<feFlood flood-opacity="0" result="BackgroundImageFix"/>
<feColorMatrix in="SourceAlpha" type="matrix" values="0 0 0 0 0 0 0 0 0 0 0 0 0 0 0 0 0 0 127 0" result="hardAlpha"/>
<feOffset/>
<feGaussianBlur stdDeviation="7.21154"/>
<feComposite in2="hardAlpha" operator="out"/>
<feColorMatrix type="matrix" values="0 0 0 0 1 0 0 0 0 0.65098 0 0 0 0 0.168627 0 0 0 0.5 0"/>
<feBlend mode="normal" in2="BackgroundImageFix" result="effect1_dropShadow_873_7369"/>
<feBlend mode="normal" in="SourceGraphic" in2="effect1_dropShadow_873_7369" result="shape"/>
</filter>
<filter id="filter1_i_873_7369" x="17.4199" y="17.4199" width="149.16" height="152.045" filterUnits="userSpaceOnUse" color-interpolation-filters="sRGB">
<feFlood flood-opacity="0" result="BackgroundImageFix"/>
<feBlend mode="normal" in="SourceGraphic" in2="BackgroundImageFix" result="shape"/>
<feColorMatrix in="SourceAlpha" type="matrix" values="0 0 0 0 0 0 0 0 0 0 0 0 0 0 0 0 0 0 127 0" result="hardAlpha"/>
<feOffset dy="2.88462"/>
<feGaussianBlur stdDeviation="1.44231"/>
<feComposite in2="hardAlpha" operator="arithmetic" k2="-1" k3="1"/>
<feColorMatrix type="matrix" values="0 0 0 0 0 0 0 0 0 0 0 0 0 0 0 0 0 0 0.25 0"/>
<feBlend mode="normal" in2="shape" result="effect1_innerShadow_873_7369"/>
</filter>
</defs>
</svg>
