<?xml version="1.0" encoding="utf-8"?>
<!-- Generator: Adobe Illustrator 23.0.2, SVG Export Plug-In . SVG Version: 6.00 Build 0)  -->
<svg version="1.1" id="Layer_1" xmlns="http://www.w3.org/2000/svg" xmlns:xlink="http://www.w3.org/1999/xlink" x="0px" y="0px"
	 viewBox="0 0 184 184" style="enable-background:new 0 0 184 184;" xml:space="preserve">
<style type="text/css">
	.st0{fill:#FFFBF7;}
	.st1{fill:none;stroke:#FFE0B3;stroke-width:4.9301;stroke-miterlimit:10;}
	.st2{fill:none;stroke:#FFA62B;stroke-width:4.9301;stroke-miterlimit:10;}
	.st3{fill:none;stroke:#FFA62B;stroke-width:4.9234;stroke-miterlimit:10;}
</style>
<g>
	<path class="st0" d="M92,164.1c39.8,0,72.1-32.3,72.1-72.1c0-39.8-32.3-72.1-72.1-72.1c-39.8,0-72.1,32.3-72.1,72.1
		C19.9,131.8,52.2,164.1,92,164.1z"/>
</g>
<path class="st1" d="M92,164.1c39.8,0,72.1-32.3,72.1-72.1c0-39.8-32.3-72.1-72.1-72.1c-39.8,0-72.1,32.3-72.1,72.1
	C19.9,131.8,52.2,164.1,92,164.1z"/>
<path class="st2" d="M96.3,43.6l-0.8-0.5c-5.1-3.6-12.2-2.3-15.8,2.8L52.2,85.3c-3.6,5.1-2.3,12.2,2.8,15.8l0.8,0.5
	c5.1,3.6,12.2,2.3,15.8-2.8l27.6-39.4C102.7,54.3,101.4,47.2,96.3,43.6z"/>
<path class="st2" d="M61.9,80.1c-6.5,0-11.8,5.3-11.8,11.8c0,6.5,5.3,11.8,11.8,11.8h60.3c6.5,0,11.8-5.3,11.8-11.8
	c0-6.5-5.3-11.8-11.8-11.8H61.9z"/>
<path class="st3" d="M129.5,82.3l-0.8-0.5c-5.1-3.6-12.2-2.3-15.8,2.8l-27.4,39.5c-3.6,5.1-2.3,12.2,2.8,15.8l0.8,0.5
	c5.1,3.6,12.2,2.3,15.8-2.8l27.4-39.5C135.9,93,134.6,85.9,129.5,82.3z"/>
</svg>
