<svg width="305" height="313" viewBox="0 0 305 313" fill="none" xmlns="http://www.w3.org/2000/svg">
<g opacity="0.15" filter="url(#filter0_f_812_7355)">
<circle cx="148.967" cy="156.192" r="54" transform="rotate(-2.92763 148.967 156.192)" fill="#FDFFFE"/>
</g>
<g opacity="0.15" filter="url(#filter1_f_812_7355)">
<circle cx="148.289" cy="152.722" r="84.5" transform="rotate(-2.92763 148.289 152.722)" fill="#FDFFFE"/>
</g>
<g opacity="0.5" filter="url(#filter2_f_812_7355)">
<circle cx="148.442" cy="155.718" r="31.5" transform="rotate(-2.92763 148.442 155.718)" fill="#FDFFFE"/>
</g>
<g filter="url(#filter3_f_812_7355)">
<path d="M147.946 136.218L152.719 152.035L168.941 155.171L153.124 159.945L149.989 176.166L145.215 160.349L128.993 157.214L144.81 152.44L147.946 136.218Z" fill="#FDFFFE"/>
</g>
<g filter="url(#filter4_f_812_7355)">
<path d="M148.15 140.213L151.969 152.867L164.946 155.375L152.293 159.194L149.784 172.171L145.965 159.518L132.988 157.009L145.642 153.19L148.15 140.213Z" fill="#FDFFFE"/>
</g>
<path d="M148.472 144.077L151.336 153.568L160.951 155.579L151.579 158.313L149.697 168.046L146.833 158.556L136.982 156.805L146.59 153.81L148.472 144.077Z" fill="#FDFFFE"/>
<path d="M148.788 152.697L141.408 8.38525" stroke="url(#paint0_linear_812_7355)" stroke-width="2"/>
<path d="M152.962 155.988L297.273 148.608" stroke="url(#paint1_linear_812_7355)" stroke-width="2"/>
<path d="M152.462 156.013L8.15039 163.394" stroke="url(#paint2_linear_812_7355)" stroke-width="2"/>
<path d="M149.222 161.186L156.603 305.497" stroke="url(#paint3_linear_812_7355)" stroke-width="2"/>
<path d="M122.335 143.223L149 156L128.486 126.668" stroke="url(#paint4_linear_812_7355)" stroke-width="0.5"/>
<path d="M148.992 156.692L124 169" stroke="url(#paint5_linear_812_7355)" stroke-width="0.5"/>
<path d="M149 156L189.981 171.124M149 156L186.005 192M149 156L165.527 192.998" stroke="url(#paint6_linear_812_7355)" stroke-width="0.5"/>
<path d="M149 156L178.423 102.927" stroke="url(#paint7_linear_812_7355)" stroke-width="0.5"/>
<path d="M149.002 156L171.813 142.168" stroke="url(#paint8_linear_812_7355)" stroke-width="0.5"/>
<path d="M149 156L130 178" stroke="url(#paint9_linear_812_7355)" stroke-width="0.5"/>
<path d="M148.993 156.692L140 184" stroke="url(#paint10_linear_812_7355)" stroke-width="0.5"/>
<g opacity="0.05" filter="url(#filter5_f_812_7355)">
<circle cx="149.441" cy="155.667" r="54.25" transform="rotate(-2.92763 149.441 155.667)" stroke="url(#paint11_linear_812_7355)" stroke-width="0.5"/>
</g>
<g opacity="0.05" filter="url(#filter6_f_812_7355)">
<circle cx="148.966" cy="156.192" r="48.75" transform="rotate(124.114 148.966 156.192)" stroke="url(#paint12_linear_812_7355)" stroke-width="0.5"/>
</g>
<defs>
<filter id="filter0_f_812_7355" x="70.9658" y="78.1909" width="156.002" height="156.002" filterUnits="userSpaceOnUse" color-interpolation-filters="sRGB">
<feFlood flood-opacity="0" result="BackgroundImageFix"/>
<feBlend mode="normal" in="SourceGraphic" in2="BackgroundImageFix" result="shape"/>
<feGaussianBlur stdDeviation="12" result="effect1_foregroundBlur_812_7355"/>
</filter>
<filter id="filter1_f_812_7355" x="27.7861" y="32.2202" width="241.004" height="241.004" filterUnits="userSpaceOnUse" color-interpolation-filters="sRGB">
<feFlood flood-opacity="0" result="BackgroundImageFix"/>
<feBlend mode="normal" in="SourceGraphic" in2="BackgroundImageFix" result="shape"/>
<feGaussianBlur stdDeviation="18" result="effect1_foregroundBlur_812_7355"/>
</filter>
<filter id="filter2_f_812_7355" x="98.9414" y="106.217" width="99.001" height="99.0015" filterUnits="userSpaceOnUse" color-interpolation-filters="sRGB">
<feFlood flood-opacity="0" result="BackgroundImageFix"/>
<feBlend mode="normal" in="SourceGraphic" in2="BackgroundImageFix" result="shape"/>
<feGaussianBlur stdDeviation="9" result="effect1_foregroundBlur_812_7355"/>
</filter>
<filter id="filter3_f_812_7355" x="104.993" y="112.218" width="87.9482" height="87.9478" filterUnits="userSpaceOnUse" color-interpolation-filters="sRGB">
<feFlood flood-opacity="0" result="BackgroundImageFix"/>
<feBlend mode="normal" in="SourceGraphic" in2="BackgroundImageFix" result="shape"/>
<feGaussianBlur stdDeviation="12" result="effect1_foregroundBlur_812_7355"/>
</filter>
<filter id="filter4_f_812_7355" x="124.988" y="132.213" width="47.958" height="47.9585" filterUnits="userSpaceOnUse" color-interpolation-filters="sRGB">
<feFlood flood-opacity="0" result="BackgroundImageFix"/>
<feBlend mode="normal" in="SourceGraphic" in2="BackgroundImageFix" result="shape"/>
<feGaussianBlur stdDeviation="4" result="effect1_foregroundBlur_812_7355"/>
</filter>
<filter id="filter5_f_812_7355" x="93.9395" y="100.166" width="111.003" height="111.002" filterUnits="userSpaceOnUse" color-interpolation-filters="sRGB">
<feFlood flood-opacity="0" result="BackgroundImageFix"/>
<feBlend mode="normal" in="SourceGraphic" in2="BackgroundImageFix" result="shape"/>
<feGaussianBlur stdDeviation="0.5" result="effect1_foregroundBlur_812_7355"/>
</filter>
<filter id="filter6_f_812_7355" x="98.9609" y="106.188" width="100.01" height="100.01" filterUnits="userSpaceOnUse" color-interpolation-filters="sRGB">
<feFlood flood-opacity="0" result="BackgroundImageFix"/>
<feBlend mode="normal" in="SourceGraphic" in2="BackgroundImageFix" result="shape"/>
<feGaussianBlur stdDeviation="0.5" result="effect1_foregroundBlur_812_7355"/>
</filter>
<linearGradient id="paint0_linear_812_7355" x1="141.908" y1="8.35972" x2="149.288" y2="152.671" gradientUnits="userSpaceOnUse">
<stop stop-color="white" stop-opacity="0"/>
<stop offset="1" stop-color="white" stop-opacity="0.7"/>
</linearGradient>
<linearGradient id="paint1_linear_812_7355" x1="297.299" y1="149.107" x2="152.988" y2="156.488" gradientUnits="userSpaceOnUse">
<stop stop-color="white" stop-opacity="0"/>
<stop offset="1" stop-color="white" stop-opacity="0.7"/>
</linearGradient>
<linearGradient id="paint2_linear_812_7355" x1="8.17593" y1="163.893" x2="152.487" y2="156.513" gradientUnits="userSpaceOnUse">
<stop stop-color="white" stop-opacity="0"/>
<stop offset="1" stop-color="white" stop-opacity="0.7"/>
</linearGradient>
<linearGradient id="paint3_linear_812_7355" x1="156.103" y1="305.523" x2="148.723" y2="161.211" gradientUnits="userSpaceOnUse">
<stop stop-color="white" stop-opacity="0"/>
<stop offset="1" stop-color="white" stop-opacity="0.7"/>
</linearGradient>
<linearGradient id="paint4_linear_812_7355" x1="149.738" y1="156.315" x2="125.873" y2="128.105" gradientUnits="userSpaceOnUse">
<stop stop-color="white"/>
<stop offset="0.690253" stop-color="white" stop-opacity="0"/>
</linearGradient>
<linearGradient id="paint5_linear_812_7355" x1="150.079" y1="157.06" x2="116.897" y2="170.377" gradientUnits="userSpaceOnUse">
<stop stop-color="white"/>
<stop offset="0.690253" stop-color="white" stop-opacity="0"/>
</linearGradient>
<linearGradient id="paint6_linear_812_7355" x1="166.501" y1="175.503" x2="138.647" y2="142.228" gradientUnits="userSpaceOnUse">
<stop stop-color="white" stop-opacity="0"/>
<stop offset="1" stop-color="white"/>
</linearGradient>
<linearGradient id="paint7_linear_812_7355" x1="149.867" y1="156.232" x2="153.464" y2="121.459" gradientUnits="userSpaceOnUse">
<stop stop-color="white"/>
<stop offset="0.690253" stop-color="white" stop-opacity="0"/>
</linearGradient>
<linearGradient id="paint8_linear_812_7355" x1="171.825" y1="142.394" x2="137.359" y2="169.341" gradientUnits="userSpaceOnUse">
<stop stop-color="white" stop-opacity="0"/>
<stop offset="1" stop-color="white"/>
</linearGradient>
<linearGradient id="paint9_linear_812_7355" x1="136.291" y1="178.041" x2="139.377" y2="145.749" gradientUnits="userSpaceOnUse">
<stop stop-color="white" stop-opacity="0"/>
<stop offset="1" stop-color="white"/>
</linearGradient>
<linearGradient id="paint10_linear_812_7355" x1="147.034" y1="181.434" x2="141.846" y2="146.408" gradientUnits="userSpaceOnUse">
<stop stop-color="white" stop-opacity="0"/>
<stop offset="1" stop-color="white"/>
</linearGradient>
<linearGradient id="paint11_linear_812_7355" x1="114.441" y1="101.167" x2="149.941" y2="184.667" gradientUnits="userSpaceOnUse">
<stop stop-color="white"/>
<stop offset="1" stop-color="white" stop-opacity="0"/>
</linearGradient>
<linearGradient id="paint12_linear_812_7355" x1="117.498" y1="107.192" x2="149.416" y2="182.266" gradientUnits="userSpaceOnUse">
<stop stop-color="white"/>
<stop offset="1" stop-color="white" stop-opacity="0"/>
</linearGradient>
</defs>
</svg>
