<?xml version="1.0" encoding="utf-8"?>
<!-- Generator: Adobe Illustrator 23.0.2, SVG Export Plug-In . SVG Version: 6.00 Build 0)  -->
<svg version="1.1" id="Layer_1" xmlns="http://www.w3.org/2000/svg" xmlns:xlink="http://www.w3.org/1999/xlink" x="0px" y="0px"
	 viewBox="0 0 360 372" style="enable-background:new 0 0 360 372;" xml:space="preserve">
<style type="text/css">
	.st0{fill-rule:evenodd;clip-rule:evenodd;fill:#1A4C86;}
	.st1{fill-rule:evenodd;clip-rule:evenodd;fill:url(#SVGID_1_);}
	.st2{fill-rule:evenodd;clip-rule:evenodd;fill:url(#SVGID_2_);}
	.st3{fill-rule:evenodd;clip-rule:evenodd;fill:url(#SVGID_3_);}
	.st4{fill-rule:evenodd;clip-rule:evenodd;fill:#061525;}
	.st5{fill:#061525;}
</style>
<path class="st0" d="M360,81.7V339c-30,6.5-123.5,15.5-176,15.5s-142.5-6-184-12V81.7C46.5,31.1,110,0,180,0S313.5,31.1,360,81.7z"
	/>
<linearGradient id="SVGID_1_" gradientUnits="userSpaceOnUse" x1="180" y1="-526" x2="180" y2="-607" gradientTransform="matrix(1 0 0 -1 0 -252)">
	<stop  offset="5.208330e-03" style="stop-color:#11335A;stop-opacity:0"/>
	<stop  offset="0.4948" style="stop-color:#11335A;stop-opacity:0.65"/>
	<stop  offset="1" style="stop-color:#11335A"/>
</linearGradient>
<path class="st1" d="M360,274H0v68.5c41.5,6,131.5,12,184,12s146-9,176-15.5V274z"/>
<linearGradient id="SVGID_2_" gradientUnits="userSpaceOnUse" x1="-17.5409" y1="-427.2192" x2="231.7346" y2="-301.8566" gradientTransform="matrix(1 0 0 -1 0 -252)">
	<stop  offset="0" style="stop-color:#FFFFFF"/>
	<stop  offset="1" style="stop-color:#FFFFFF;stop-opacity:0"/>
</linearGradient>
<path class="st2" d="M180,5C109.7,5,45.9,37.1,0,89.1v-7.5C46.5,31.1,110,0,180,0s133.5,31.1,180,81.7v7.5C314.1,37.1,250.3,5,180,5
	z"/>
<linearGradient id="SVGID_3_" gradientUnits="userSpaceOnUse" x1="192.3284" y1="951.5961" x2="160.7404" y2="809.9161" gradientTransform="matrix(1 0 0 1 0 -626)">
	<stop  offset="0" style="stop-color:#0E2C4D"/>
	<stop  offset="1" style="stop-color:#1A4C86"/>
</linearGradient>
<path class="st3" d="M0,308.1l360,5.8v-18.2c-0.9-0.2-1.8-0.3-2.9-0.3h-183c9.6,0,76.3,4,108.5,6H157.1H0V308.1z M0,295.2
	c1.3,0.1,2.8,0.2,4.6,0.3c20,0.5,141-3.5,122.5-4.5c-14.4-0.8-88.5-2.2-127.1-2.9V295.2z M0,283.5c57.7,0.8,163.2,1.9,149.1,0
	c-14-2-103.1-5.6-149.1-7.4V283.5z M0,239.3c21.8-1.1,59.8-1.5,91.9-2l0,0l0,0c36.7-0.5,65.6-0.8,53.6-1.9
	c-17.4-1.5-100-6.4-145.6-9.1v13H0z M335.1,232.5c5.9-3.7,16.5-2.2,24.9,0v48.6c-29.5-2-76.1-4.8-98.4-5.1
	c-14.2-0.2-32.2-1.8-51.6-3.5c-24.9-2.2-52.1-4.5-76.9-4.5h-54c57-4.3,175-12.2,191-9c16,3.2,42.7-2,54-5
	c-30-4.3-111.4-12.3-197-9.5c31.3-3,99.2-9,120-9c6.3,0,14,0.2,22.3,0.4C295.5,236.6,327.1,237.4,335.1,232.5z"/>
<g>
	<path class="st4" d="M185,298.1c2-2.2,5.4-7,3-9c-3-2.5-8.5-3.5-10,1c-1.2,3.6,0.5,6.8,1.5,8c-3.2,1.3-9.4,5.9-9,13.5
		c0.2,4.5-0.6,7.2-1.4,9.6c-0.9,2.7-1.6,5-0.6,8.9c1,3.6,2.6,4,4.1,4.3c1.6,0.3,2.9,0.6,2.9,4.7c0,6.4,1.7,22.7,2.5,30
		c-1.5,0.3-4.3,1.2-3.5,2s10.7,0.3,15.5,0c-0.7-0.7-2-2.2-2-3s1-20.7,1.5-30.5c1.7-1,5-3.7,5-6.5c0-0.3,0-0.6,0-1.1
		c0-5.4,0.2-22.3-3.5-26.9C187.8,299.1,185.7,298.1,185,298.1z M183,362.6l1-21h-2L183,362.6z"/>
	<path class="st5" d="M268,370.5v-2l-42-2l-40.5-0.5l-6,5.5L268,370.5z"/>
</g>
</svg>
