<?xml version="1.0" encoding="utf-8"?>
<!-- Generator: Adobe Illustrator 23.0.2, SVG Export Plug-In . SVG Version: 6.00 Build 0)  -->
<svg version="1.1" id="Layer_1" xmlns="http://www.w3.org/2000/svg" xmlns:xlink="http://www.w3.org/1999/xlink" x="0px" y="0px"
	 viewBox="0 0 94 389" style="enable-background:new 0 0 94 389;" xml:space="preserve">
<style type="text/css">
	.st0{fill:#E78C45;}
</style>
<g>
	<rect x="18" y="45.5" transform="matrix(0.4418 -0.8971 0.8971 0.4418 -31.6187 45.1838)" class="st0" width="5" height="5"/>
	
		<rect x="33.5" y="81.2" transform="matrix(0.4418 -0.8971 0.8971 0.4418 -55.5618 81.3786)" class="st0" width="8.3" height="8.3"/>
	<rect x="52.5" y="126" transform="matrix(0.866 -0.5 0.5 0.866 -57.4981 45.7831)" class="st0" width="8.3" height="8.3"/>
	<rect x="30.5" y="148" transform="matrix(0.866 -0.5 0.5 0.866 -71.4456 37.7305)" class="st0" width="8.3" height="8.3"/>
	<rect x="52.5" y="12" transform="matrix(0.9659 -0.2588 0.2588 0.9659 -1.8721 14.7203)" class="st0" width="4.8" height="4.8"/>
	<rect x="60" y="50.5" transform="matrix(0.9659 -0.2588 0.2588 0.9659 -12.0097 18.5421)" class="st0" width="8.8" height="8.8"/>
	<rect x="76.5" y="99.7" transform="matrix(0.866 -0.5 0.5 0.866 -40.5623 53.2701)" class="st0" width="5.2" height="5.2"/>
	<rect x="21.9" y="114.4" transform="matrix(0.866 -0.5 0.5 0.866 -55.2293 27.9444)" class="st0" width="5.2" height="5.2"/>
	<rect x="56.9" y="160.4" transform="matrix(0.866 -0.5 0.5 0.866 -73.5402 51.6073)" class="st0" width="5.2" height="5.2"/>
	<rect x="0.8" y="88.8" transform="matrix(0.3031 -0.953 0.953 0.3031 -84.604 65.99)" class="st0" width="4.1" height="4.1"/>
</g>
</svg>
