<?xml version="1.0" encoding="utf-8"?>
<!-- Generator: Adobe Illustrator 23.0.2, SVG Export Plug-In . SVG Version: 6.00 Build 0)  -->
<svg version="1.1" id="Layer_1" xmlns="http://www.w3.org/2000/svg" xmlns:xlink="http://www.w3.org/1999/xlink" x="0px" y="0px"
	 viewBox="0 0 94 389" style="enable-background:new 0 0 94 389;" xml:space="preserve">
<style type="text/css">
	.st0{fill:#E78C45;}
	.st1{fill:#FFA62B;}
	.st2{fill:#FDBE66;}
</style>
<g>
	<rect x="17.7" y="69.9" transform="matrix(0.3031 -0.953 0.953 0.3031 -54.6 68.011)" class="st0" width="2.9" height="2.9"/>
	<rect x="53.4" y="34.9" transform="matrix(0.3031 -0.953 0.953 0.3031 3.5888 77.5798)" class="st0" width="2.9" height="2.9"/>
	<rect x="42.4" y="0.9" transform="matrix(0.3031 -0.953 0.953 0.3031 28.3235 43.4027)" class="st0" width="2.9" height="2.9"/>
	
		<rect x="44.4" y="111.9" transform="matrix(0.3031 -0.953 0.953 0.3031 -76.0611 122.6645)" class="st0" width="2.9" height="2.9"/>
	<rect x="76.5" y="136" transform="matrix(0.8558 -0.5173 0.5173 0.8558 -59.8887 60.1889)" class="st0" width="2.9" height="2.9"/>
	<rect x="44.5" y="184" transform="matrix(0.8558 -0.5173 0.5173 0.8558 -89.3316 50.5483)" class="st0" width="2.9" height="2.9"/>
	
		<rect x="33.5" y="208" transform="matrix(0.8558 -0.5173 0.5173 0.8558 -103.3344 48.3189)" class="st0" width="2.9" height="2.9"/>
	<rect x="53.4" y="69.9" transform="matrix(0.3031 -0.953 0.953 0.3031 -29.7647 101.9713)" class="st0" width="2.9" height="2.9"/>
	<rect x="35.5" y="22.8" transform="matrix(0.9659 -0.2588 0.2588 0.9659 -4.9518 10.2987)" class="st0" width="2.3" height="2.3"/>
	<rect x="41.3" y="54.8" transform="matrix(0.5 -0.866 0.866 0.5 -27.2319 64.7443)" class="st0" width="2.3" height="2.3"/>
	<rect x="76.4" y="71.9" transform="matrix(0.5 -0.866 0.866 0.5 -24.5002 103.7305)" class="st0" width="2.3" height="2.3"/>
	<rect x="19.4" y="135.9" transform="matrix(0.5 -0.866 0.866 0.5 -108.4256 86.3669)" class="st0" width="2.3" height="2.3"/>
	<rect x="22.4" y="188.9" transform="matrix(0.5 -0.866 0.866 0.5 -152.825 115.465)" class="st0" width="2.3" height="2.3"/>
	<rect x="55.4" y="220.9" transform="matrix(0.5 -0.866 0.866 0.5 -164.0378 160.0439)" class="st0" width="2.3" height="2.3"/>
	<rect x="90.4" y="121.9" transform="matrix(0.5 -0.866 0.866 0.5 -60.8013 140.8547)" class="st0" width="2.3" height="2.3"/>
	<rect x="33.4" y="232.9" transform="matrix(0.5 -0.866 0.866 0.5 -185.4301 146.9913)" class="st0" width="2.3" height="2.3"/>
	<rect x="55.4" y="278.4" transform="matrix(0.5 -0.866 0.866 0.5 -213.8342 188.7938)" class="st1" width="2.3" height="2.3"/>
	<rect x="41.4" y="318.4" transform="matrix(0.5 -0.866 0.866 0.5 -255.4752 196.6695)" class="st1" width="2.3" height="2.3"/>
	<rect x="47.4" y="246.4" transform="matrix(0.5 -0.866 0.866 0.5 -190.1214 165.8656)" class="st0" width="2.3" height="2.3"/>
	<rect x="41.4" y="385.4" transform="matrix(0.5 -0.866 0.866 0.5 -313.4989 230.1695)" class="st2" width="2.3" height="2.3"/>
	<rect x="54.4" y="343.4" transform="matrix(0.5 -0.866 0.866 0.5 -270.6259 220.4278)" class="st2" width="2.3" height="2.3"/>
	<rect x="58.4" y="144.9" transform="matrix(0.5 -0.866 0.866 0.5 -96.7198 124.6419)" class="st0" width="2.3" height="2.3"/>
	<rect x="65.4" y="190.9" transform="matrix(0.5 -0.866 0.866 0.5 -133.057 153.7041)" class="st0" width="2.3" height="2.3"/>
	<rect x="64.4" y="90.9" transform="matrix(0.5 -0.866 0.866 0.5 -46.9547 102.8382)" class="st0" width="2.3" height="2.3"/>
	<rect x="70.4" y="114.9" transform="matrix(0.5 -0.866 0.866 0.5 -64.7391 120.0342)" class="st0" width="2.3" height="2.3"/>
	<rect x="0.4" y="118.9" transform="matrix(0.5 -0.866 0.866 0.5 -103.2032 61.4125)" class="st0" width="2.3" height="2.3"/>
</g>
</svg>
