<?xml version="1.0" encoding="utf-8"?>
<!-- Generator: Adobe Illustrator 23.0.2, SVG Export Plug-In . SVG Version: 6.00 Build 0)  -->
<svg version="1.1" id="Layer_1" xmlns="http://www.w3.org/2000/svg" xmlns:xlink="http://www.w3.org/1999/xlink" x="0px" y="0px"
	 viewBox="0 0 317 395" style="enable-background:new 0 0 317 395;" xml:space="preserve">
<style type="text/css">
	.st0{opacity:0.5;}
	.st1{opacity:0.75;}
	.st2{fill:#FFFFFF;}
	.st3{opacity:0.5;fill:#FFFFFF;enable-background:new    ;}
	.st4{opacity:0.25;}
</style>
<g>
	<g class="st0">
		<g class="st1">
			<circle class="st2" cx="81.5" cy="38.5" r="1.5"/>
		</g>
		<circle class="st3" cx="81.5" cy="38.5" r="0.8"/>
	</g>
	<g class="st0">
		<g class="st1">
			<circle class="st2" cx="138.5" cy="35.5" r="1.5"/>
		</g>
		<circle class="st3" cx="138.5" cy="35.5" r="0.8"/>
	</g>
	<g class="st0">
		<g class="st1">
			<circle class="st2" cx="70.5" cy="25.5" r="1.5"/>
		</g>
		<circle class="st3" cx="70.5" cy="25.5" r="0.8"/>
	</g>
	<g class="st1">
		<circle class="st2" cx="65.5" cy="314.5" r="1.5"/>
	</g>
	<g class="st1">
		<g class="st1">
			<circle class="st2" cx="252" cy="337" r="1"/>
		</g>
		<circle class="st3" cx="252" cy="337" r="0.5"/>
	</g>
	<g class="st1">
		<g class="st1">
			<circle class="st2" cx="291" cy="281" r="1"/>
		</g>
		<circle class="st3" cx="291" cy="281" r="0.5"/>
	</g>
	<g class="st0">
		<g class="st1">
			<circle class="st2" cx="80.5" cy="141.5" r="1.5"/>
		</g>
		<circle class="st3" cx="80.5" cy="141.5" r="0.8"/>
	</g>
	<g class="st0">
		<g class="st1">
			<circle class="st2" cx="40.5" cy="5.5" r="1.5"/>
		</g>
		<circle class="st3" cx="40.5" cy="5.5" r="0.8"/>
	</g>
	<g class="st0">
		<g class="st1">
			<circle class="st2" cx="15.5" cy="196.5" r="1.5"/>
		</g>
		<circle class="st3" cx="15.5" cy="196.5" r="0.8"/>
	</g>
	<g class="st0">
		<g class="st1">
			<circle class="st2" cx="167.5" cy="38.5" r="1.5"/>
		</g>
		<circle class="st3" cx="167.5" cy="38.5" r="0.8"/>
	</g>
	<g class="st4">
		<g class="st1">
			<circle class="st2" cx="282" cy="215" r="2"/>
		</g>
		<circle class="st3" cx="282" cy="215" r="1"/>
	</g>
	<g class="st4">
		<g class="st1">
			<circle class="st2" cx="311" cy="109" r="2"/>
		</g>
		<circle class="st3" cx="311" cy="109" r="1"/>
	</g>
	<g class="st4">
		<g class="st1">
			<circle class="st2" cx="6" cy="389" r="2"/>
		</g>
		<circle class="st3" cx="6" cy="389" r="1"/>
	</g>
	<g class="st4">
		<g class="st1">
			<circle class="st2" cx="280" cy="19" r="2"/>
		</g>
		<circle class="st3" cx="280" cy="19" r="1"/>
	</g>
</g>
</svg>
