<?xml version="1.0" encoding="utf-8"?>
<!-- Generator: Adobe Illustrator 23.0.2, SVG Export Plug-In . SVG Version: 6.00 Build 0)  -->
<svg version="1.1" id="Layer_1" xmlns="http://www.w3.org/2000/svg" xmlns:xlink="http://www.w3.org/1999/xlink" x="0px" y="0px"
	 viewBox="0 0 338 510" style="enable-background:new 0 0 338 510;" xml:space="preserve">
<style type="text/css">
	.st0{fill:#00050A;}
	.st1{fill:url(#SVGID_1_);}
</style>
<g>
	<g>
		<g>
			<path class="st0" d="M138,300h180c5.5,0,10,4.5,10,10v180c0,5.5-4.5,10-10,10H138c-5.5,0-10-4.5-10-10V310
				C128,304.5,132.5,300,138,300z"/>
			
				<linearGradient id="SVGID_1_" gradientUnits="userSpaceOnUse" x1="222.65" y1="-285" x2="222.65" y2="-460" gradientTransform="matrix(1 0 0 -1 0 24)">
				<stop  offset="0" style="stop-color:#CB5B24"/>
				<stop  offset="1" style="stop-color:#9B451B"/>
			</linearGradient>
			<path class="st1" d="M150.2,334h-3.6v-14.2h-5.2v-3h14v3h-5.2V334z M171.4,316.8V334h-3.6v-7.7h-6.7v7.7h-3.6v-17.2h3.6v6.5h6.7
				v-6.5H171.4z M187.6,319.8h-9.1v3.6h8.4v3h-8.4v4.5h9.6v3H175v-17.2h12.7L187.6,319.8L187.6,319.8z M205.4,324.7h7.2v9.3h-2.4
				l-0.4-2.2c-1.3,1.7-3.1,2.6-5.5,2.6c-2.3,0-4.2-0.8-5.7-2.5c-1.5-1.6-2.2-3.8-2.2-6.6c0-2.7,0.8-4.9,2.3-6.6s3.6-2.5,6.2-2.5
				c2.2,0,4,0.6,5.3,1.7s2.1,2.5,2.2,4.1h-3.6c-0.2-0.9-0.7-1.5-1.4-2.1c-0.7-0.5-1.5-0.8-2.4-0.8c-1.5,0-2.8,0.6-3.6,1.7
				c-0.9,1.1-1.3,2.6-1.3,4.5s0.4,3.4,1.3,4.4c0.9,1,2.1,1.5,3.8,1.5c0.9,0,1.8-0.3,2.6-0.9s1.3-1.6,1.6-2.9h-4L205.4,324.7
				L205.4,324.7z M223.7,324.4c0.9,0,1.6-0.2,2.1-0.5c0.5-0.4,0.7-1,0.7-1.8c0-0.7-0.2-1.3-0.6-1.7c-0.4-0.4-1-0.6-1.9-0.6h-4.5v4.6
				H223.7z M216,316.8h8.7c1.8,0,3.1,0.5,4,1.4s1.4,2.1,1.4,3.4c0,2-0.9,3.4-2.7,4.1c0.8,0.3,1.4,0.8,1.7,1.4s0.5,1.6,0.5,3.2
				c0,1.5,0.1,2.4,0.2,2.7c0.1,0.3,0.3,0.4,0.6,0.6v0.5h-4c-0.3-0.8-0.4-1.9-0.4-3.4c0-1.2-0.1-2-0.2-2.4c-0.2-0.4-0.4-0.6-0.8-0.8
				c-0.4-0.2-1-0.2-1.7-0.2h-3.7v6.7H216V316.8z M245.7,319.8h-9.1v3.6h8.4v3h-8.4v4.5h9.6v3h-13.1v-17.2h12.7L245.7,319.8
				L245.7,319.8z M253.4,327.5h4.4l-2.1-6.8l0,0L253.4,327.5z M251.3,334h-3.8l6.1-17.2h4.2l6.1,17.2H260l-1.1-3.6h-6.4L251.3,334z
				 M270.9,334h-3.6v-14.2h-5.2v-3h14v3h-5.2L270.9,334L270.9,334z M150.5,352.4c0.9,0,1.6-0.2,2.1-0.5c0.5-0.4,0.7-1,0.7-1.8
				c0-0.7-0.2-1.3-0.6-1.7c-0.4-0.4-1-0.6-1.9-0.6h-4.5v4.6H150.5z M142.8,344.8h8.7c1.8,0,3.1,0.5,4,1.4s1.4,2.1,1.4,3.4
				c0,2-0.9,3.4-2.7,4.1c0.8,0.3,1.4,0.8,1.7,1.4s0.5,1.6,0.5,3.2c0,1.5,0.1,2.4,0.2,2.7c0.1,0.3,0.3,0.4,0.6,0.6v0.5h-4
				c-0.3-0.8-0.4-1.9-0.4-3.4c0-1.2-0.1-2-0.2-2.4c-0.2-0.4-0.4-0.6-0.8-0.8c-0.4-0.2-1-0.2-1.7-0.2h-3.7v6.7h-3.5v-17.2
				L142.8,344.8L142.8,344.8z M172.5,347.8h-9.1v3.6h8.4v3h-8.4v4.5h9.5v3h-13.1v-17.2h12.7L172.5,347.8L172.5,347.8z M178.4,356.7
				c0,0.9,0.3,1.5,0.9,2c0.6,0.5,1.5,0.8,2.7,0.8s2.1-0.2,2.7-0.6c0.6-0.4,0.9-0.9,0.9-1.7c0-0.4-0.2-0.8-0.5-1.1
				c-0.3-0.3-1.1-0.6-2.3-0.9l-2.9-0.7c-1.9-0.4-3.1-1-3.8-1.8s-1-1.8-1-3.1c0-1.6,0.6-2.8,1.7-3.8c1.1-1,2.8-1.5,5-1.5
				s3.9,0.6,5,1.7s1.7,2.4,1.7,3.9H185c-0.1-0.8-0.4-1.5-1-1.9s-1.4-0.7-2.5-0.7c-0.9,0-1.6,0.2-2.2,0.6c-0.5,0.4-0.8,0.9-0.8,1.5
				c0,0.4,0.1,0.8,0.4,1.1c0.2,0.3,0.6,0.5,1.2,0.6l4.6,1.1c1.7,0.4,2.8,1,3.4,1.8c0.6,0.8,0.9,1.7,0.9,2.8c0,1.9-0.7,3.3-2,4.2
				c-1.3,0.9-2.9,1.4-4.8,1.4c-2.5,0-4.3-0.5-5.6-1.6c-1.2-1.1-1.8-2.5-1.8-4.2h3.6L178.4,356.7L178.4,356.7z M195.4,362h-3.6v-17.2
				h3.6V362z M207.1,352.7h7.2v9.3h-2.4l-0.4-2.2c-1.3,1.7-3.1,2.6-5.4,2.6c-2.3,0-4.2-0.8-5.7-2.5c-1.5-1.6-2.2-3.8-2.2-6.6
				c0-2.7,0.8-4.9,2.3-6.6s3.6-2.5,6.2-2.5c2.2,0,4,0.6,5.3,1.7s2.1,2.5,2.2,4.1h-3.6c-0.2-0.9-0.7-1.5-1.4-2.1
				c-0.7-0.5-1.5-0.8-2.4-0.8c-1.5,0-2.8,0.6-3.6,1.7c-0.9,1.1-1.3,2.6-1.3,4.5s0.4,3.4,1.3,4.4c0.9,1,2.1,1.5,3.8,1.5
				c0.9,0,1.8-0.3,2.6-0.9s1.3-1.6,1.6-2.9h-4v-2.7H207.1z M228.4,344.8h3.4V362h-3.6l-7-12.3l0,0V362h-3.4v-17.2h3.8l6.8,12l0,0
				V344.8z M239.7,355.5h4.4l-2.1-6.8l0,0L239.7,355.5z M237.6,362h-3.8l6.1-17.2h4.2l6.1,17.2h-3.9l-1.1-3.6h-6.4L237.6,362z
				 M257.2,362h-3.6v-14.2h-5.2v-3h14v3h-5.2V362z M268.2,362h-3.6v-17.2h3.6V362z M274.5,353.4c0,2,0.4,3.5,1.3,4.5s2,1.5,3.4,1.5
				s2.5-0.5,3.3-1.6c0.9-1,1.3-2.5,1.3-4.5c0-1.9-0.4-3.4-1.3-4.5c-0.9-1-2-1.6-3.4-1.6s-2.5,0.5-3.4,1.6
				C274.9,350,274.5,351.4,274.5,353.4z M270.9,353.4c0-3,0.8-5.2,2.3-6.8s3.5-2.3,5.9-2.3s4.4,0.8,6,2.3s2.3,3.8,2.3,6.8
				c0,2.9-0.8,5.2-2.3,6.7c-1.5,1.6-3.5,2.3-6,2.3c-2.3,0-4.3-0.7-5.9-2.2C271.7,358.8,270.9,356.5,270.9,353.4z M300.9,344.8h3.4
				V362h-3.6l-7-12.3l0,0V362h-3.4v-17.2h3.8l6.8,12l0,0L300.9,344.8L300.9,344.8z M145.2,382.6h2.9l-1.4-4.5l0,0L145.2,382.6z
				 M143.7,387h-2.5l4.1-11.5h2.8l4,11.5h-2.6l-0.7-2.4h-4.2L143.7,387z M160.6,383.9c-0.1,1-0.5,1.8-1.2,2.4s-1.6,0.9-2.7,0.9
				c-1.3,0-2.2-0.4-2.9-1.1c-0.7-0.8-1-1.8-1-3.1c0-1.6,0.4-2.7,1.1-3.5c0.7-0.8,1.7-1.2,3-1.2c1,0,1.9,0.3,2.6,0.8
				c0.7,0.6,1.1,1.4,1.2,2.4h-2.3c-0.1-0.5-0.3-0.8-0.5-1s-0.6-0.3-1-0.3c-0.6,0-1,0.2-1.3,0.7s-0.5,1-0.5,1.8
				c0,1.1,0.2,1.8,0.5,2.2c0.3,0.4,0.7,0.6,1.3,0.6c0.4,0,0.8-0.1,1.1-0.4s0.4-0.6,0.5-1h2.1L160.6,383.9L160.6,383.9z M169.5,383.9
				c-0.1,1-0.5,1.8-1.2,2.4s-1.6,0.9-2.7,0.9c-1.3,0-2.2-0.4-2.9-1.1c-0.7-0.8-1-1.8-1-3.1c0-1.6,0.4-2.7,1.1-3.5
				c0.7-0.8,1.7-1.2,3-1.2c1,0,1.9,0.3,2.6,0.8s1.1,1.4,1.2,2.4h-2.3c-0.1-0.5-0.3-0.8-0.5-1s-0.6-0.3-1-0.3c-0.6,0-1,0.2-1.3,0.7
				s-0.5,1-0.5,1.8c0,1.1,0.2,1.8,0.5,2.2c0.3,0.4,0.7,0.6,1.3,0.6c0.4,0,0.8-0.1,1.1-0.4s0.4-0.6,0.5-1h2.1L169.5,383.9
				L169.5,383.9z M177,382.7c0-0.8-0.2-1.4-0.5-1.9s-0.8-0.7-1.5-0.7c-0.6,0-1.1,0.2-1.5,0.6s-0.5,1.1-0.5,1.9
				c0,0.9,0.2,1.5,0.5,1.9s0.8,0.7,1.5,0.7s1.2-0.2,1.5-0.7C176.8,384.2,177,383.6,177,382.7z M179.3,382.7c0,1.4-0.4,2.5-1.2,3.3
				s-1.8,1.2-3.1,1.2s-2.3-0.4-3.1-1.2c-0.8-0.8-1.2-1.9-1.2-3.3s0.4-2.5,1.2-3.3s1.9-1.2,3.1-1.2c1.3,0,2.3,0.4,3.1,1.2
				C178.9,380.3,179.3,381.4,179.3,382.7z M181,378.5h2.1v1.5l0,0c0.3-0.6,0.6-1,0.9-1.3c0.4-0.3,0.8-0.4,1.4-0.4c0.1,0,0.3,0,0.4,0
				v2.3c-0.1,0-0.3,0-0.6,0c-0.7,0-1.2,0.2-1.6,0.5c-0.3,0.3-0.5,0.8-0.5,1.5v4.4H181V378.5z M188.9,382.8c0,0.8,0.2,1.4,0.5,1.9
				s0.8,0.7,1.3,0.7c0.6,0,1.1-0.2,1.5-0.7c0.3-0.4,0.5-1,0.5-1.8c0-0.9-0.2-1.6-0.5-2c-0.3-0.5-0.8-0.7-1.4-0.7
				c-0.6,0-1.1,0.2-1.4,0.7C189.1,381.3,188.9,382,188.9,382.8z M194.9,387h-2.2v-1.1l0,0c-0.5,0.9-1.3,1.3-2.5,1.3
				c-1.1,0-2-0.4-2.6-1.3c-0.6-0.8-0.9-1.9-0.9-3.3c0-1.3,0.3-2.4,1-3.2c0.7-0.8,1.5-1.2,2.5-1.2c1.1,0,1.9,0.4,2.5,1.3l0,0v-4.1
				h2.2V387z M199.3,377.5h-2.2v-2.1h2.2V377.5z M199.3,378.5v8.5h-2.2v-8.5H199.3z M209.2,387H207v-5.3c0-0.5-0.1-0.9-0.3-1.1
				c-0.2-0.3-0.6-0.4-1.1-0.4s-1,0.2-1.3,0.5s-0.5,0.8-0.5,1.4v4.9h-2.2v-8.5h2.1v1.3l0,0c0.5-1,1.4-1.5,2.5-1.5
				c0.9,0,1.6,0.3,2.1,0.8c0.6,0.5,0.8,1.2,0.8,2.1L209.2,387L209.2,387z M213.1,382.8c0,0.7,0.2,1.3,0.5,1.7
				c0.3,0.4,0.7,0.6,1.3,0.6s1.1-0.2,1.4-0.6c0.3-0.4,0.5-1,0.5-1.8c0-0.7-0.2-1.3-0.5-1.8s-0.8-0.7-1.4-0.7c-0.5,0-0.9,0.2-1.3,0.6
				C213.2,381.3,213.1,381.9,213.1,382.8z M219,378.5v8.3c0,1.3-0.4,2.2-1.1,2.8c-0.7,0.6-1.8,0.9-3.2,0.9c-1,0-1.9-0.2-2.6-0.7
				c-0.7-0.5-1.1-1.1-1.1-1.9h2.4c0.1,0.6,0.6,0.9,1.6,0.9c1.2,0,1.8-0.6,1.8-1.8v-1.1l0,0c-0.4,0.9-1.2,1.3-2.3,1.3s-2-0.4-2.7-1.1
				c-0.7-0.8-1-1.9-1-3.3s0.3-2.4,1-3.2c0.7-0.8,1.5-1.2,2.5-1.2c1.2,0,2,0.5,2.5,1.5l0,0v-1.3L219,378.5L219,378.5z M227.9,378.5
				h1.4v1.6h-1.4v4.8c0,0.2,0.1,0.4,0.2,0.4c0.1,0.1,0.3,0.1,0.6,0.1s0.5,0,0.6,0v1.7c-0.3,0.1-0.7,0.1-1.2,0.1
				c-0.9,0-1.5-0.1-1.9-0.4s-0.5-0.8-0.5-1.5v-5.2h-1.2v-1.6h1.2v-2.3h2.2L227.9,378.5L227.9,378.5z M236.6,382.7
				c0-0.8-0.2-1.4-0.5-1.9s-0.8-0.7-1.5-0.7c-0.6,0-1.1,0.2-1.5,0.6s-0.5,1.1-0.5,1.9c0,0.9,0.2,1.5,0.5,1.9s0.8,0.7,1.5,0.7
				s1.2-0.2,1.5-0.7C236.5,384.2,236.6,383.6,236.6,382.7z M238.9,382.7c0,1.4-0.4,2.5-1.2,3.3s-1.8,1.2-3.1,1.2s-2.3-0.4-3.1-1.2
				c-0.8-0.8-1.2-1.9-1.2-3.3s0.4-2.5,1.2-3.3s1.9-1.2,3.1-1.2c1.3,0,2.3,0.4,3.1,1.2C238.5,380.3,238.9,381.4,238.9,382.7z
				 M247.4,378.5h1.4v1.6h-1.4v4.8c0,0.2,0.1,0.4,0.2,0.4c0.1,0.1,0.3,0.1,0.6,0.1s0.5,0,0.6,0v1.7c-0.3,0.1-0.7,0.1-1.2,0.1
				c-0.9,0-1.5-0.1-1.9-0.4s-0.5-0.8-0.5-1.5v-5.2H244v-1.6h1.2v-2.3h2.2V378.5z M258,387h-2.2v-5.3c0-0.5-0.1-0.9-0.4-1.2
				c-0.2-0.3-0.6-0.4-1.1-0.4c-0.6,0-1,0.2-1.3,0.6s-0.5,0.8-0.5,1.4v4.9h-2.2v-11.5h2.2v4.1l0,0c0.5-0.9,1.3-1.3,2.5-1.3
				c0.9,0,1.6,0.3,2.1,0.8s0.8,1.2,0.8,2.1v5.8H258z M265.4,381.9c0-0.5-0.2-1-0.5-1.3s-0.7-0.5-1.2-0.5c-1.1,0-1.7,0.6-1.8,1.8
				H265.4z M267.6,384.5c-0.3,0.9-0.7,1.6-1.4,2c-0.7,0.5-1.5,0.7-2.3,0.7c-1.4,0-2.5-0.4-3.2-1.2c-0.7-0.8-1.1-1.8-1.1-3.2
				c0-1.4,0.3-2.5,1-3.3s1.7-1.3,3.1-1.3c1.2,0,2.2,0.4,2.9,1.2c0.7,0.8,1.1,2,1.1,3.5v0.4h-5.9c0.1,0.7,0.3,1.2,0.6,1.6
				c0.4,0.3,0.8,0.5,1.4,0.5c0.4,0,0.7-0.1,0.9-0.3c0.3-0.2,0.4-0.4,0.5-0.7L267.6,384.5L267.6,384.5z M282.8,383
				c0,1.4-0.4,2.5-1.2,3.2c-0.8,0.7-2,1.1-3.5,1.1c-1.4,0-2.5-0.4-3.3-1.1s-1.2-1.8-1.2-3.1v-7.6h2.5v7.5c0,0.8,0.2,1.3,0.6,1.7
				c0.4,0.4,0.9,0.6,1.6,0.6s1.2-0.2,1.6-0.5c0.4-0.4,0.6-0.9,0.6-1.6v-7.6h2.4v7.4H282.8z M286.8,387h-2.4v-2.3h2.4V387z
				 M290.8,383.5c0,0.6,0.2,1,0.6,1.4c0.4,0.3,1,0.5,1.8,0.5s1.4-0.1,1.8-0.4s0.6-0.6,0.6-1.1c0-0.3-0.1-0.5-0.3-0.8
				c-0.2-0.2-0.7-0.4-1.5-0.6l-2-0.5c-1.2-0.3-2.1-0.7-2.5-1.2s-0.7-1.2-0.7-2.1c0-1,0.4-1.9,1.1-2.5c0.7-0.7,1.8-1,3.3-1
				s2.6,0.4,3.3,1.1c0.8,0.7,1.1,1.6,1.1,2.6h-2.3c-0.1-0.6-0.3-1-0.7-1.3c-0.4-0.3-1-0.4-1.7-0.4c-0.6,0-1.1,0.1-1.5,0.4
				c-0.4,0.2-0.5,0.6-0.5,1c0,0.3,0.1,0.5,0.2,0.7c0.2,0.2,0.4,0.3,0.8,0.4l3.1,0.8c1.1,0.3,1.9,0.7,2.3,1.2s0.6,1.1,0.6,1.9
				c0,1.3-0.4,2.2-1.3,2.8c-0.9,0.6-1.9,0.9-3.2,0.9c-1.7,0-2.9-0.4-3.7-1.1c-0.8-0.7-1.2-1.6-1.2-2.8h2.5L290.8,383.5L290.8,383.5z
				 M301.6,387h-2.4v-2.3h2.4V387z M144.5,403h2.8c0.5,0,1-0.1,1.3-0.3c0.3-0.2,0.4-0.5,0.4-0.9s-0.1-0.7-0.4-0.9
				c-0.3-0.2-0.7-0.3-1.4-0.3h-2.8L144.5,403L144.5,403z M144.5,408h2.9c0.6,0,1-0.1,1.4-0.4c0.3-0.3,0.5-0.7,0.5-1.3
				c0-0.4-0.2-0.8-0.5-1c-0.3-0.3-0.7-0.4-1.3-0.4h-3.1v3.1L144.5,408L144.5,408z M142.2,398.5h5.6c1.2,0,2,0.3,2.6,0.8
				c0.6,0.6,0.9,1.3,0.9,2.1c0,1.2-0.5,2-1.4,2.4c1.2,0.5,1.8,1.4,1.8,2.8c0,0.5-0.1,0.9-0.3,1.3s-0.4,0.8-0.8,1.1
				c-0.4,0.3-0.8,0.6-1.3,0.7s-1.3,0.2-2.2,0.2h-4.9L142.2,398.5L142.2,398.5z M161,410h-2.1v-1.2l0,0c-0.6,1-1.4,1.4-2.6,1.4
				c-0.9,0-1.6-0.3-2.1-0.8s-0.8-1.3-0.8-2.3v-5.6h2.2v5.3c0,0.5,0.1,0.9,0.4,1.2c0.3,0.3,0.6,0.4,1.1,0.4s0.9-0.2,1.2-0.5
				s0.5-0.8,0.5-1.4v-4.9h2.2L161,410L161,410z M163.2,401.5h2.1v1.5l0,0c0.3-0.6,0.6-1,0.9-1.3c0.4-0.3,0.8-0.4,1.4-0.4
				c0.1,0,0.3,0,0.4,0v2.3c-0.1,0-0.3,0-0.6,0c-0.7,0-1.2,0.2-1.6,0.5c-0.3,0.3-0.5,0.8-0.5,1.5v4.4h-2.2v-8.5H163.2z M174.6,404.9
				c0-0.5-0.2-1-0.5-1.3s-0.7-0.5-1.2-0.5c-1.1,0-1.7,0.6-1.8,1.8H174.6z M176.9,407.5c-0.3,0.9-0.7,1.6-1.4,2
				c-0.7,0.5-1.5,0.7-2.3,0.7c-1.4,0-2.5-0.4-3.2-1.2c-0.7-0.8-1.1-1.8-1.1-3.2c0-1.4,0.3-2.5,1-3.3s1.7-1.3,3.1-1.3
				c1.2,0,2.2,0.4,2.9,1.2c0.7,0.8,1.1,2,1.1,3.5v0.4h-6c0.1,0.7,0.3,1.2,0.6,1.6c0.4,0.3,0.8,0.5,1.4,0.5c0.4,0,0.7-0.1,0.9-0.3
				c0.3-0.2,0.4-0.4,0.5-0.7L176.9,407.5L176.9,407.5z M183.4,405.9c-0.3,0.2-0.8,0.3-1.6,0.5c-0.7,0.1-1.1,0.2-1.3,0.5
				c-0.2,0.2-0.3,0.5-0.3,0.8s0.1,0.6,0.3,0.8s0.5,0.3,0.8,0.3c0.6,0,1.1-0.2,1.5-0.5s0.6-0.7,0.6-1.2V405.9z M185.6,408.3
				c0,0.4,0,0.7,0.1,0.9c0.1,0.2,0.2,0.4,0.4,0.4v0.3h-2.4c-0.1-0.3-0.2-0.6-0.2-1c-0.7,0.8-1.7,1.2-2.8,1.2c-0.8,0-1.5-0.2-2-0.7
				c-0.5-0.4-0.7-1.1-0.7-1.8c0-0.7,0.2-1.3,0.6-1.8c0.4-0.5,1.1-0.8,1.9-0.9l2.1-0.3c0.3,0,0.5-0.1,0.6-0.2s0.2-0.3,0.2-0.5
				c0-0.3-0.1-0.6-0.4-0.7c-0.2-0.2-0.6-0.3-1.1-0.3s-0.9,0.1-1.1,0.3c-0.2,0.2-0.4,0.5-0.4,0.9h-2.2c0.1-1,0.5-1.8,1.1-2.3
				s1.6-0.7,2.9-0.7c1.1,0,1.9,0.2,2.5,0.6s0.9,1,0.9,1.8L185.6,408.3L185.6,408.3z M195.3,410h-2.1v-1.2l0,0
				c-0.6,1-1.4,1.4-2.6,1.4c-0.9,0-1.6-0.3-2.1-0.8s-0.8-1.3-0.8-2.3v-5.6h2.2v5.3c0,0.5,0.1,0.9,0.4,1.2c0.3,0.3,0.6,0.4,1.1,0.4
				s0.9-0.2,1.2-0.5s0.5-0.8,0.5-1.4v-4.9h2.2L195.3,410L195.3,410z M207.6,405.7c0-0.8-0.2-1.4-0.5-1.9s-0.8-0.7-1.5-0.7
				c-0.6,0-1.1,0.2-1.5,0.6s-0.5,1.1-0.5,1.9c0,0.9,0.2,1.5,0.5,1.9s0.8,0.7,1.5,0.7s1.2-0.2,1.5-0.7
				C207.4,407.2,207.6,406.6,207.6,405.7z M209.9,405.7c0,1.4-0.4,2.5-1.2,3.3s-1.8,1.2-3.1,1.2s-2.3-0.4-3.1-1.2
				c-0.8-0.8-1.2-1.9-1.2-3.3s0.4-2.5,1.2-3.3s1.9-1.2,3.1-1.2c1.3,0,2.3,0.4,3.1,1.2C209.5,403.3,209.9,404.4,209.9,405.7z
				 M214.1,401.5h1.5v1.6h-1.5v6.9h-2.2v-6.9h-1.2v-1.6h1.2v-0.7c0-0.8,0.2-1.4,0.6-1.8c0.4-0.4,1.1-0.6,2.1-0.6c0.3,0,0.6,0,0.9,0
				v1.8c-0.2,0-0.3,0-0.5,0s-0.4,0-0.5,0s-0.2,0.1-0.3,0.1c-0.1,0.1-0.1,0.2-0.1,0.3c0,0.1,0,0.3,0,0.5V401.5z M223.6,407.9h5.7v2.1
				h-8.1v-11.5h2.4L223.6,407.9L223.6,407.9z M235.6,405.9c-0.3,0.2-0.8,0.3-1.6,0.5c-0.7,0.1-1.1,0.2-1.3,0.5
				c-0.2,0.2-0.3,0.5-0.3,0.8s0.1,0.6,0.3,0.8c0.2,0.2,0.5,0.3,0.8,0.3c0.6,0,1.1-0.2,1.5-0.5s0.6-0.7,0.6-1.2V405.9z M237.8,408.3
				c0,0.4,0,0.7,0.1,0.9c0.1,0.2,0.2,0.4,0.4,0.4v0.3h-2.4c-0.1-0.3-0.2-0.6-0.2-1c-0.7,0.8-1.7,1.2-2.8,1.2c-0.8,0-1.5-0.2-2-0.7
				c-0.5-0.4-0.7-1.1-0.7-1.8c0-0.7,0.2-1.3,0.6-1.8c0.4-0.5,1.1-0.8,1.9-0.9l2.1-0.3c0.3,0,0.5-0.1,0.6-0.2s0.2-0.3,0.2-0.5
				c0-0.3-0.1-0.6-0.4-0.7c-0.2-0.2-0.6-0.3-1.1-0.3s-0.9,0.1-1.1,0.3c-0.2,0.2-0.4,0.5-0.4,0.9h-2.2c0.1-1,0.5-1.8,1.1-2.3
				s1.6-0.7,2.9-0.7c1.1,0,1.9,0.2,2.5,0.6s0.9,1,0.9,1.8L237.8,408.3L237.8,408.3z M245.8,405.8c0-0.8-0.2-1.5-0.5-1.9
				c-0.3-0.5-0.8-0.7-1.4-0.7c-0.6,0-1.1,0.2-1.4,0.7c-0.3,0.5-0.5,1.1-0.5,2c0,0.8,0.2,1.4,0.5,1.8c0.4,0.4,0.8,0.6,1.5,0.6
				c0.5,0,1-0.2,1.3-0.7C245.7,407.2,245.8,406.6,245.8,405.8z M242.1,402.6L242.1,402.6c0.6-0.9,1.4-1.3,2.5-1.3
				c1,0,1.9,0.4,2.5,1.2c0.7,0.8,1,1.8,1,3.2c0,1.4-0.3,2.5-0.9,3.3c-0.6,0.8-1.5,1.3-2.6,1.3s-1.9-0.4-2.5-1.3l0,0v1.1h-2.2v-11.5
				h2.2V402.6z M255.7,405.7c0-0.8-0.2-1.4-0.5-1.9s-0.8-0.7-1.5-0.7c-0.6,0-1.1,0.2-1.5,0.6s-0.5,1.1-0.5,1.9
				c0,0.9,0.2,1.5,0.5,1.9s0.8,0.7,1.5,0.7s1.2-0.2,1.5-0.7C255.5,407.2,255.7,406.6,255.7,405.7z M258,405.7c0,1.4-0.4,2.5-1.2,3.3
				c-0.8,0.8-1.8,1.2-3.1,1.2s-2.3-0.4-3.1-1.2c-0.8-0.8-1.2-1.9-1.2-3.3s0.4-2.5,1.2-3.3s1.9-1.2,3.1-1.2c1.3,0,2.3,0.4,3.1,1.2
				C257.6,403.3,258,404.4,258,405.7z M259.7,401.5h2.1v1.5l0,0c0.3-0.6,0.6-1,0.9-1.3c0.4-0.3,0.8-0.4,1.4-0.4c0.1,0,0.3,0,0.4,0
				v2.3c-0.1,0-0.3,0-0.6,0c-0.7,0-1.2,0.2-1.6,0.5c-0.3,0.3-0.5,0.8-0.5,1.5v4.4h-2.2v-8.5H259.7z M144,429.5c0,0.6,0.2,1,0.6,1.4
				c0.4,0.3,1,0.5,1.8,0.5s1.4-0.1,1.8-0.4c0.4-0.3,0.6-0.6,0.6-1.1c0-0.3-0.1-0.5-0.3-0.8c-0.2-0.2-0.7-0.4-1.5-0.6l-2-0.5
				c-1.2-0.3-2.1-0.7-2.5-1.2s-0.7-1.2-0.7-2.1c0-1,0.4-1.9,1.1-2.5c0.7-0.7,1.8-1,3.3-1s2.6,0.4,3.3,1.1c0.8,0.7,1.1,1.6,1.1,2.6
				h-2.3c-0.1-0.6-0.3-1-0.7-1.3s-0.9-0.4-1.7-0.4c-0.6,0-1.1,0.1-1.5,0.4c-0.4,0.2-0.5,0.6-0.5,1c0,0.3,0.1,0.5,0.2,0.7
				c0.2,0.2,0.4,0.3,0.8,0.4l3.1,0.8c1.1,0.3,1.9,0.7,2.3,1.2c0.4,0.5,0.6,1.1,0.6,1.9c0,1.3-0.4,2.2-1.3,2.8
				c-0.9,0.6-1.9,0.9-3.2,0.9c-1.7,0-2.9-0.4-3.7-1.1s-1.2-1.6-1.2-2.8h2.5L144,429.5L144,429.5z M155.3,424.5h1.4v1.6h-1.4v4.8
				c0,0.2,0.1,0.4,0.2,0.4c0.1,0.1,0.3,0.1,0.6,0.1s0.5,0,0.6,0v1.7c-0.3,0.1-0.7,0.1-1.2,0.1c-0.9,0-1.5-0.1-1.9-0.4
				s-0.5-0.8-0.5-1.5v-5.2h-1.2v-1.6h1.2v-2.3h2.2L155.3,424.5L155.3,424.5z M163.1,428.9c-0.3,0.2-0.8,0.3-1.6,0.5
				c-0.7,0.1-1.1,0.2-1.3,0.5c-0.2,0.2-0.3,0.5-0.3,0.8s0.1,0.6,0.3,0.8c0.2,0.2,0.5,0.3,0.8,0.3c0.6,0,1.1-0.2,1.5-0.5
				s0.6-0.7,0.6-1.2V428.9z M165.3,431.3c0,0.4,0,0.7,0.1,0.9c0.1,0.2,0.2,0.4,0.4,0.4v0.3h-2.4c-0.1-0.3-0.2-0.6-0.2-1
				c-0.7,0.8-1.7,1.2-2.8,1.2c-0.8,0-1.5-0.2-2-0.7c-0.5-0.4-0.7-1.1-0.7-1.8c0-0.7,0.2-1.3,0.6-1.8c0.4-0.5,1.1-0.8,1.9-0.9
				l2.1-0.3c0.3,0,0.5-0.1,0.6-0.2s0.2-0.3,0.2-0.5c0-0.3-0.1-0.6-0.4-0.7c-0.2-0.2-0.6-0.3-1.1-0.3s-0.9,0.1-1.1,0.3
				c-0.2,0.2-0.4,0.5-0.4,0.9h-2.2c0.1-1,0.5-1.8,1.1-2.3s1.6-0.7,2.9-0.7c1.1,0,1.9,0.2,2.5,0.6s0.9,1,0.9,1.8L165.3,431.3
				L165.3,431.3z M169.8,424.5h1.4v1.6h-1.4v4.8c0,0.2,0.1,0.4,0.2,0.4c0.1,0.1,0.3,0.1,0.6,0.1s0.5,0,0.6,0v1.7
				c-0.3,0.1-0.7,0.1-1.2,0.1c-0.9,0-1.5-0.1-1.9-0.4s-0.5-0.8-0.5-1.5v-5.2h-1.2v-1.6h1.2v-2.3h2.2L169.8,424.5L169.8,424.5z
				 M175,423.5h-2.2v-2.1h2.2V423.5z M175,424.5v8.5h-2.2v-8.5H175z M181.9,427.1c0-0.4-0.2-0.7-0.4-0.9c-0.2-0.2-0.6-0.3-1.1-0.3
				s-0.8,0.1-1,0.2c-0.2,0.2-0.3,0.3-0.3,0.6c0,0.2,0.1,0.4,0.3,0.5s0.9,0.3,2.1,0.6c1.3,0.3,2.1,0.6,2.4,1c0.3,0.4,0.5,0.9,0.5,1.5
				c0,0.9-0.3,1.7-1,2.2s-1.7,0.8-3,0.8c-1.2,0-2.1-0.2-2.7-0.7c-0.7-0.5-1-1.2-1.1-2.3h2.3c0,0.4,0.1,0.8,0.4,1
				c0.3,0.2,0.7,0.3,1.3,0.3c0.5,0,0.9-0.1,1.1-0.2c0.3-0.2,0.4-0.3,0.4-0.6c0-0.3-0.1-0.4-0.3-0.6c-0.2-0.1-0.8-0.3-1.9-0.6
				c-1.2-0.3-2-0.6-2.4-1s-0.6-0.9-0.6-1.5c0-0.8,0.3-1.5,0.9-2.1c0.6-0.5,1.5-0.8,2.7-0.8s2,0.2,2.7,0.7c0.6,0.5,1,1.2,1,2.1
				L181.9,427.1L181.9,427.1z M188.5,424.5h1.4v1.6h-1.4v4.8c0,0.2,0.1,0.4,0.2,0.4c0.1,0.1,0.3,0.1,0.6,0.1s0.5,0,0.6,0v1.7
				c-0.3,0.1-0.7,0.1-1.2,0.1c-0.9,0-1.5-0.1-1.9-0.4s-0.5-0.8-0.5-1.5v-5.2h-1.2v-1.6h1.2v-2.3h2.2L188.5,424.5L188.5,424.5z
				 M193.7,423.5h-2.2v-2.1h2.2V423.5z M193.7,424.5v8.5h-2.2v-8.5H193.7z M203.2,429.9c-0.1,1-0.5,1.8-1.2,2.4s-1.6,0.9-2.7,0.9
				c-1.3,0-2.2-0.4-2.9-1.1c-0.7-0.8-1-1.8-1-3.1c0-1.6,0.4-2.7,1.1-3.5c0.7-0.8,1.7-1.2,3-1.2c1,0,1.9,0.3,2.6,0.8s1.1,1.4,1.2,2.4
				H201c-0.1-0.5-0.3-0.8-0.5-1s-0.6-0.3-1-0.3c-0.6,0-1,0.2-1.3,0.7s-0.5,1-0.5,1.8c0,1.1,0.2,1.8,0.5,2.2c0.3,0.4,0.7,0.6,1.3,0.6
				c0.4,0,0.8-0.1,1.1-0.4s0.4-0.6,0.5-1h2.1L203.2,429.9L203.2,429.9z M209.6,427.1c0-0.4-0.2-0.7-0.4-0.9
				c-0.2-0.2-0.6-0.3-1.1-0.3s-0.8,0.1-1,0.2c-0.2,0.2-0.3,0.3-0.3,0.6c0,0.2,0.1,0.4,0.3,0.5s0.9,0.3,2.1,0.6
				c1.3,0.3,2.1,0.6,2.4,1c0.3,0.4,0.5,0.9,0.5,1.5c0,0.9-0.3,1.7-1,2.2s-1.7,0.8-3,0.8c-1.2,0-2.1-0.2-2.7-0.7
				c-0.7-0.5-1-1.2-1.1-2.3h2.3c0,0.4,0.1,0.8,0.4,1c0.3,0.2,0.7,0.3,1.3,0.3c0.5,0,0.9-0.1,1.1-0.2c0.3-0.2,0.4-0.3,0.4-0.6
				c0-0.3-0.1-0.4-0.3-0.6c-0.2-0.1-0.8-0.3-1.9-0.6c-1.2-0.3-2-0.6-2.4-1s-0.6-0.9-0.6-1.5c0-0.8,0.3-1.5,0.9-2.1
				c0.6-0.5,1.5-0.8,2.7-0.8s2,0.2,2.7,0.7c0.6,0.5,1,1.2,1,2.1L209.6,427.1L209.6,427.1z M215.8,432.7c0,1.7-0.8,2.7-2.4,3l0,0
				v-0.8c0.9-0.2,1.3-0.8,1.3-1.8h-1.3v-2.3h2.4V432.7z M226.2,428.7c0-1.4,0-3,0-4.9l0,0l-2.9,4.9H226.2z M229.7,430.5h-1.3v2.5
				h-2.2v-2.5h-4.5v-1.9l4.2-6.9h2.5v7.1h1.3V430.5z M247.9,433h-2.2v-5.2c0-0.5-0.1-0.9-0.3-1.2c-0.2-0.3-0.5-0.5-1-0.5
				c-0.4,0-0.8,0.1-1.1,0.4s-0.4,0.7-0.4,1.3v5.2h-2.2v-5.3c0-0.5-0.1-0.9-0.3-1.2c-0.2-0.3-0.6-0.4-1-0.4s-0.8,0.1-1,0.4
				s-0.3,0.7-0.3,1.2v5.2h-2.2v-8.5h2.1v1.3l0,0c0.5-1,1.3-1.5,2.5-1.5c1,0,1.8,0.5,2.3,1.4c0.6-0.9,1.3-1.4,2.3-1.4
				c0.9,0,1.6,0.3,2.1,0.8c0.6,0.5,0.8,1.2,0.8,2.1v5.9L247.9,433L247.9,433z M252.2,423.5H250v-2.1h2.2V423.5z M252.2,424.5v8.5
				H250v-8.5H252.2z M256.6,433h-2.2v-11.5h2.2V433z M261.1,433h-2.2v-11.5h2.2V433z M265.5,423.5h-2.2v-2.1h2.2V423.5z
				 M265.5,424.5v8.5h-2.2v-8.5H265.5z M273.6,428.7c0-0.8-0.2-1.4-0.5-1.9s-0.8-0.7-1.5-0.7c-0.6,0-1.1,0.2-1.5,0.6
				s-0.5,1.1-0.5,1.9c0,0.9,0.2,1.5,0.5,1.9s0.8,0.7,1.5,0.7s1.2-0.2,1.5-0.7C273.4,430.2,273.6,429.6,273.6,428.7z M275.9,428.7
				c0,1.4-0.4,2.5-1.2,3.3c-0.8,0.8-1.8,1.2-3.1,1.2c-1.3,0-2.3-0.4-3.1-1.2c-0.8-0.8-1.2-1.9-1.2-3.3s0.4-2.5,1.2-3.3
				c0.8-0.8,1.9-1.2,3.1-1.2c1.3,0,2.3,0.4,3.1,1.2C275.5,426.3,275.9,427.4,275.9,428.7z M285.2,433H283v-5.3
				c0-0.5-0.1-0.9-0.3-1.1c-0.2-0.3-0.6-0.4-1.1-0.4s-1,0.2-1.3,0.5s-0.5,0.8-0.5,1.4v4.9h-2.2v-8.5h2.1v1.3l0,0
				c0.5-1,1.4-1.5,2.5-1.5c0.9,0,1.6,0.3,2.1,0.8c0.6,0.5,0.8,1.2,0.8,2.1v5.8L285.2,433L285.2,433z M145.2,451.6h2.9l-1.4-4.5l0,0
				L145.2,451.6z M143.7,456h-2.5l4.1-11.5h2.8l4,11.5h-2.6l-0.7-2.4h-4.2L143.7,456z M165.6,456h-2.2v-5.2c0-0.5-0.1-0.9-0.3-1.2
				c-0.2-0.3-0.5-0.5-1-0.5c-0.4,0-0.8,0.1-1.1,0.4s-0.4,0.7-0.4,1.3v5.2h-2.2v-5.3c0-0.5-0.1-0.9-0.3-1.2c-0.2-0.3-0.6-0.4-1-0.4
				s-0.8,0.1-1,0.4s-0.3,0.7-0.3,1.2v5.2h-2.2v-8.5h2.1v1.3l0,0c0.5-1,1.3-1.5,2.5-1.5c1,0,1.8,0.5,2.3,1.4c0.6-0.9,1.3-1.4,2.3-1.4
				c0.9,0,1.6,0.3,2.1,0.8c0.6,0.5,0.8,1.2,0.8,2.1v5.9L165.6,456L165.6,456z M173,450.9c0-0.5-0.2-1-0.5-1.3s-0.7-0.5-1.2-0.5
				c-1.1,0-1.7,0.6-1.8,1.8H173z M175.2,453.5c-0.3,0.9-0.7,1.6-1.4,2c-0.7,0.5-1.5,0.7-2.3,0.7c-1.4,0-2.5-0.4-3.2-1.2
				c-0.7-0.8-1.1-1.8-1.1-3.2c0-1.4,0.3-2.5,1-3.3s1.7-1.3,3.1-1.3c1.2,0,2.2,0.4,2.9,1.2c0.7,0.8,1.1,2,1.1,3.5v0.4h-5.9
				c0.1,0.7,0.3,1.2,0.6,1.6c0.4,0.3,0.8,0.5,1.4,0.5c0.4,0,0.7-0.1,0.9-0.3c0.3-0.2,0.4-0.4,0.5-0.7L175.2,453.5L175.2,453.5z
				 M176.8,447.5h2.1v1.5l0,0c0.3-0.6,0.6-1,0.9-1.3c0.4-0.3,0.8-0.4,1.4-0.4c0.1,0,0.3,0,0.4,0v2.3c-0.1,0-0.3,0-0.6,0
				c-0.7,0-1.2,0.2-1.6,0.5c-0.3,0.3-0.5,0.8-0.5,1.5v4.4h-2.2v-8.5H176.8z M185.4,446.5h-2.2v-2.1h2.2V446.5z M185.4,447.5v8.5
				h-2.2v-8.5H185.4z M194.9,452.9c-0.1,1-0.5,1.8-1.2,2.4s-1.6,0.9-2.7,0.9c-1.3,0-2.2-0.4-2.9-1.1c-0.7-0.8-1-1.8-1-3.1
				c0-1.6,0.4-2.7,1.1-3.5c0.7-0.8,1.7-1.2,3-1.2c1,0,1.9,0.3,2.6,0.8c0.7,0.6,1.1,1.4,1.2,2.4h-2.3c-0.1-0.5-0.3-0.8-0.5-1
				s-0.6-0.3-1-0.3c-0.6,0-1,0.2-1.3,0.7s-0.5,1-0.5,1.8c0,1.1,0.2,1.8,0.5,2.2c0.3,0.4,0.7,0.6,1.3,0.6c0.4,0,0.8-0.1,1.1-0.4
				s0.4-0.6,0.5-1h2.1L194.9,452.9L194.9,452.9z M201.4,451.9c-0.3,0.2-0.8,0.3-1.6,0.5c-0.7,0.1-1.1,0.2-1.3,0.5
				c-0.2,0.2-0.3,0.5-0.3,0.8s0.1,0.6,0.3,0.8c0.2,0.2,0.5,0.3,0.8,0.3c0.6,0,1.1-0.2,1.5-0.5s0.6-0.7,0.6-1.2V451.9z M203.6,454.3
				c0,0.4,0,0.7,0.1,0.9c0.1,0.2,0.2,0.4,0.4,0.4v0.3h-2.4c-0.1-0.3-0.2-0.6-0.2-1c-0.7,0.8-1.7,1.2-2.8,1.2c-0.8,0-1.5-0.2-2-0.7
				c-0.5-0.4-0.7-1.1-0.7-1.8c0-0.7,0.2-1.3,0.6-1.8c0.4-0.5,1.1-0.8,1.9-0.9l2.1-0.3c0.3,0,0.5-0.1,0.6-0.2s0.2-0.3,0.2-0.5
				c0-0.3-0.1-0.6-0.4-0.7c-0.2-0.2-0.6-0.3-1.1-0.3s-0.9,0.1-1.1,0.3c-0.2,0.2-0.4,0.5-0.4,0.9h-2.2c0.1-1,0.5-1.8,1.1-2.3
				s1.6-0.7,2.9-0.7c1.1,0,1.9,0.2,2.5,0.6s0.9,1,0.9,1.8L203.6,454.3L203.6,454.3z M213.4,456h-2.2v-5.3c0-0.5-0.1-0.9-0.3-1.1
				c-0.2-0.3-0.6-0.4-1.1-0.4s-1,0.2-1.3,0.5s-0.5,0.8-0.5,1.4v4.9h-2.2v-8.5h2.1v1.3l0,0c0.5-1,1.4-1.5,2.5-1.5
				c0.9,0,1.6,0.3,2.1,0.8c0.6,0.5,0.8,1.2,0.8,2.1L213.4,456L213.4,456z M220.2,450.1c0-0.4-0.2-0.7-0.4-0.9
				c-0.2-0.2-0.6-0.3-1.1-0.3s-0.8,0.1-1,0.2c-0.2,0.2-0.3,0.3-0.3,0.6c0,0.2,0.1,0.4,0.3,0.5s0.9,0.3,2.1,0.6
				c1.3,0.3,2.1,0.6,2.4,1c0.3,0.4,0.5,0.9,0.5,1.5c0,0.9-0.3,1.7-1,2.2s-1.7,0.8-3,0.8c-1.2,0-2.1-0.2-2.7-0.7
				c-0.7-0.5-1-1.2-1.1-2.3h2.3c0,0.4,0.1,0.8,0.4,1c0.3,0.2,0.7,0.3,1.3,0.3c0.5,0,0.9-0.1,1.1-0.2c0.3-0.2,0.4-0.3,0.4-0.6
				c0-0.3-0.1-0.4-0.3-0.6c-0.2-0.1-0.8-0.3-1.9-0.6c-1.2-0.3-2-0.6-2.4-1s-0.6-0.9-0.6-1.5c0-0.8,0.3-1.5,0.9-2.1
				c0.6-0.5,1.5-0.8,2.7-0.8s2,0.2,2.7,0.7c0.6,0.5,1,1.2,1,2.1L220.2,450.1L220.2,450.1z M230.4,451.9c0,0.8,0.2,1.4,0.5,1.8
				s0.8,0.6,1.4,0.6c0.6,0,1-0.2,1.4-0.7c0.3-0.5,0.5-1.1,0.5-1.9s-0.2-1.5-0.5-1.9c-0.4-0.4-0.8-0.7-1.4-0.7c-0.6,0-1,0.2-1.4,0.7
				C230.6,450.3,230.4,451,230.4,451.9z M236.4,447.5v11.8h-2.2v-4.4l0,0c-0.5,0.9-1.3,1.3-2.4,1.3c-1.1,0-2-0.4-2.6-1.3
				c-0.6-0.8-0.9-1.9-0.9-3c0-1.4,0.3-2.5,1-3.4s1.6-1.3,2.8-1.3c1.1,0,1.8,0.5,2.4,1.5l0,0v-1.3L236.4,447.5L236.4,447.5z
				 M246.2,456h-2.1v-1.2l0,0c-0.6,1-1.4,1.4-2.6,1.4c-0.9,0-1.6-0.3-2.1-0.8s-0.8-1.3-0.8-2.3v-5.6h2.2v5.3c0,0.5,0.1,0.9,0.4,1.2
				c0.3,0.3,0.6,0.4,1.1,0.4s0.9-0.2,1.2-0.5s0.5-0.8,0.5-1.4v-4.9h2.2L246.2,456L246.2,456z M250.6,446.5h-2.2v-2.1h2.2V446.5z
				 M250.6,447.5v8.5h-2.2v-8.5H250.6z M255.3,447.5h1.4v1.6h-1.4v4.8c0,0.2,0.1,0.4,0.2,0.4c0.1,0.1,0.3,0.1,0.6,0.1s0.5,0,0.6,0
				v1.7c-0.3,0.1-0.7,0.1-1.2,0.1c-0.9,0-1.5-0.1-1.9-0.4s-0.5-0.8-0.5-1.5v-5.2h-1.2v-1.6h1.2v-2.3h2.2L255.3,447.5L255.3,447.5z
				 M265,447.5h1.4v1.6H265v4.8c0,0.2,0.1,0.4,0.2,0.4c0.1,0.1,0.3,0.1,0.6,0.1c0.3,0,0.5,0,0.6,0v1.7c-0.3,0.1-0.7,0.1-1.2,0.1
				c-0.9,0-1.5-0.1-1.9-0.4s-0.5-0.8-0.5-1.5v-5.2h-1.2v-1.6h1.2v-2.3h2.2L265,447.5L265,447.5z M275.6,456h-2.2v-5.3
				c0-0.5-0.1-0.9-0.4-1.2c-0.2-0.3-0.6-0.4-1.1-0.4c-0.6,0-1,0.2-1.3,0.6s-0.5,0.8-0.5,1.4v4.9h-2.2v-11.5h2.2v4.1l0,0
				c0.5-0.9,1.3-1.3,2.5-1.3c0.9,0,1.6,0.3,2.1,0.8s0.8,1.2,0.8,2.1v5.8H275.6z M283,450.9c0-0.5-0.2-1-0.5-1.3s-0.7-0.5-1.2-0.5
				c-1.1,0-1.7,0.6-1.8,1.8H283z M285.2,453.5c-0.3,0.9-0.7,1.6-1.4,2c-0.7,0.5-1.5,0.7-2.3,0.7c-1.4,0-2.5-0.4-3.2-1.2
				c-0.7-0.8-1.1-1.8-1.1-3.2c0-1.4,0.3-2.5,1-3.3s1.7-1.3,3.1-1.3c1.2,0,2.2,0.4,2.9,1.2c0.7,0.8,1.1,2,1.1,3.5v0.4h-5.9
				c0.1,0.7,0.3,1.2,0.6,1.6c0.4,0.3,0.8,0.5,1.4,0.5c0.4,0,0.7-0.1,0.9-0.3c0.3-0.2,0.4-0.4,0.5-0.7L285.2,453.5L285.2,453.5z
				 M289.1,446.5h-2.2v-2.1h2.2V446.5z M289.1,447.5v8.5h-2.2v-8.5H289.1z M291.3,447.5h2.1v1.5l0,0c0.3-0.6,0.6-1,0.9-1.3
				c0.4-0.3,0.8-0.4,1.4-0.4c0.1,0,0.3,0,0.4,0v2.3c-0.1,0-0.3,0-0.6,0c-0.7,0-1.2,0.2-1.6,0.5c-0.3,0.3-0.5,0.8-0.5,1.5v4.4h-2.2
				v-8.5H291.3z M144.3,469.5h-2.2v-2.1h2.2V469.5z M144.3,479.9c0,0.9-0.2,1.5-0.5,1.9c-0.4,0.4-1,0.6-2,0.6H141v-1.8h0.4
				c0.2,0,0.4-0.1,0.5-0.2s0.1-0.3,0.1-0.6v-9.4h2.2v9.5H144.3z M152.4,474.7c0-0.8-0.2-1.4-0.5-1.9s-0.8-0.7-1.5-0.7
				c-0.6,0-1.1,0.2-1.5,0.6s-0.5,1.1-0.5,1.9c0,0.9,0.2,1.5,0.5,1.9s0.8,0.7,1.5,0.7s1.2-0.2,1.5-0.7
				C152.2,476.2,152.4,475.6,152.4,474.7z M154.7,474.7c0,1.4-0.4,2.5-1.2,3.3s-1.8,1.2-3.1,1.2s-2.3-0.4-3.1-1.2
				c-0.8-0.8-1.2-1.9-1.2-3.3s0.4-2.5,1.2-3.3s1.9-1.2,3.1-1.2c1.3,0,2.3,0.4,3.1,1.2C154.3,472.3,154.7,473.4,154.7,474.7z
				 M162.3,474.8c0-0.8-0.2-1.5-0.5-1.9c-0.3-0.5-0.8-0.7-1.4-0.7c-0.6,0-1.1,0.2-1.4,0.7c-0.3,0.5-0.5,1.1-0.5,2
				c0,0.8,0.2,1.4,0.5,1.8c0.4,0.4,0.8,0.6,1.5,0.6c0.5,0,1-0.2,1.3-0.7C162.2,476.2,162.3,475.6,162.3,474.8z M158.6,471.6
				L158.6,471.6c0.6-0.9,1.4-1.3,2.5-1.3c1,0,1.9,0.4,2.5,1.2c0.7,0.8,1,1.8,1,3.2c0,1.4-0.3,2.5-0.9,3.3c-0.6,0.8-1.5,1.3-2.6,1.3
				s-1.9-0.4-2.5-1.3l0,0v1.1h-2.2v-11.5h2.2V471.6z M171.1,473.1c0-0.4-0.2-0.7-0.4-0.9c-0.2-0.2-0.6-0.3-1.1-0.3s-0.8,0.1-1,0.2
				c-0.2,0.2-0.3,0.3-0.3,0.6c0,0.2,0.1,0.4,0.3,0.5s0.9,0.3,2.1,0.6c1.3,0.3,2.1,0.6,2.4,1c0.3,0.4,0.5,0.9,0.5,1.5
				c0,0.9-0.3,1.7-1,2.2s-1.7,0.8-3,0.8c-1.2,0-2.1-0.2-2.7-0.7c-0.7-0.5-1-1.2-1.1-2.3h2.3c0,0.4,0.1,0.8,0.4,1
				c0.3,0.2,0.7,0.3,1.3,0.3c0.5,0,0.9-0.1,1.1-0.2c0.3-0.2,0.4-0.3,0.4-0.6c0-0.3-0.1-0.4-0.3-0.6c-0.2-0.1-0.8-0.3-1.9-0.6
				c-1.2-0.3-2-0.6-2.4-1s-0.6-0.9-0.6-1.5c0-0.8,0.3-1.5,0.9-2.1c0.6-0.5,1.5-0.8,2.7-0.8s2,0.2,2.7,0.7c0.6,0.5,1,1.2,1,2.1
				L171.1,473.1L171.1,473.1z M181.7,469.5h-2.2v-2.1h2.2V469.5z M181.7,470.5v8.5h-2.2v-8.5H181.7z M191.6,479h-2.2v-5.3
				c0-0.5-0.1-0.9-0.3-1.1c-0.2-0.3-0.6-0.4-1.1-0.4s-1,0.2-1.3,0.5s-0.5,0.8-0.5,1.4v4.9H184v-8.5h2.1v1.3l0,0
				c0.5-1,1.4-1.5,2.5-1.5c0.9,0,1.6,0.3,2.1,0.8c0.6,0.5,0.8,1.2,0.8,2.1L191.6,479L191.6,479z M204.6,475.7c0,1.2-0.3,2.1-0.9,2.7
				c-0.6,0.6-1.5,0.9-2.6,0.9c-1.3,0-2.3-0.3-2.9-0.9c-0.6-0.6-0.9-1.6-0.9-2.9v-0.8h2.2v0.2c0,1,0.1,1.7,0.3,2s0.6,0.5,1.1,0.5
				s0.8-0.1,1-0.4c0.2-0.2,0.3-0.7,0.3-1.3v-8.2h2.4L204.6,475.7L204.6,475.7z M214.4,479h-2.1v-1.2l0,0c-0.6,1-1.4,1.4-2.6,1.4
				c-0.9,0-1.6-0.3-2.1-0.8s-0.8-1.3-0.8-2.3v-5.6h2.2v5.3c0,0.5,0.1,0.9,0.4,1.2c0.3,0.3,0.6,0.4,1.1,0.4s0.9-0.2,1.2-0.5
				s0.5-0.8,0.5-1.4v-4.9h2.2L214.4,479L214.4,479z M218.9,479h-2.2v-11.5h2.2V479z M225.7,478.9c-0.4,1.2-0.7,2-1,2.4
				c-0.2,0.4-0.5,0.7-0.8,0.9c-0.3,0.2-0.8,0.3-1.6,0.3c-0.4,0-0.7,0-1-0.1v-1.8c0.2,0,0.4,0,0.6,0c0.3,0,0.6-0.1,0.8-0.2
				s0.4-0.5,0.5-1.1l-3.2-8.9h2.5l1.8,6.3l0,0l1.7-6.3h2.4L225.7,478.9z M233.9,471.7c0-1.3,0.3-2.3,1-3s1.6-1,2.7-1
				c1.2,0,2.1,0.3,2.8,1s1.1,1.5,1.1,2.6c0,0.7-0.2,1.3-0.5,1.8c-0.3,0.6-0.9,1.2-1.9,1.9c-0.8,0.6-1.4,1-1.8,1.3
				c-0.4,0.3-0.6,0.6-0.7,0.8h4.9v2h-7.8c0-1,0.2-1.8,0.7-2.5c0.4-0.7,1.2-1.4,2.2-2.2c1.2-0.9,2-1.5,2.2-1.9
				c0.3-0.4,0.4-0.8,0.4-1.3s-0.1-0.9-0.4-1.2c-0.3-0.3-0.7-0.5-1.2-0.5s-0.9,0.2-1.2,0.5s-0.4,0.9-0.4,1.7L233.9,471.7L233.9,471.7
				z M245.4,473.5c0,1.5,0.1,2.5,0.3,3.1s0.7,0.9,1.3,0.9s1.1-0.3,1.3-0.9s0.3-1.7,0.3-3.1c0-1.5-0.1-2.6-0.4-3.2
				c-0.2-0.6-0.7-0.9-1.3-0.9s-1.1,0.3-1.3,0.9C245.5,470.9,245.4,471.9,245.4,473.5z M243.1,473.5c0-2,0.3-3.5,1-4.4s1.6-1.4,3-1.4
				c1.3,0,2.3,0.5,3,1.4c0.6,0.9,1,2.4,1,4.4s-0.3,3.5-1,4.4c-0.6,0.9-1.6,1.4-3,1.4c-1.3,0-2.3-0.5-3-1.4
				C243.4,477,243.1,475.5,243.1,473.5z M252.3,471.7c0-1.3,0.3-2.3,1-3s1.6-1,2.7-1c1.2,0,2.1,0.3,2.8,1c0.7,0.7,1.1,1.5,1.1,2.6
				c0,0.7-0.2,1.3-0.5,1.8c-0.3,0.6-0.9,1.2-1.9,1.9c-0.8,0.6-1.4,1-1.8,1.3c-0.4,0.3-0.6,0.6-0.7,0.8h4.9v2h-7.8
				c0-1,0.2-1.8,0.7-2.5c0.4-0.7,1.2-1.4,2.2-2.2c1.2-0.9,2-1.5,2.2-1.9c0.3-0.4,0.4-0.8,0.4-1.3s-0.1-0.9-0.4-1.2
				c-0.3-0.3-0.7-0.5-1.2-0.5s-0.9,0.2-1.2,0.5s-0.4,0.9-0.4,1.7L252.3,471.7L252.3,471.7z M262.1,469.6h0.3c0.9,0,1.6-0.2,2-0.5
				c0.5-0.4,0.7-0.8,0.8-1.4h1.8V479h-2.2v-7.8h-2.7L262.1,469.6L262.1,469.6z M273.5,479h-2.4v-2.3h2.4V479z M277.9,479h-2.4v-2.3
				h2.4V479z M282.4,479H280v-2.3h2.4V479z"/>
		</g>
	</g>
</g>
</svg>
