<?xml version="1.0" encoding="utf-8"?>
<!-- Generator: Adobe Illustrator 23.0.2, SVG Export Plug-In . SVG Version: 6.00 Build 0)  -->
<svg version="1.1" id="Layer_1" xmlns="http://www.w3.org/2000/svg" xmlns:xlink="http://www.w3.org/1999/xlink" x="0px" y="0px"
	 viewBox="0 0 338 510" style="enable-background:new 0 0 338 510;" xml:space="preserve">
<style type="text/css">
	.st0{fill:#061525;}
	.st1{fill:#FE7635;}
	.st2{fill:#EA6E31;}
	.st3{fill:#CA5F2A;}
	.st4{fill:#A44D23;}
	.st5{fill:#DD672E;}
	.st6{fill:#B1430E;}
	.st7{fill:#FACFBA;}
</style>
<g>
	<path class="st0" d="M20,0h250c11,0,20,9,20,20v360c0,11-9,20-20,20H20c-11,0-20-9-20-20V20C0,9,9,0,20,0z"/>
	<path class="st1" d="M120.3,111.5h2.2V123h-2.4l-4.7-8.2l0,0v8.2h-2.2v-11.5h2.5l4.6,8l0,0V111.5z M126.8,117.3
		c0,1.3,0.3,2.3,0.9,3s1.3,1,2.3,1c0.9,0,1.7-0.3,2.2-1c0.6-0.7,0.9-1.7,0.9-3s-0.3-2.3-0.9-3c-0.6-0.7-1.3-1-2.3-1
		c-0.9,0-1.7,0.3-2.3,1C127,115,126.8,116,126.8,117.3z M124.4,117.3c0-2,0.5-3.5,1.5-4.5s2.3-1.5,4-1.5c1.6,0,2.9,0.5,4,1.5
		c1,1,1.6,2.5,1.6,4.5c0,1.9-0.5,3.4-1.5,4.5c-1,1-2.3,1.6-4,1.6c-1.6,0-2.9-0.5-3.9-1.5C124.9,120.8,124.4,119.3,124.4,117.3z
		 M141.6,123h-2.4v-9.5h-3.5v-2h9.3v2h-3.5L141.6,123L141.6,123z M159.2,113.5h-6.1v2.4h5.6v2h-5.6v3h6.4v2h-8.7v-11.5h8.4
		L159.2,113.5L159.2,113.5z M168.5,111.5h2.2V123h-2.4l-4.7-8.2l0,0v8.2h-2.2v-11.5h2.5l4.6,8l0,0L168.5,111.5L168.5,111.5z
		 M178.5,116.8h4.8v6.2h-1.6l-0.2-1.4c-0.9,1.2-2.1,1.7-3.6,1.7s-2.8-0.5-3.8-1.6s-1.5-2.6-1.5-4.4s0.5-3.3,1.5-4.4s2.4-1.7,4.1-1.7
		c1.5,0,2.7,0.4,3.6,1.1c0.9,0.7,1.4,1.7,1.5,2.7h-2.4c-0.1-0.6-0.4-1-0.9-1.4c-0.5-0.3-1-0.5-1.6-0.5c-1,0-1.8,0.4-2.4,1.1
		c-0.6,0.7-0.9,1.7-0.9,3s0.3,2.3,0.8,2.9c0.6,0.7,1.4,1,2.5,1c0.6,0,1.2-0.2,1.7-0.6s0.9-1,1.1-1.9h-2.7L178.5,116.8L178.5,116.8z
		 M188.5,118.6h2.9l-1.4-4.5l0,0L188.5,118.6z M187.1,123h-2.5l4.1-11.5h2.8l4,11.5h-2.6l-0.7-2.4H188L187.1,123z M201.8,116.8h4.8
		v6.2H205l-0.2-1.4c-0.9,1.2-2.1,1.7-3.6,1.7s-2.8-0.5-3.8-1.6s-1.5-2.6-1.5-4.4s0.5-3.3,1.5-4.4s2.4-1.7,4.1-1.7
		c1.5,0,2.7,0.4,3.6,1.1c0.9,0.7,1.4,1.7,1.5,2.7h-2.4c-0.1-0.6-0.5-1-0.9-1.4c-0.5-0.3-1-0.5-1.6-0.5c-1,0-1.8,0.4-2.4,1.1
		c-0.6,0.7-0.9,1.7-0.9,3s0.3,2.3,0.8,2.9c0.6,0.7,1.4,1,2.5,1c0.6,0,1.2-0.2,1.7-0.6s0.9-1,1.1-1.9h-2.7L201.8,116.8L201.8,116.8z
		 M217.3,113.5h-6.1v2.4h5.6v2h-5.6v3h6.4v2h-8.7v-11.5h8.4L217.3,113.5L217.3,113.5z M221.8,121h2.3c0.8,0,1.5-0.3,1.9-1
		c0.5-0.7,0.7-1.6,0.7-2.8c0-1.2-0.2-2.2-0.6-2.8c-0.4-0.6-1.1-0.9-1.9-0.9h-2.4V121z M219.4,111.5h5.1c1.6,0,2.7,0.5,3.5,1.5
		s1.2,2.3,1.2,4c0,1.8-0.4,3.3-1.3,4.4c-0.8,1.1-2,1.7-3.5,1.7h-5V111.5z M240.1,118.9c-0.3,0.2-0.8,0.3-1.6,0.5
		c-0.7,0.1-1.1,0.2-1.3,0.5c-0.2,0.2-0.3,0.5-0.3,0.8s0.1,0.6,0.3,0.8c0.2,0.2,0.5,0.3,0.8,0.3c0.6,0,1.1-0.2,1.5-0.5
		s0.6-0.7,0.6-1.2V118.9z M242.3,121.3c0,0.4,0,0.7,0.1,0.9c0.1,0.2,0.2,0.4,0.4,0.4v0.3h-2.4c-0.1-0.3-0.2-0.6-0.2-1
		c-0.7,0.8-1.7,1.2-2.8,1.2c-0.8,0-1.5-0.2-2-0.7c-0.5-0.4-0.7-1.1-0.7-1.8c0-0.7,0.2-1.3,0.6-1.8c0.4-0.5,1.1-0.8,1.9-0.9l2.1-0.3
		c0.3,0,0.5-0.1,0.6-0.2s0.2-0.3,0.2-0.5c0-0.3-0.1-0.6-0.4-0.7c-0.2-0.2-0.6-0.3-1.1-0.3s-0.9,0.1-1.1,0.3
		c-0.2,0.2-0.4,0.5-0.4,0.9H235c0.1-1,0.5-1.8,1.1-2.3s1.6-0.7,2.9-0.7c1.1,0,1.9,0.2,2.5,0.6s0.9,1,0.9,1.8L242.3,121.3
		L242.3,121.3z M246.9,114.5h1.4v1.6h-1.4v4.8c0,0.2,0.1,0.4,0.2,0.4c0.1,0.1,0.3,0.1,0.6,0.1s0.5,0,0.6,0v1.7
		c-0.3,0.1-0.7,0.1-1.2,0.1c-0.9,0-1.5-0.1-1.9-0.4s-0.5-0.8-0.5-1.5v-5.2h-1.2v-1.6h1.2v-2.3h2.2L246.9,114.5L246.9,114.5z
		 M121.9,147h-2.3l-1.3-6.2l0,0L117,147h-2.3l-2.4-8.5h2.4l1.3,6.1l0,0l1.2-6.1h2.3l1.3,6.1l0,0l1.3-6.1h2.3L121.9,147z
		 M131.3,142.7c0-0.8-0.2-1.4-0.5-1.9s-0.8-0.7-1.5-0.7c-0.6,0-1.1,0.2-1.5,0.6c-0.4,0.4-0.5,1.1-0.5,1.9c0,0.9,0.2,1.5,0.5,1.9
		s0.8,0.7,1.5,0.7s1.2-0.2,1.5-0.7C131.1,144.2,131.3,143.6,131.3,142.7z M133.6,142.7c0,1.4-0.4,2.5-1.2,3.3s-1.8,1.2-3.1,1.2
		s-2.3-0.4-3.1-1.2c-0.8-0.8-1.2-1.9-1.2-3.3c0-1.4,0.4-2.5,1.2-3.3c0.8-0.8,1.9-1.2,3.1-1.2c1.3,0,2.3,0.4,3.1,1.2
		C133.2,140.3,133.6,141.4,133.6,142.7z M135.3,138.5h2.1v1.5l0,0c0.3-0.6,0.6-1,0.9-1.3c0.4-0.3,0.8-0.4,1.4-0.4c0.1,0,0.3,0,0.4,0
		v2.3c-0.1,0-0.3,0-0.6,0c-0.7,0-1.2,0.2-1.6,0.5c-0.3,0.3-0.5,0.8-0.5,1.5v4.4h-2.2v-8.5H135.3z M143.8,147h-2.2v-11.5h2.2v6.2
		l2.8-3.2h2.8l-3,3.3l3.1,5.2h-2.7l-2-3.6l-0.9,1v2.6H143.8z"/>
	<path class="st1" d="M23.4,42h-3.3V29h-4.8v-2.8h12.8V29h-4.8v13H23.4z M42.9,26.2V42h-3.3v-7.1h-6.2V42h-3.3V26.2h3.3v6h6.2v-6
		H42.9z M57.7,29h-8.4v3.3H57v2.8h-7.7v4.1h8.8V42h-12V26.2h11.6C57.7,26.2,57.7,29,57.7,29z M69,37.1c0,0.8,0.3,1.4,0.9,1.9
		s1.4,0.7,2.5,0.7s1.9-0.2,2.4-0.5c0.6-0.4,0.8-0.9,0.8-1.5c0-0.4-0.1-0.7-0.4-1s-1-0.6-2.1-0.8l-2.7-0.6c-1.7-0.4-2.9-0.9-3.5-1.6
		C66.3,33,66,32,66,30.8c0-1.4,0.5-2.6,1.5-3.5s2.5-1.4,4.6-1.4c2,0,3.5,0.5,4.6,1.5c1,1,1.6,2.2,1.6,3.6h-3.2
		c-0.1-0.8-0.4-1.4-0.9-1.8s-1.3-0.6-2.3-0.6c-0.8,0-1.5,0.2-2,0.5s-0.8,0.8-0.8,1.4c0,0.4,0.1,0.7,0.3,1c0.2,0.3,0.6,0.5,1.1,0.6
		l4.2,1c1.5,0.4,2.6,0.9,3.2,1.6c0.6,0.7,0.9,1.6,0.9,2.6c0,1.7-0.6,3-1.8,3.9c-1.2,0.9-2.7,1.3-4.4,1.3c-2.3,0-4-0.5-5.1-1.5
		s-1.7-2.3-1.7-3.8H69V37.1z M87.5,42h-3.3V29h-4.8v-2.8h12.8V29h-4.8v13H87.5z M96.2,36h4l-2-6.3l0,0L96.2,36z M94.2,42h-3.5
		l5.6-15.8h3.8l5.6,15.8h-3.6l-1-3.3h-5.8L94.2,42z M112.2,42h-3.3V29h-4.8v-2.8H117V29h-4.8V42z M130.5,29h-8.4v3.3h7.7v2.8h-7.7
		v4.1h8.8V42h-12V26.2h11.6L130.5,29L130.5,29z M142,34.1c0,1.8,0.4,3.2,1.2,4.1c0.8,0.9,1.9,1.4,3.1,1.4c1.3,0,2.3-0.5,3.1-1.4
		c0.8-1,1.2-2.3,1.2-4.1s-0.4-3.1-1.2-4.1s-1.8-1.4-3.1-1.4s-2.3,0.5-3.1,1.4C142.4,31,142,32.3,142,34.1z M138.7,34.1
		c0-2.7,0.7-4.8,2.1-6.2c1.4-1.4,3.2-2.1,5.4-2.1s4,0.7,5.5,2.1c1.4,1.4,2.1,3.5,2.1,6.2s-0.7,4.7-2.1,6.2c-1.4,1.4-3.2,2.1-5.5,2.1
		c-2.1,0-3.9-0.7-5.4-2C139.4,39,138.7,36.9,138.7,34.1z M159.7,42h-3.3V26.2h11.2V29h-7.9v3.6h7v2.8h-7V42z M183.1,33.5h6.6V42
		h-2.2l-0.3-2c-1.2,1.6-2.9,2.4-5,2.4s-3.8-0.8-5.2-2.3c-1.3-1.5-2-3.5-2-6s0.7-4.5,2.1-6c1.4-1.5,3.3-2.3,5.6-2.3
		c2,0,3.7,0.5,4.9,1.5s1.9,2.3,2,3.8h-3.3c-0.2-0.8-0.6-1.4-1.3-1.9c-0.6-0.5-1.4-0.7-2.2-0.7c-1.4,0-2.5,0.5-3.3,1.5
		s-1.2,2.4-1.2,4.1s0.4,3.1,1.2,4s1.9,1.4,3.4,1.4c0.9,0,1.6-0.3,2.3-0.8c0.7-0.6,1.2-1.4,1.5-2.7H183L183.1,33.5L183.1,33.5z
		 M196.1,39.1h7.9V42h-11.1V26.2h3.3L196.1,39.1L196.1,39.1z M208.4,34.1c0,1.8,0.4,3.2,1.2,4.1c0.8,0.9,1.9,1.4,3.1,1.4
		c1.3,0,2.3-0.5,3.1-1.4c0.8-1,1.2-2.3,1.2-4.1s-0.4-3.1-1.2-4.1s-1.8-1.4-3.1-1.4s-2.3,0.5-3.1,1.4C208.8,31,208.4,32.3,208.4,34.1
		z M205.1,34.1c0-2.7,0.7-4.8,2.1-6.2c1.4-1.4,3.2-2.1,5.4-2.1s4,0.7,5.5,2.1c1.4,1.4,2.1,3.5,2.1,6.2s-0.7,4.7-2.1,6.2
		c-1.4,1.4-3.2,2.1-5.5,2.1c-2.1,0-3.9-0.7-5.4-2C205.8,39,205.1,36.9,205.1,34.1z M226,32.4h3.9c0.8,0,1.3-0.2,1.7-0.5
		s0.6-0.7,0.6-1.3c0-0.6-0.2-1-0.6-1.3c-0.4-0.3-1-0.4-1.9-0.4H226V32.4z M226,39.3h4c0.8,0,1.4-0.2,1.9-0.5c0.4-0.4,0.7-1,0.7-1.8
		c0-0.6-0.2-1.1-0.6-1.4c-0.4-0.3-1-0.5-1.7-0.5H226V39.3z M222.8,26.2h7.7c1.6,0,2.8,0.4,3.6,1.1c0.8,0.8,1.2,1.7,1.2,2.9
		c0,1.6-0.6,2.7-1.9,3.2c1.6,0.6,2.4,1.9,2.4,3.8c0,0.6-0.1,1.2-0.4,1.8c-0.2,0.6-0.6,1.1-1.1,1.6s-1.1,0.8-1.8,1s-1.7,0.3-3.1,0.3
		h-6.7V26.2H222.8z M242.1,36h4l-2-6.3l0,0L242.1,36z M240.2,42h-3.5l5.6-15.8h3.8l5.6,15.8h-3.6l-1-3.3h-5.8L240.2,42z M256.9,39.1
		h7.9V42h-11.2V26.2h3.3V39.1z M15.3,50.2h3.5L21,60.3l0.3,1.6l0,0l0.3-1.6l1.9-10.1H27l2.1,10l0.3,1.6l0,0l0.3-1.6l2.3-10h3.4
		L31,66h-3.2l-2.2-11.1l-0.2-1.3l0,0l-0.2,1.3L22.9,66h-3.1L15.3,50.2z M39.6,58.1c0,1.8,0.4,3.2,1.2,4.1c0.8,0.9,1.9,1.4,3.1,1.4
		c1.3,0,2.3-0.5,3.1-1.4c0.8-1,1.2-2.3,1.2-4.1S47.7,55,47,54c-0.8-1-1.8-1.4-3.1-1.4s-2.3,0.5-3.1,1.4C39.9,55,39.6,56.3,39.6,58.1
		z M36.3,58.1c0-2.7,0.7-4.8,2.1-6.2s3.2-2.1,5.4-2.1s4,0.7,5.5,2.1c1.4,1.4,2.1,3.5,2.1,6.2s-0.7,4.7-2.1,6.2
		c-1.4,1.4-3.2,2.1-5.5,2.1c-2.1,0-3.9-0.7-5.4-2C37,63,36.3,60.9,36.3,58.1z M61.1,57.2c0.9,0,1.5-0.2,1.9-0.5s0.6-0.9,0.6-1.7
		c0-0.6-0.2-1.1-0.6-1.5c-0.4-0.4-1-0.6-1.7-0.6h-4.1v4.2L61.1,57.2L61.1,57.2z M54,50.2h8c1.6,0,2.9,0.4,3.7,1.3
		c0.8,0.9,1.3,1.9,1.3,3.1c0,1.8-0.8,3.1-2.4,3.8c0.8,0.3,1.3,0.7,1.6,1.2c0.3,0.5,0.4,1.5,0.4,2.9s0.1,2.2,0.2,2.5
		c0.1,0.2,0.3,0.4,0.5,0.5V66h-3.6c-0.2-0.7-0.4-1.7-0.4-3.1c0-1.1-0.1-1.8-0.2-2.2c-0.2-0.3-0.4-0.6-0.8-0.7
		c-0.3-0.2-0.9-0.2-1.6-0.2h-3.4V66H54V50.2z M72.9,66h-3.3V50.2h3.3v6.4l6-6.4h4.3l-6.4,6.5l6.8,9.3h-4.3l-4.9-6.9l-1.5,1.6V66z
		 M87.4,61.1c0,0.8,0.3,1.4,0.9,1.9s1.4,0.7,2.5,0.7s1.9-0.2,2.4-0.5c0.6-0.4,0.8-0.9,0.8-1.5c0-0.4-0.1-0.7-0.4-1s-1-0.6-2.1-0.8
		l-2.7-0.6c-1.7-0.4-2.9-0.9-3.5-1.6c-0.6-0.7-0.9-1.7-0.9-2.9c0-1.4,0.5-2.6,1.5-3.5s2.5-1.4,4.6-1.4c2,0,3.5,0.5,4.6,1.5
		c1,1,1.6,2.2,1.6,3.6h-3.2c-0.1-0.8-0.4-1.4-0.9-1.8c-0.5-0.4-1.3-0.6-2.3-0.6c-0.8,0-1.5,0.2-2,0.5s-0.8,0.8-0.8,1.4
		c0,0.4,0.1,0.7,0.3,1s0.6,0.5,1.1,0.6l4.2,1c1.5,0.4,2.6,0.9,3.2,1.6c0.6,0.7,0.9,1.6,0.9,2.6c0,1.7-0.6,3-1.8,3.9
		c-1.2,0.9-2.7,1.3-4.4,1.3c-2.3,0-4-0.5-5.1-1.5s-1.7-2.3-1.7-3.8h3.2V61.1z M106.1,57.6c0.8,0,1.5-0.2,1.9-0.6
		c0.4-0.4,0.6-1,0.6-1.8s-0.2-1.4-0.7-1.7s-1.1-0.5-2-0.5H103v4.7h3.1V57.6z M103,66h-3.3V50.2h7.2c1.5,0,2.7,0.5,3.6,1.4
		s1.3,2.1,1.3,3.7c0,1.4-0.4,2.5-1.3,3.5s-2.1,1.5-3.7,1.5H103V66z M116.2,60h4l-2-6.3l0,0L116.2,60z M114.2,66h-3.5l5.6-15.8h3.8
		l5.6,15.8h-3.6l-1-3.3h-5.8L114.2,66z M137.1,55.4c-0.4-1.8-1.6-2.7-3.5-2.7c-1.2,0-2.1,0.5-2.9,1.5c-0.7,1-1.1,2.3-1.1,4.1
		c0,1.6,0.3,2.9,1,3.9s1.7,1.5,2.9,1.5c1.9,0,3.1-1,3.5-3h3.3c-0.2,1.6-0.9,3-2.1,4.1c-1.2,1.1-2.8,1.7-4.7,1.7
		c-2.2,0-4-0.7-5.3-2.2s-2-3.5-2-6.1c0-2.5,0.6-4.5,1.9-6c1.3-1.5,3.1-2.3,5.3-2.3c2,0,3.6,0.5,4.8,1.6s1.9,2.4,2.1,4h-3.2V55.4z
		 M154.5,53h-8.4v3.3h7.7v2.8h-7.7v4.1h8.8V66h-12V50.2h11.6L154.5,53L154.5,53z M162.7,55.9c0-1.8,0.5-3.2,1.4-4.1
		c0.9-0.9,2.2-1.4,3.7-1.4c1.6,0,2.9,0.5,3.9,1.4s1.5,2.1,1.5,3.6c0,0.9-0.2,1.7-0.6,2.5c-0.4,0.8-1.3,1.6-2.6,2.5
		c-1.1,0.8-1.9,1.4-2.4,1.8c-0.5,0.4-0.8,0.8-1,1.1h6.8V66h-10.7c0-1.4,0.3-2.5,0.9-3.5c0.6-0.9,1.6-1.9,3-3
		c1.7-1.2,2.7-2.1,3.1-2.6c0.4-0.5,0.6-1.1,0.6-1.7c0-0.6-0.2-1.2-0.6-1.6c-0.4-0.4-0.9-0.6-1.6-0.6c-0.7,0-1.2,0.2-1.6,0.6
		c-0.4,0.4-0.6,1.2-0.6,2.3H162.7z M178.5,58.4c0,2,0.2,3.5,0.5,4.3s0.9,1.3,1.8,1.3c0.9,0,1.5-0.4,1.8-1.3c0.3-0.8,0.5-2.3,0.5-4.3
		c0-2.1-0.2-3.5-0.5-4.3s-0.9-1.2-1.8-1.2c-0.9,0-1.5,0.4-1.8,1.2C178.6,54.8,178.5,56.3,178.5,58.4z M175.3,58.4
		c0-2.8,0.4-4.8,1.3-6.1c0.9-1.3,2.3-1.9,4.1-1.9s3.2,0.7,4.1,2c0.9,1.3,1.3,3.3,1.3,6c0,2.8-0.4,4.8-1.3,6.1
		c-0.9,1.3-2.2,1.9-4.1,1.9c-1.8,0-3.2-0.6-4.1-1.9C175.8,63.2,175.3,61.2,175.3,58.4z M188.1,55.9c0-1.8,0.5-3.2,1.4-4.1
		c0.9-0.9,2.2-1.4,3.7-1.4c1.6,0,2.9,0.5,3.9,1.4s1.5,2.1,1.5,3.6c0,0.9-0.2,1.7-0.6,2.5c-0.4,0.8-1.3,1.6-2.6,2.5
		c-1.1,0.8-1.9,1.4-2.4,1.8c-0.5,0.4-0.8,0.8-1,1.1h6.8V66h-10.7c0-1.4,0.3-2.5,0.9-3.5c0.6-0.9,1.6-1.9,3-3
		c1.7-1.2,2.7-2.1,3.1-2.6c0.4-0.5,0.6-1.1,0.6-1.7c0-0.6-0.2-1.2-0.6-1.6c-0.4-0.4-0.9-0.6-1.6-0.6c-0.7,0-1.2,0.2-1.6,0.6
		c-0.4,0.4-0.6,1.2-0.6,2.3H188.1z M201.5,53.1h0.4c1.2,0,2.1-0.2,2.8-0.7c0.6-0.5,1-1.1,1.1-2h2.5V66h-3.1V55.2h-3.7V53.1z"/>
	<path class="st2" d="M115.6,184.5h1.4v1.6h-1.4v4.8c0,0.2,0.1,0.4,0.2,0.4c0.1,0.1,0.3,0.1,0.6,0.1c0.3,0,0.5,0,0.6,0v1.7
		c-0.3,0.1-0.7,0.1-1.2,0.1c-0.9,0-1.5-0.1-1.9-0.4c-0.4-0.3-0.5-0.8-0.5-1.5v-5.2h-1.2v-1.6h1.2v-2.3h2.2
		C115.6,182.2,115.6,184.5,115.6,184.5z M126.2,193H124v-5.3c0-0.5-0.1-0.9-0.4-1.2c-0.2-0.3-0.6-0.4-1.1-0.4c-0.6,0-1,0.2-1.3,0.6
		c-0.3,0.4-0.5,0.8-0.5,1.4v4.9h-2.2v-11.5h2.2v4.1l0,0c0.5-0.9,1.3-1.3,2.5-1.3c0.9,0,1.6,0.3,2.1,0.8s0.8,1.2,0.8,2.1L126.2,193
		L126.2,193z M130.5,183.5h-2.2v-2.1h2.2V183.5z M130.5,184.5v8.5h-2.2v-8.5H130.5z M140.4,193h-2.2v-5.3c0-0.5-0.1-0.9-0.3-1.1
		c-0.2-0.3-0.6-0.4-1.1-0.4s-1,0.2-1.3,0.5s-0.5,0.8-0.5,1.4v4.9h-2.2v-8.5h2.1v1.3l0,0c0.5-1,1.4-1.5,2.5-1.5
		c0.9,0,1.6,0.3,2.1,0.8c0.6,0.5,0.8,1.2,0.8,2.1L140.4,193L140.4,193z M144.7,193h-2.2v-11.5h2.2v6.2l2.8-3.2h2.8l-3,3.3l3.1,5.2
		h-2.7l-2-3.6l-0.9,1v2.6H144.7z M158.2,184.5h1.4v1.6h-1.4v4.8c0,0.2,0.1,0.4,0.2,0.4c0.1,0.1,0.3,0.1,0.6,0.1s0.5,0,0.6,0v1.7
		c-0.3,0.1-0.7,0.1-1.2,0.1c-0.9,0-1.5-0.1-1.9-0.4c-0.4-0.3-0.5-0.8-0.5-1.5v-5.2h-1.2v-1.6h1.2v-2.3h2.2L158.2,184.5L158.2,184.5z
		 M168.8,193h-2.2v-5.3c0-0.5-0.1-0.9-0.4-1.2c-0.2-0.3-0.6-0.4-1.1-0.4c-0.6,0-1,0.2-1.3,0.6c-0.3,0.4-0.5,0.8-0.5,1.4v4.9h-2.2
		v-11.5h2.2v4.1l0,0c0.5-0.9,1.3-1.3,2.5-1.3c0.9,0,1.6,0.3,2.1,0.8s0.8,1.2,0.8,2.1L168.8,193L168.8,193z M176.1,187.9
		c0-0.5-0.2-1-0.5-1.3s-0.7-0.5-1.2-0.5c-1.1,0-1.7,0.6-1.8,1.8H176.1z M178.3,190.5c-0.3,0.9-0.7,1.6-1.4,2
		c-0.7,0.5-1.5,0.7-2.3,0.7c-1.4,0-2.5-0.4-3.2-1.2s-1.1-1.8-1.1-3.2s0.3-2.5,1-3.3s1.7-1.3,3.1-1.3c1.2,0,2.2,0.4,2.9,1.2
		s1.1,2,1.1,3.5v0.4h-5.9c0.1,0.7,0.3,1.2,0.6,1.6c0.4,0.3,0.8,0.5,1.4,0.5c0.4,0,0.7-0.1,0.9-0.3c0.3-0.2,0.4-0.4,0.5-0.7h2.4
		V190.5z M184.3,192.9c-0.4,1.2-0.7,2-1,2.4c-0.2,0.4-0.5,0.7-0.8,0.9s-0.8,0.3-1.6,0.3c-0.4,0-0.7,0-1-0.1v-1.8c0.2,0,0.4,0,0.6,0
		c0.3,0,0.6-0.1,0.8-0.2c0.2-0.1,0.4-0.5,0.5-1.1l-3.2-8.9h2.5l1.8,6.3l0,0l1.7-6.3h2.4L184.3,192.9z M197.7,188.9
		c-0.3,0.2-0.8,0.3-1.6,0.5c-0.7,0.1-1.1,0.2-1.3,0.5c-0.2,0.2-0.3,0.5-0.3,0.8s0.1,0.6,0.3,0.8s0.5,0.3,0.8,0.3
		c0.6,0,1.1-0.2,1.5-0.5s0.6-0.7,0.6-1.2V188.9z M199.9,191.3c0,0.4,0,0.7,0.1,0.9s0.2,0.4,0.4,0.4v0.3H198c-0.1-0.3-0.2-0.6-0.2-1
		c-0.7,0.8-1.7,1.2-2.8,1.2c-0.8,0-1.5-0.2-2-0.7c-0.5-0.4-0.7-1.1-0.7-1.8s0.2-1.3,0.6-1.8c0.4-0.5,1.1-0.8,1.9-0.9l2.1-0.3
		c0.3,0,0.5-0.1,0.6-0.2c0.1-0.1,0.2-0.3,0.2-0.5c0-0.3-0.1-0.6-0.4-0.7c-0.2-0.2-0.6-0.3-1.1-0.3s-0.9,0.1-1.1,0.3
		c-0.2,0.2-0.4,0.5-0.4,0.9h-2.2c0.1-1,0.5-1.8,1.1-2.3s1.6-0.7,2.9-0.7c1.1,0,1.9,0.2,2.5,0.6c0.6,0.4,0.9,1,0.9,1.8L199.9,191.3
		L199.9,191.3z M202,184.5h2.1v1.5l0,0c0.3-0.6,0.6-1,0.9-1.3c0.4-0.3,0.8-0.4,1.4-0.4c0.1,0,0.3,0,0.4,0v2.3c-0.1,0-0.3,0-0.6,0
		c-0.7,0-1.2,0.2-1.6,0.5c-0.3,0.3-0.5,0.8-0.5,1.5v4.4H202V184.5z M213.4,187.9c0-0.5-0.2-1-0.5-1.3s-0.7-0.5-1.2-0.5
		c-1.1,0-1.7,0.6-1.8,1.8H213.4z M215.7,190.5c-0.3,0.9-0.7,1.6-1.4,2c-0.7,0.5-1.5,0.7-2.3,0.7c-1.4,0-2.5-0.4-3.2-1.2
		s-1.1-1.8-1.1-3.2s0.3-2.5,1-3.3s1.7-1.3,3.1-1.3c1.2,0,2.2,0.4,2.9,1.2s1.1,2,1.1,3.5v0.4h-5.9c0.1,0.7,0.3,1.2,0.6,1.6
		c0.4,0.3,0.8,0.5,1.4,0.5c0.4,0,0.7-0.1,0.9-0.3c0.3-0.2,0.4-0.4,0.5-0.7h2.4V190.5z M228.8,181.5h2.2V193h-2.4l-4.7-8.2l0,0v8.2
		h-2.2v-11.5h2.5l4.6,8l0,0L228.8,181.5L228.8,181.5z M235.3,187.3c0,1.3,0.3,2.3,0.9,3c0.6,0.7,1.3,1,2.3,1c0.9,0,1.7-0.3,2.2-1
		c0.6-0.7,0.9-1.7,0.9-3s-0.3-2.3-0.9-3c-0.6-0.7-1.3-1-2.3-1c-0.9,0-1.7,0.3-2.3,1C235.6,185,235.3,186,235.3,187.3z M232.9,187.3
		c0-2,0.5-3.5,1.5-4.5s2.3-1.5,4-1.5c1.6,0,2.9,0.5,4,1.5c1,1,1.6,2.5,1.6,4.5c0,1.9-0.5,3.4-1.5,4.5c-1,1-2.3,1.6-4,1.6
		c-1.6,0-2.9-0.5-3.9-1.5C233.4,190.8,232.9,189.3,232.9,187.3z M250.1,193h-2.4v-9.5h-3.5v-2h9.3v2H250L250.1,193L250.1,193z
		 M118.1,217h-2.4v-9.5h-3.5v-2h9.3v2H118L118.1,217L118.1,217z M132.3,205.5V217h-2.4v-5.1h-4.5v5.1H123v-11.5h2.4v4.4h4.5v-4.4
		H132.3z M139.8,210.6c0.6,0,1.1-0.1,1.4-0.4c0.3-0.2,0.5-0.6,0.5-1.2c0-0.5-0.1-0.8-0.4-1.1c-0.3-0.3-0.7-0.4-1.3-0.4h-3v3.1
		L139.8,210.6L139.8,210.6z M134.6,205.5h5.8c1.2,0,2.1,0.3,2.7,1c0.6,0.6,0.9,1.4,0.9,2.3c0,1.3-0.6,2.2-1.8,2.7
		c0.5,0.2,0.9,0.5,1.1,0.9c0.2,0.4,0.3,1.1,0.3,2.1s0,1.6,0.1,1.8s0.2,0.3,0.4,0.4v0.3h-2.6c-0.2-0.5-0.3-1.3-0.3-2.2
		c0-0.8-0.1-1.3-0.2-1.6c-0.1-0.2-0.3-0.4-0.5-0.5c-0.3-0.1-0.6-0.2-1.2-0.2H137v4.5h-2.4V205.5z M148.4,217H146v-11.5h2.4V217z
		 M157.3,205.5h2.5l-3.9,11.5h-2.3l-3.9-11.5h2.6l2.5,8.7l0,0L157.3,205.5z M163.6,217h-2.4v-11.5h2.4V217z M173.1,205.5h2.2V217
		h-2.4l-4.7-8.2l0,0v8.2H166v-11.5h2.5l4.6,8l0,0V205.5z M183.1,210.8h4.8v6.2h-1.6l-0.2-1.4c-0.9,1.2-2.1,1.7-3.6,1.7
		s-2.8-0.5-3.8-1.6s-1.5-2.6-1.5-4.4c0-1.8,0.5-3.3,1.5-4.4c1-1.1,2.4-1.7,4.1-1.7c1.5,0,2.7,0.4,3.6,1.1c0.9,0.7,1.4,1.7,1.5,2.7
		h-2.4c-0.1-0.6-0.4-1-0.9-1.4c-0.5-0.3-1-0.5-1.6-0.5c-1,0-1.8,0.4-2.4,1.1c-0.6,0.7-0.9,1.7-0.9,3s0.3,2.3,0.8,2.9
		c0.6,0.7,1.4,1,2.5,1c0.6,0,1.2-0.2,1.7-0.6c0.5-0.4,0.9-1,1.1-1.9h-2.7L183.1,210.8L183.1,210.8z"/>
	<path class="st3" d="M115.6,254.5h1.5v1.6h-1.5v6.9h-2.2v-6.9h-1.2v-1.6h1.2v-0.7c0-0.8,0.2-1.4,0.6-1.8s1.1-0.6,2.1-0.6
		c0.3,0,0.6,0,0.9,0v1.8c-0.2,0-0.3,0-0.5,0s-0.4,0-0.5,0s-0.2,0.1-0.3,0.1c-0.1,0.1-0.1,0.2-0.1,0.3s0,0.3,0,0.5V254.5z
		 M123.4,257.9c0-0.5-0.2-1-0.5-1.3s-0.7-0.5-1.2-0.5c-1.1,0-1.7,0.6-1.8,1.8H123.4z M125.6,260.5c-0.3,0.9-0.7,1.6-1.4,2
		c-0.7,0.5-1.5,0.7-2.3,0.7c-1.4,0-2.5-0.4-3.2-1.2c-0.7-0.8-1.1-1.8-1.1-3.2c0-1.4,0.3-2.5,1-3.3s1.7-1.3,3.1-1.3
		c1.2,0,2.2,0.4,2.9,1.2c0.7,0.8,1.1,2,1.1,3.5v0.4h-5.9c0.1,0.7,0.3,1.2,0.6,1.6c0.4,0.3,0.8,0.5,1.4,0.5c0.4,0,0.7-0.1,0.9-0.3
		c0.3-0.2,0.4-0.4,0.5-0.7h2.4V260.5z M129.5,263h-2.2v-11.5h2.2V263z M134.2,254.5h1.4v1.6h-1.4v4.8c0,0.2,0.1,0.4,0.2,0.4
		c0.1,0.1,0.3,0.1,0.6,0.1s0.5,0,0.6,0v1.7c-0.3,0.1-0.7,0.1-1.2,0.1c-0.9,0-1.5-0.1-1.9-0.4s-0.5-0.8-0.5-1.5v-5.2h-1.2v-1.6h1.2
		v-2.3h2.2L134.2,254.5L134.2,254.5z M143.2,259.5c0,0.6,0.2,1,0.6,1.4c0.4,0.3,1,0.5,1.8,0.5s1.4-0.1,1.8-0.4
		c0.4-0.3,0.6-0.6,0.6-1.1c0-0.3-0.1-0.5-0.3-0.8c-0.2-0.2-0.7-0.4-1.5-0.6l-2-0.5c-1.2-0.3-2.1-0.7-2.5-1.2s-0.7-1.2-0.7-2.1
		c0-1,0.4-1.9,1.1-2.5c0.7-0.7,1.8-1,3.3-1s2.6,0.4,3.3,1.1c0.8,0.7,1.1,1.6,1.1,2.6h-2.3c-0.1-0.6-0.3-1-0.7-1.3s-1-0.4-1.7-0.4
		c-0.6,0-1.1,0.1-1.5,0.4c-0.4,0.2-0.5,0.6-0.5,1c0,0.3,0.1,0.5,0.2,0.7c0.2,0.2,0.4,0.3,0.8,0.4l3.1,0.8c1.1,0.3,1.9,0.7,2.3,1.2
		c0.4,0.5,0.6,1.1,0.6,1.9c0,1.3-0.4,2.2-1.3,2.8c-0.9,0.6-1.9,0.9-3.2,0.9c-1.7,0-2.9-0.4-3.7-1.1s-1.2-1.6-1.2-2.8h2.5V259.5z
		 M156.6,263h-2.4v-9.5h-3.5v-2h9.3v2h-3.5L156.6,263L156.6,263z M166.7,256.6c0.6,0,1.1-0.1,1.4-0.4c0.3-0.2,0.5-0.6,0.5-1.2
		c0-0.5-0.1-0.8-0.4-1.1c-0.3-0.3-0.7-0.4-1.3-0.4h-3v3.1H166.7z M161.5,251.5h5.8c1.2,0,2.1,0.3,2.7,1c0.6,0.6,0.9,1.4,0.9,2.3
		c0,1.3-0.6,2.2-1.8,2.7c0.5,0.2,0.9,0.5,1.1,0.9c0.2,0.4,0.3,1.1,0.3,2.1s0,1.6,0.1,1.8c0.1,0.2,0.2,0.3,0.4,0.4v0.3h-2.6
		c-0.2-0.5-0.3-1.3-0.3-2.2c0-0.8-0.1-1.3-0.2-1.6c-0.1-0.2-0.3-0.4-0.5-0.5c-0.3-0.1-0.6-0.2-1.2-0.2h-2.5v4.5h-2.4v-11.5H161.5z
		 M181.3,253.5h-6.1v2.4h5.6v2h-5.6v3h6.4v2h-8.7v-11.5h8.4L181.3,253.5L181.3,253.5z M185.3,259.5c0,0.6,0.2,1,0.6,1.4
		c0.4,0.3,1,0.5,1.8,0.5s1.4-0.1,1.8-0.4c0.4-0.3,0.6-0.6,0.6-1.1c0-0.3-0.1-0.5-0.3-0.8c-0.2-0.2-0.7-0.4-1.5-0.6l-2-0.5
		c-1.2-0.3-2.1-0.7-2.5-1.2s-0.7-1.2-0.7-2.1c0-1,0.4-1.9,1.1-2.5c0.7-0.7,1.8-1,3.3-1s2.6,0.4,3.3,1.1c0.8,0.7,1.1,1.6,1.1,2.6
		h-2.3c-0.1-0.6-0.3-1-0.7-1.3s-1-0.4-1.7-0.4c-0.6,0-1.1,0.1-1.5,0.4c-0.4,0.2-0.5,0.6-0.5,1c0,0.3,0.1,0.5,0.2,0.7
		c0.2,0.2,0.4,0.3,0.8,0.4l3.1,0.8c1.1,0.3,1.9,0.7,2.3,1.2c0.4,0.5,0.6,1.1,0.6,1.9c0,1.3-0.4,2.2-1.3,2.8
		c-0.9,0.6-1.9,0.9-3.2,0.9c-1.7,0-2.9-0.4-3.7-1.1s-1.2-1.6-1.2-2.8h2.5V259.5z M196,259.5c0,0.6,0.2,1,0.6,1.4
		c0.4,0.3,1,0.5,1.8,0.5s1.4-0.1,1.8-0.4c0.4-0.3,0.6-0.6,0.6-1.1c0-0.3-0.1-0.5-0.3-0.8c-0.2-0.2-0.7-0.4-1.5-0.6l-2-0.5
		c-1.2-0.3-2.1-0.7-2.5-1.2s-0.7-1.2-0.7-2.1c0-1,0.4-1.9,1.1-2.5c0.7-0.7,1.8-1,3.3-1s2.6,0.4,3.3,1.1c0.8,0.7,1.1,1.6,1.1,2.6
		h-2.3c-0.1-0.6-0.3-1-0.7-1.3s-1-0.4-1.7-0.4c-0.6,0-1.1,0.1-1.5,0.4c-0.4,0.2-0.5,0.6-0.5,1c0,0.3,0.1,0.5,0.2,0.7
		c0.2,0.2,0.4,0.3,0.8,0.4l3.1,0.8c1.1,0.3,1.9,0.7,2.3,1.2c0.4,0.5,0.6,1.1,0.6,1.9c0,1.3-0.4,2.2-1.3,2.8
		c-0.9,0.6-1.9,0.9-3.2,0.9c-1.7,0-2.9-0.4-3.7-1.1s-1.2-1.6-1.2-2.8h2.5V259.5z M211.7,254.5h1.4v1.6h-1.4v4.8
		c0,0.2,0.1,0.4,0.2,0.4c0.1,0.1,0.3,0.1,0.6,0.1s0.5,0,0.6,0v1.7c-0.3,0.1-0.7,0.1-1.2,0.1c-0.9,0-1.5-0.1-1.9-0.4
		s-0.5-0.8-0.5-1.5v-5.2h-1.2v-1.6h1.2v-2.3h2.2L211.7,254.5L211.7,254.5z M222.2,263H220v-5.3c0-0.5-0.1-0.9-0.4-1.2
		c-0.2-0.3-0.6-0.4-1.1-0.4c-0.6,0-1,0.2-1.3,0.6s-0.5,0.8-0.5,1.4v4.9h-2.2v-11.5h2.2v4.1l0,0c0.5-0.9,1.3-1.3,2.5-1.3
		c0.9,0,1.6,0.3,2.1,0.8s0.8,1.2,0.8,2.1L222.2,263L222.2,263z M229.6,257.9c0-0.5-0.2-1-0.5-1.3s-0.7-0.5-1.2-0.5
		c-1.1,0-1.7,0.6-1.8,1.8H229.6z M231.8,260.5c-0.3,0.9-0.7,1.6-1.4,2c-0.7,0.5-1.5,0.7-2.3,0.7c-1.4,0-2.5-0.4-3.2-1.2
		c-0.7-0.8-1.1-1.8-1.1-3.2c0-1.4,0.3-2.5,1-3.3s1.7-1.3,3.1-1.3c1.2,0,2.2,0.4,2.9,1.2s1.1,2,1.1,3.5v0.4H226
		c0.1,0.7,0.3,1.2,0.6,1.6c0.4,0.3,0.8,0.5,1.4,0.5c0.4,0,0.7-0.1,0.9-0.3c0.3-0.2,0.4-0.4,0.5-0.7h2.4V260.5z M239.6,258.8
		c0,0.8,0.2,1.4,0.5,1.9s0.8,0.7,1.3,0.7c0.6,0,1.1-0.2,1.5-0.7c0.3-0.4,0.5-1,0.5-1.8c0-0.9-0.2-1.6-0.5-2
		c-0.3-0.5-0.8-0.7-1.4-0.7c-0.6,0-1.1,0.2-1.4,0.7C239.7,257.3,239.6,258,239.6,258.8z M245.5,263h-2.2v-1.1l0,0
		c-0.5,0.9-1.3,1.3-2.5,1.3c-1.1,0-2-0.4-2.6-1.3c-0.6-0.8-0.9-1.9-0.9-3.3c0-1.3,0.3-2.4,1-3.2s1.5-1.2,2.5-1.2
		c1.1,0,1.9,0.4,2.5,1.3l0,0v-4.1h2.2V263z M252.6,258.9c-0.3,0.2-0.8,0.3-1.6,0.5c-0.7,0.1-1.1,0.2-1.3,0.5
		c-0.2,0.2-0.3,0.5-0.3,0.8s0.1,0.6,0.3,0.8c0.2,0.2,0.5,0.3,0.8,0.3c0.6,0,1.1-0.2,1.5-0.5s0.6-0.7,0.6-1.2V258.9z M254.8,261.3
		c0,0.4,0,0.7,0.1,0.9c0.1,0.2,0.2,0.4,0.4,0.4v0.3h-2.4c-0.1-0.3-0.2-0.6-0.2-1c-0.7,0.8-1.7,1.2-2.8,1.2c-0.8,0-1.5-0.2-2-0.7
		c-0.5-0.4-0.7-1.1-0.7-1.8c0-0.7,0.2-1.3,0.6-1.8c0.4-0.5,1.1-0.8,1.9-0.9l2.1-0.3c0.3,0,0.5-0.1,0.6-0.2s0.2-0.3,0.2-0.5
		c0-0.3-0.1-0.6-0.4-0.7c-0.2-0.2-0.6-0.3-1.1-0.3s-0.9,0.1-1.1,0.3c-0.2,0.2-0.4,0.5-0.4,0.9h-2.2c0.1-1,0.5-1.8,1.1-2.3
		s1.6-0.7,2.9-0.7c1.1,0,1.9,0.2,2.5,0.6c0.6,0.4,0.9,1,0.9,1.8L254.8,261.3L254.8,261.3z M261.1,262.9c-0.4,1.2-0.7,2-1,2.4
		c-0.2,0.4-0.5,0.7-0.8,0.9c-0.3,0.2-0.8,0.3-1.6,0.3c-0.4,0-0.7,0-1-0.1v-1.8c0.2,0,0.4,0,0.6,0c0.3,0,0.6-0.1,0.8-0.2
		c0.2-0.1,0.4-0.5,0.5-1.1l-3.2-8.9h2.5l1.8,6.3l0,0l1.7-6.3h2.4L261.1,262.9z M119.1,282.8c0-0.8-0.2-1.5-0.5-1.9
		c-0.3-0.5-0.8-0.7-1.4-0.7s-1.1,0.2-1.4,0.7s-0.5,1.1-0.5,2c0,0.8,0.2,1.4,0.5,1.8c0.4,0.4,0.8,0.6,1.5,0.6c0.5,0,1-0.2,1.3-0.7
		C118.9,284.2,119.1,283.6,119.1,282.8z M115.3,279.6L115.3,279.6c0.6-0.9,1.4-1.3,2.5-1.3c1,0,1.9,0.4,2.5,1.2c0.7,0.8,1,1.8,1,3.2
		c0,1.4-0.3,2.5-0.9,3.3s-1.5,1.3-2.6,1.3s-1.9-0.4-2.5-1.3l0,0v1.1h-2.2v-11.5h2.2V279.6z M128.4,281.9c0-0.5-0.2-1-0.5-1.3
		s-0.7-0.5-1.2-0.5c-1.1,0-1.7,0.6-1.8,1.8H128.4z M130.6,284.5c-0.3,0.9-0.7,1.6-1.4,2c-0.7,0.5-1.5,0.7-2.3,0.7
		c-1.4,0-2.5-0.4-3.2-1.2c-0.7-0.8-1.1-1.8-1.1-3.2c0-1.4,0.3-2.5,1-3.3s1.7-1.3,3.1-1.3c1.2,0,2.2,0.4,2.9,1.2
		c0.7,0.8,1.1,2,1.1,3.5v0.4h-5.9c0.1,0.7,0.3,1.2,0.6,1.6c0.4,0.3,0.8,0.5,1.4,0.5c0.4,0,0.7-0.1,0.9-0.3c0.3-0.2,0.4-0.4,0.5-0.7
		L130.6,284.5L130.6,284.5z M134.5,278.5h1.5v1.6h-1.5v6.9h-2.2v-6.9h-1.2v-1.6h1.2v-0.7c0-0.8,0.2-1.4,0.6-1.8
		c0.4-0.4,1.1-0.6,2.1-0.6c0.3,0,0.6,0,0.9,0v1.8c-0.2,0-0.3,0-0.5,0s-0.4,0-0.5,0s-0.2,0.1-0.3,0.1c-0.1,0.1-0.1,0.2-0.1,0.3
		c0,0.1,0,0.3,0,0.5V278.5z M142.9,282.7c0-0.8-0.2-1.4-0.5-1.9s-0.8-0.7-1.5-0.7c-0.6,0-1.1,0.2-1.5,0.6s-0.5,1.1-0.5,1.9
		c0,0.9,0.2,1.5,0.5,1.9s0.8,0.7,1.5,0.7s1.2-0.2,1.5-0.7C142.7,284.2,142.9,283.6,142.9,282.7z M145.2,282.7c0,1.4-0.4,2.5-1.2,3.3
		s-1.8,1.2-3.1,1.2s-2.3-0.4-3.1-1.2c-0.8-0.8-1.2-1.9-1.2-3.3s0.4-2.5,1.2-3.3s1.9-1.2,3.1-1.2c1.3,0,2.3,0.4,3.1,1.2
		C144.8,280.3,145.2,281.4,145.2,282.7z M146.8,278.5h2.1v1.5l0,0c0.3-0.6,0.6-1,0.9-1.3c0.4-0.3,0.8-0.4,1.4-0.4c0.1,0,0.3,0,0.4,0
		v2.3c-0.1,0-0.3,0-0.6,0c-0.7,0-1.2,0.2-1.6,0.5c-0.3,0.3-0.5,0.8-0.5,1.5v4.4h-2.2v-8.5H146.8z M158.3,281.9c0-0.5-0.2-1-0.5-1.3
		s-0.7-0.5-1.2-0.5c-1.1,0-1.7,0.6-1.8,1.8H158.3z M160.5,284.5c-0.3,0.9-0.7,1.6-1.4,2c-0.7,0.5-1.5,0.7-2.3,0.7
		c-1.4,0-2.5-0.4-3.2-1.2c-0.7-0.8-1.1-1.8-1.1-3.2c0-1.4,0.3-2.5,1-3.3s1.7-1.3,3.1-1.3c1.2,0,2.2,0.4,2.9,1.2
		c0.7,0.8,1.1,2,1.1,3.5v0.4h-5.9c0.1,0.7,0.3,1.2,0.6,1.6c0.4,0.3,0.8,0.5,1.4,0.5c0.4,0,0.7-0.1,0.9-0.3c0.3-0.2,0.4-0.4,0.5-0.7
		L160.5,284.5L160.5,284.5z"/>
	<path class="st4" d="M121.9,333h-2.3l-1.3-6.2l0,0L117,333h-2.3l-2.4-8.5h2.4l1.3,6.1l0,0l1.2-6.1h2.3l1.3,6.1l0,0l1.3-6.1h2.3
		L121.9,333z M130.7,327.9c0-0.5-0.2-1-0.5-1.3s-0.7-0.5-1.2-0.5c-1.1,0-1.7,0.6-1.8,1.8H130.7z M132.9,330.5
		c-0.3,0.9-0.7,1.6-1.4,2c-0.7,0.5-1.5,0.7-2.3,0.7c-1.4,0-2.5-0.4-3.2-1.2c-0.7-0.8-1.1-1.8-1.1-3.2c0-1.4,0.3-2.5,1-3.3
		s1.7-1.3,3.1-1.3c1.2,0,2.2,0.4,2.9,1.2c0.7,0.8,1.1,2,1.1,3.5v0.4h-5.9c0.1,0.7,0.3,1.2,0.6,1.6c0.4,0.3,0.8,0.5,1.4,0.5
		c0.4,0,0.7-0.1,0.9-0.3c0.3-0.2,0.4-0.4,0.5-0.7L132.9,330.5L132.9,330.5z M134.6,324.5h2.1v1.5l0,0c0.3-0.6,0.6-1,0.9-1.3
		c0.4-0.3,0.8-0.4,1.4-0.4c0.1,0,0.3,0,0.4,0v2.3c-0.1,0-0.3,0-0.6,0c-0.7,0-1.2,0.2-1.6,0.5c-0.3,0.3-0.5,0.8-0.5,1.5v4.4h-2.2
		v-8.5H134.6z M146.1,327.9c0-0.5-0.2-1-0.5-1.3s-0.7-0.5-1.2-0.5c-1.1,0-1.7,0.6-1.8,1.8H146.1z M148.3,330.5
		c-0.3,0.9-0.7,1.6-1.4,2c-0.7,0.5-1.5,0.7-2.3,0.7c-1.4,0-2.5-0.4-3.2-1.2c-0.7-0.8-1.1-1.8-1.1-3.2c0-1.4,0.3-2.5,1-3.3
		s1.7-1.3,3.1-1.3c1.2,0,2.2,0.4,2.9,1.2c0.7,0.8,1.1,2,1.1,3.5v0.4h-5.9c0.1,0.7,0.3,1.2,0.6,1.6c0.4,0.3,0.8,0.5,1.4,0.5
		c0.4,0,0.7-0.1,0.9-0.3c0.3-0.2,0.4-0.4,0.5-0.7L148.3,330.5L148.3,330.5z M152.7,321.5h2.6l1.6,7.3l0.2,1.1l0,0l0.2-1.1l1.4-7.3
		h2.5l1.5,7.3l0.2,1.2l0,0l0.2-1.2l1.7-7.3h2.4L164,333h-2.3l-1.6-8.1l-0.1-1l0,0l-0.1,1l-1.6,8.1H156L152.7,321.5z M170.3,327.3
		c0,1.3,0.3,2.3,0.9,3c0.6,0.7,1.3,1,2.3,1c0.9,0,1.7-0.3,2.2-1c0.6-0.7,0.9-1.7,0.9-3s-0.3-2.3-0.9-3c-0.6-0.7-1.3-1-2.3-1
		c-0.9,0-1.7,0.3-2.3,1C170.6,325,170.3,326,170.3,327.3z M167.9,327.3c0-2,0.5-3.5,1.5-4.5s2.3-1.5,4-1.5c1.6,0,2.9,0.5,4,1.5
		c1,1,1.6,2.5,1.6,4.5c0,1.9-0.5,3.4-1.5,4.5c-1,1-2.3,1.6-4,1.6c-1.6,0-2.9-0.5-3.9-1.5C168.5,330.8,167.9,329.3,167.9,327.3z
		 M186,326.6c0.6,0,1.1-0.1,1.4-0.4c0.3-0.2,0.5-0.6,0.5-1.2c0-0.5-0.1-0.8-0.4-1.1c-0.3-0.3-0.7-0.4-1.3-0.4h-3v3.1H186z
		 M180.8,321.5h5.8c1.2,0,2.1,0.3,2.7,1c0.6,0.6,0.9,1.4,0.9,2.3c0,1.3-0.6,2.2-1.8,2.7c0.5,0.2,0.9,0.5,1.1,0.9
		c0.2,0.4,0.3,1.1,0.3,2.1s0,1.6,0.1,1.8c0.1,0.2,0.2,0.3,0.4,0.4v0.3h-2.6c-0.2-0.5-0.3-1.3-0.3-2.2c0-0.8-0.1-1.3-0.2-1.6
		c-0.1-0.2-0.3-0.4-0.5-0.5c-0.3-0.1-0.6-0.2-1.2-0.2H183v4.5h-2.4v-11.5H180.8z M197.4,326.6c0.6,0,1.1-0.1,1.4-0.4
		c0.3-0.2,0.5-0.6,0.5-1.2c0-0.5-0.1-0.8-0.4-1.1c-0.3-0.3-0.7-0.4-1.3-0.4h-3v3.1H197.4z M192.2,321.5h5.8c1.2,0,2.1,0.3,2.7,1
		c0.6,0.6,0.9,1.4,0.9,2.3c0,1.3-0.6,2.2-1.8,2.7c0.5,0.2,0.9,0.5,1.1,0.9c0.2,0.4,0.3,1.1,0.3,2.1s0,1.6,0.1,1.8
		c0.1,0.2,0.2,0.3,0.4,0.4v0.3h-2.6c-0.2-0.5-0.3-1.3-0.3-2.2c0-0.8-0.1-1.3-0.2-1.6c-0.1-0.2-0.3-0.4-0.5-0.5
		c-0.3-0.1-0.6-0.2-1.2-0.2h-2.5v4.5H192v-11.5H192.2z M206,333h-2.4v-11.5h2.4V333z M216.8,323.5h-6.1v2.4h5.6v2h-5.6v3h6.4v2h-8.7
		v-11.5h8.4L216.8,323.5L216.8,323.5z M221.3,331h2.3c0.8,0,1.5-0.3,1.9-1c0.5-0.7,0.7-1.6,0.7-2.8c0-1.2-0.2-2.2-0.6-2.8
		c-0.4-0.6-1.1-0.9-1.9-0.9h-2.4V331z M218.9,321.5h5.1c1.6,0,2.7,0.5,3.5,1.5s1.2,2.3,1.2,4c0,1.8-0.4,3.3-1.3,4.4
		c-0.8,1.1-2,1.7-3.5,1.7h-5V321.5z M237.3,324.5h1.4v1.6h-1.4v4.8c0,0.2,0.1,0.4,0.2,0.4c0.1,0.1,0.3,0.1,0.6,0.1s0.5,0,0.6,0v1.7
		c-0.3,0.1-0.7,0.1-1.2,0.1c-0.9,0-1.5-0.1-1.9-0.4s-0.5-0.8-0.5-1.5v-5.2h-1.2v-1.6h1.2v-2.3h2.2L237.3,324.5L237.3,324.5z
		 M247.8,333h-2.2v-5.3c0-0.5-0.1-0.9-0.4-1.2c-0.2-0.3-0.6-0.4-1.1-0.4c-0.6,0-1,0.2-1.3,0.6s-0.5,0.8-0.5,1.4v4.9h-2.2v-11.5h2.2
		v4.1l0,0c0.5-0.9,1.3-1.3,2.5-1.3c0.9,0,1.6,0.3,2.1,0.8s0.8,1.2,0.8,2.1L247.8,333L247.8,333z M255.2,327.9c0-0.5-0.2-1-0.5-1.3
		s-0.7-0.5-1.2-0.5c-1.1,0-1.7,0.6-1.8,1.8H255.2z M257.4,330.5c-0.3,0.9-0.7,1.6-1.4,2c-0.7,0.5-1.5,0.7-2.3,0.7
		c-1.4,0-2.5-0.4-3.2-1.2c-0.7-0.8-1.1-1.8-1.1-3.2c0-1.4,0.3-2.5,1-3.3s1.7-1.3,3.1-1.3c1.2,0,2.2,0.4,2.9,1.2
		c0.7,0.8,1.1,2,1.1,3.5v0.4h-5.9c0.1,0.7,0.3,1.2,0.6,1.6c0.4,0.3,0.8,0.5,1.4,0.5c0.4,0,0.7-0.1,0.9-0.3c0.3-0.2,0.4-0.4,0.5-0.7
		L257.4,330.5L257.4,330.5z M114.9,352.8c0,0.8,0.2,1.4,0.5,1.9s0.8,0.7,1.3,0.7c0.6,0,1.1-0.2,1.5-0.7c0.3-0.4,0.5-1,0.5-1.8
		c0-0.9-0.2-1.6-0.5-2c-0.3-0.5-0.8-0.7-1.4-0.7s-1.1,0.2-1.4,0.7C115.1,351.3,114.9,352,114.9,352.8z M120.9,357h-2.2v-1.1l0,0
		c-0.5,0.9-1.3,1.3-2.5,1.3c-1.1,0-2-0.4-2.6-1.3c-0.6-0.8-0.9-1.9-0.9-3.3c0-1.3,0.3-2.4,1-3.2c0.7-0.8,1.5-1.2,2.5-1.2
		c1.1,0,1.9,0.4,2.5,1.3l0,0v-4.1h2.2V357z M127.9,352.9c-0.3,0.2-0.8,0.3-1.6,0.5c-0.7,0.1-1.1,0.2-1.3,0.5
		c-0.2,0.2-0.3,0.5-0.3,0.8s0.1,0.6,0.3,0.8s0.5,0.3,0.8,0.3c0.6,0,1.1-0.2,1.5-0.5s0.6-0.7,0.6-1.2V352.9z M130.1,355.3
		c0,0.4,0,0.7,0.1,0.9c0.1,0.2,0.2,0.4,0.4,0.4v0.3h-2.4c-0.1-0.3-0.2-0.6-0.2-1c-0.7,0.8-1.7,1.2-2.8,1.2c-0.8,0-1.5-0.2-2-0.7
		c-0.5-0.4-0.7-1.1-0.7-1.8c0-0.7,0.2-1.3,0.6-1.8s1.1-0.8,1.9-0.9l2.1-0.3c0.3,0,0.5-0.1,0.6-0.2s0.2-0.3,0.2-0.5
		c0-0.3-0.1-0.6-0.4-0.7c-0.2-0.2-0.6-0.3-1.1-0.3s-0.9,0.1-1.1,0.3c-0.2,0.2-0.4,0.5-0.4,0.9h-2.2c0.1-1,0.5-1.8,1.1-2.3
		s1.6-0.7,2.9-0.7c1.1,0,1.9,0.2,2.5,0.6s0.9,1,0.9,1.8V355.3z M136.5,356.9c-0.4,1.2-0.7,2-1,2.4c-0.2,0.4-0.5,0.7-0.8,0.9
		c-0.3,0.2-0.8,0.3-1.6,0.3c-0.4,0-0.7,0-1-0.1v-1.8c0.2,0,0.4,0,0.6,0c0.3,0,0.6-0.1,0.8-0.2s0.4-0.5,0.5-1.1l-3.2-8.9h2.5l1.8,6.3
		l0,0l1.7-6.3h2.4L136.5,356.9z M151,352.8c0-0.8-0.2-1.5-0.5-1.9c-0.3-0.5-0.8-0.7-1.4-0.7c-0.6,0-1.1,0.2-1.4,0.7
		c-0.3,0.5-0.5,1.1-0.5,2c0,0.8,0.2,1.4,0.5,1.8c0.4,0.4,0.8,0.6,1.5,0.6c0.5,0,1-0.2,1.3-0.7C150.8,354.2,151,353.6,151,352.8z
		 M147.3,349.6L147.3,349.6c0.6-0.9,1.4-1.3,2.5-1.3c1,0,1.9,0.4,2.5,1.2c0.7,0.8,1,1.8,1,3.2c0,1.4-0.3,2.5-0.9,3.3
		c-0.6,0.8-1.5,1.3-2.6,1.3s-1.9-0.4-2.5-1.3l0,0v1.1H145v-11.5h2.2v4H147.3z M160.3,351.9c0-0.5-0.2-1-0.5-1.3s-0.7-0.5-1.2-0.5
		c-1.1,0-1.7,0.6-1.8,1.8H160.3z M162.5,354.5c-0.3,0.9-0.7,1.6-1.4,2c-0.7,0.5-1.5,0.7-2.3,0.7c-1.4,0-2.5-0.4-3.2-1.2
		c-0.7-0.8-1.1-1.8-1.1-3.2c0-1.4,0.3-2.5,1-3.3s1.7-1.3,3.1-1.3c1.2,0,2.2,0.4,2.9,1.2c0.7,0.8,1.1,2,1.1,3.5v0.4h-5.9
		c0.1,0.7,0.3,1.2,0.6,1.6c0.4,0.3,0.8,0.5,1.4,0.5c0.4,0,0.7-0.1,0.9-0.3c0.3-0.2,0.4-0.4,0.5-0.7L162.5,354.5L162.5,354.5z
		 M166.5,348.5h1.5v1.6h-1.5v6.9h-2.2v-6.9H163v-1.6h1.2v-0.7c0-0.8,0.2-1.4,0.6-1.8c0.4-0.4,1.1-0.6,2.1-0.6c0.3,0,0.6,0,0.9,0v1.8
		c-0.2,0-0.3,0-0.5,0s-0.4,0-0.5,0s-0.2,0.1-0.3,0.1c-0.1,0.1-0.1,0.2-0.1,0.3c0,0.1,0,0.3,0,0.5v0.4H166.5z M174.8,352.7
		c0-0.8-0.2-1.4-0.5-1.9s-0.8-0.7-1.5-0.7c-0.6,0-1.1,0.2-1.5,0.6s-0.5,1.1-0.5,1.9c0,0.9,0.2,1.5,0.5,1.9s0.8,0.7,1.5,0.7
		s1.2-0.2,1.5-0.7C174.6,354.2,174.8,353.6,174.8,352.7z M177.1,352.7c0,1.4-0.4,2.5-1.2,3.3s-1.8,1.2-3.1,1.2s-2.3-0.4-3.1-1.2
		c-0.8-0.8-1.2-1.9-1.2-3.3s0.4-2.5,1.2-3.3s1.9-1.2,3.1-1.2c1.3,0,2.3,0.4,3.1,1.2C176.7,350.3,177.1,351.4,177.1,352.7z
		 M178.8,348.5h2.1v1.5l0,0c0.3-0.6,0.6-1,0.9-1.3c0.4-0.3,0.8-0.4,1.4-0.4c0.1,0,0.3,0,0.4,0v2.3c-0.1,0-0.3,0-0.6,0
		c-0.7,0-1.2,0.2-1.6,0.5c-0.3,0.3-0.5,0.8-0.5,1.5v4.4h-2.2v-8.5H178.8z M190.2,351.9c0-0.5-0.2-1-0.5-1.3s-0.7-0.5-1.2-0.5
		c-1.1,0-1.7,0.6-1.8,1.8H190.2z M192.5,354.5c-0.3,0.9-0.7,1.6-1.4,2c-0.7,0.5-1.5,0.7-2.3,0.7c-1.4,0-2.5-0.4-3.2-1.2
		c-0.7-0.8-1.1-1.8-1.1-3.2c0-1.4,0.3-2.5,1-3.3s1.7-1.3,3.1-1.3c1.2,0,2.2,0.4,2.9,1.2c0.7,0.8,1.1,2,1.1,3.5v0.4h-5.9
		c0.1,0.7,0.3,1.2,0.6,1.6c0.4,0.3,0.8,0.5,1.4,0.5c0.4,0,0.7-0.1,0.9-0.3c0.3-0.2,0.4-0.4,0.5-0.7L192.5,354.5L192.5,354.5z"/>
	<g>
		<path class="st5" d="M54.8,298L54.8,298c22.1,0,40,17.9,40,40l0,0c0,22.1-17.9,40-40,40l0,0c-22.1,0-40-17.9-40-40l0,0
			C14.8,315.9,32.7,298,54.8,298z"/>
	</g>
	<path class="st6" d="M74.8,372.7L55,339v-41c22,0.1,39.8,18,39.8,40C94.8,352.8,86.8,365.8,74.8,372.7z"/>
	<path class="st7" d="M34.9,340.5c0-2.4,0-5.3,0.1-8.5h-0.1l-5,8.5H34.9z M41,343.6h-2.2v4.4h-3.9v-4.4h-7.8v-3.4l7.3-12.1h4.4v12.4
		H41V343.6z M44.4,331.6H45c1.5,0,2.7-0.3,3.5-0.9s1.3-1.5,1.4-2.5H53V348h-3.9v-13.7h-4.7C44.4,334.3,44.4,331.6,44.4,331.6z
		 M62.3,333.2c0,0.3,0.1,0.6,0.2,0.9c0.1,0.3,0.3,0.5,0.5,0.7s0.4,0.3,0.7,0.5c0.3,0.1,0.6,0.2,0.9,0.2c0.3,0,0.6-0.1,0.8-0.2
		c0.3-0.1,0.5-0.3,0.7-0.5s0.4-0.4,0.5-0.7c0.1-0.3,0.2-0.6,0.2-0.9s-0.1-0.6-0.2-0.9s-0.3-0.5-0.5-0.7s-0.4-0.4-0.7-0.5
		c-0.3-0.1-0.5-0.2-0.8-0.2s-0.6,0.1-0.9,0.2c-0.3,0.1-0.5,0.3-0.7,0.5s-0.4,0.4-0.5,0.7C62.3,332.6,62.3,332.9,62.3,333.2z
		 M75.6,343.3c0,0.3,0.1,0.6,0.2,0.9s0.3,0.5,0.5,0.7s0.4,0.4,0.7,0.5c0.3,0.1,0.6,0.2,0.9,0.2s0.6-0.1,0.8-0.2
		c0.3-0.1,0.5-0.3,0.7-0.5s0.4-0.4,0.5-0.7c0.1-0.3,0.2-0.6,0.2-0.9s-0.1-0.6-0.2-0.9s-0.3-0.5-0.5-0.7s-0.4-0.4-0.7-0.5
		c-0.3-0.1-0.5-0.2-0.8-0.2s-0.6,0.1-0.9,0.2s-0.5,0.3-0.7,0.5s-0.4,0.4-0.5,0.7C75.6,342.7,75.6,343,75.6,343.3z M66.6,348.5h-2.1
		l11.1-20.4h2.1L66.6,348.5z M72.7,343.3c0-0.7,0.1-1.4,0.4-2s0.6-1.2,1.1-1.6c0.5-0.5,1-0.8,1.6-1.1c0.6-0.3,1.3-0.4,2-0.4
		s1.3,0.1,2,0.4c0.6,0.3,1.2,0.6,1.6,1.1c0.5,0.5,0.8,1,1.1,1.6c0.3,0.6,0.4,1.3,0.4,2s-0.1,1.4-0.4,2s-0.6,1.2-1.1,1.6
		c-0.5,0.5-1,0.8-1.6,1.1c-0.6,0.3-1.3,0.4-2,0.4s-1.4-0.1-2-0.4s-1.2-0.6-1.6-1.1c-0.5-0.5-0.8-1-1.1-1.6
		C72.8,344.7,72.7,344,72.7,343.3z M59.4,333.2c0-0.7,0.1-1.4,0.4-2c0.3-0.6,0.6-1.2,1.1-1.6c0.5-0.5,1-0.8,1.6-1.1
		c0.6-0.3,1.3-0.4,2-0.4c0.7,0,1.3,0.1,2,0.4c0.6,0.3,1.2,0.6,1.6,1.1c0.5,0.5,0.8,1,1.1,1.6c0.3,0.6,0.4,1.3,0.4,2s-0.1,1.4-0.4,2
		s-0.6,1.1-1.1,1.6s-1,0.8-1.6,1.1c-0.6,0.3-1.3,0.4-2,0.4c-0.7,0-1.4-0.1-2-0.4s-1.2-0.6-1.6-1.1c-0.5-0.5-0.8-1-1.1-1.6
		C59.5,334.6,59.4,333.9,59.4,333.2z"/>
	<g>
		<path class="st5" d="M54.8,228L54.8,228c22.1,0,40,17.9,40,40l0,0c0,22.1-17.9,40-40,40l0,0c-22.1,0-40-17.9-40-40l0,0
			C14.8,245.9,32.7,228,54.8,228z"/>
	</g>
	<path class="st6" d="M74.8,302.7L55,269v-41c22,0.1,39.8,18,39.8,40C94.8,282.8,86.8,295.8,74.8,302.7z"/>
	<path class="st7" d="M34.9,269.5c0-2.4,0-5.3,0.1-8.5h-0.1l-5,8.5H34.9z M41,272.6h-2.2v4.4h-3.9v-4.4h-7.8v-3.4l7.3-12.1h4.4v12.4
		H41V272.6z M48.4,265.5H49c1.2,0,2.1-0.2,2.6-0.6s0.8-1.1,0.8-2.1c0-0.7-0.2-1.3-0.6-1.8c-0.4-0.5-1-0.7-1.8-0.7
		c-0.9,0-1.5,0.3-2,0.8s-0.7,1.3-0.7,2.5h-3.6c0-2,0.6-3.5,1.7-4.7c1.1-1.1,2.8-1.7,4.9-1.7c1.8,0,3.3,0.5,4.4,1.5
		c1.2,1,1.7,2.3,1.7,4.1c0,1.7-0.8,3-2.4,3.8v0.1c0.2,0,0.4,0.2,0.8,0.3c0.3,0.2,0.7,0.4,1,0.8s0.6,0.8,0.9,1.4
		c0.2,0.6,0.4,1.3,0.4,2.1c0,1.9-0.6,3.4-1.9,4.6c-1.3,1.2-2.9,1.8-4.9,1.8c-2.1,0-3.8-0.5-5.1-1.6c-1.2-1.1-1.9-2.8-1.9-5H47
		c0,1.1,0.3,2,0.8,2.6s1.2,0.9,2.2,0.9c0.9,0,1.6-0.3,2.1-0.9s0.8-1.4,0.8-2.4s-0.3-1.7-1-2.2c-0.7-0.4-1.7-0.7-3-0.7h-0.5
		C48.4,268.4,48.4,265.5,48.4,265.5z M62.3,262.2c0,0.3,0.1,0.6,0.2,0.9c0.1,0.3,0.3,0.5,0.5,0.7s0.4,0.3,0.7,0.5
		c0.3,0.1,0.6,0.2,0.9,0.2c0.3,0,0.6-0.1,0.8-0.2c0.3-0.1,0.5-0.3,0.7-0.5s0.4-0.4,0.5-0.7c0.1-0.3,0.2-0.6,0.2-0.9
		s-0.1-0.6-0.2-0.9s-0.3-0.5-0.5-0.7s-0.4-0.4-0.7-0.5c-0.3-0.1-0.5-0.2-0.8-0.2s-0.6,0.1-0.9,0.2c-0.3,0.1-0.5,0.3-0.7,0.5
		s-0.4,0.4-0.5,0.7C62.3,261.6,62.3,261.9,62.3,262.2z M75.6,272.3c0,0.3,0.1,0.6,0.2,0.9s0.3,0.5,0.5,0.7s0.4,0.4,0.7,0.5
		c0.3,0.1,0.6,0.2,0.9,0.2s0.6-0.1,0.8-0.2c0.3-0.1,0.5-0.3,0.7-0.5s0.4-0.4,0.5-0.7c0.1-0.3,0.2-0.6,0.2-0.9s-0.1-0.6-0.2-0.9
		s-0.3-0.5-0.5-0.7s-0.4-0.4-0.7-0.5c-0.3-0.1-0.5-0.2-0.8-0.2s-0.6,0.1-0.9,0.2s-0.5,0.3-0.7,0.5s-0.4,0.4-0.5,0.7
		C75.6,271.7,75.6,272,75.6,272.3z M66.6,277.5h-2.1l11.1-20.4h2.1L66.6,277.5z M72.7,272.3c0-0.7,0.1-1.4,0.4-2s0.6-1.2,1.1-1.6
		c0.5-0.5,1-0.8,1.6-1.1c0.6-0.3,1.3-0.4,2-0.4s1.3,0.1,2,0.4c0.6,0.3,1.2,0.6,1.6,1.1c0.5,0.5,0.8,1,1.1,1.6c0.3,0.6,0.4,1.3,0.4,2
		s-0.1,1.4-0.4,2s-0.6,1.2-1.1,1.6c-0.5,0.5-1,0.8-1.6,1.1c-0.6,0.3-1.3,0.4-2,0.4s-1.4-0.1-2-0.4s-1.2-0.6-1.6-1.1
		c-0.5-0.5-0.8-1-1.1-1.6C72.8,273.7,72.7,273,72.7,272.3z M59.4,262.2c0-0.7,0.1-1.4,0.4-2c0.3-0.6,0.6-1.2,1.1-1.6
		c0.5-0.5,1-0.8,1.6-1.1c0.6-0.3,1.3-0.4,2-0.4c0.7,0,1.3,0.1,2,0.4c0.6,0.3,1.2,0.6,1.6,1.1c0.5,0.5,0.8,1,1.1,1.6
		c0.3,0.6,0.4,1.3,0.4,2s-0.1,1.4-0.4,2s-0.6,1.1-1.1,1.6s-1,0.8-1.6,1.1c-0.6,0.3-1.3,0.4-2,0.4c-0.7,0-1.4-0.1-2-0.4
		s-1.2-0.6-1.6-1.1c-0.5-0.5-0.8-1-1.1-1.6C59.5,263.6,59.4,262.9,59.4,262.2z"/>
	<g>
		<path class="st5" d="M55,158L55,158c22.1,0,40,17.9,40,40l0,0c0,22.1-17.9,40-40,40l0,0c-22.1,0-40-17.9-40-40l0,0
			C15,175.9,32.9,158,55,158z"/>
	</g>
	<path class="st6" d="M17.5,211.8L55,198v-40c22.1,0,40,17.9,40,40s-17.9,40-40,40C37.8,238,23.1,227.1,17.5,211.8z"/>
	<path class="st7" d="M37,200.6c0-1-0.3-1.9-0.8-2.4c-0.5-0.6-1.2-0.9-2-0.9c-0.9,0-1.6,0.3-2.2,0.9c-0.5,0.6-0.8,1.4-0.8,2.5
		c0,1.2,0.3,2.1,0.9,2.7c0.6,0.7,1.3,1,2.2,1c0.8,0,1.5-0.3,2-1C36.7,202.7,37,201.8,37,200.6z M36.6,192.2c-0.2-1.3-1-1.9-2.3-1.9
		c-2,0-3.1,1.8-3.3,5.5l0.1,0.1c0.8-1.1,2.1-1.7,3.8-1.7c1.8,0,3.2,0.6,4.3,1.8s1.7,2.6,1.7,4.3c0,2.1-0.6,3.9-1.8,5.2
		c-1.2,1.4-2.8,2-4.7,2c-2.5,0-4.3-0.8-5.5-2.4c-1.2-1.6-1.8-4.2-1.8-7.5c0-3.6,0.6-6.2,1.8-7.9c1.2-1.7,3.1-2.5,5.6-2.5
		c1.5,0,2.8,0.4,3.9,1.2c1.1,0.8,1.8,2.1,2,3.9h-3.8V192.2z M50.3,195.2c0.8,0,1.4-0.3,1.8-0.8c0.4-0.5,0.6-1.1,0.6-1.8
		s-0.2-1.2-0.6-1.7c-0.4-0.5-1-0.7-1.8-0.7s-1.4,0.2-1.9,0.7s-0.7,1-0.7,1.7s0.2,1.3,0.7,1.8C48.9,194.9,49.5,195.2,50.3,195.2z
		 M53.1,201.3c0-0.9-0.3-1.6-0.8-2.2c-0.5-0.6-1.2-0.9-2.1-0.9c-0.9,0-1.6,0.3-2.1,0.8s-0.8,1.3-0.8,2.3s0.3,1.7,0.8,2.3
		s1.2,0.8,2.1,0.8c0.9,0,1.6-0.3,2.1-0.9C52.8,202.8,53.1,202.1,53.1,201.3z M57.1,201.1c0,1.8-0.6,3.3-1.9,4.6
		c-1.2,1.2-2.9,1.9-5,1.9s-3.8-0.6-5-1.7c-1.2-1.1-1.9-2.6-1.9-4.6c0-2.3,1-3.9,3-4.9c-1.6-0.8-2.4-2.1-2.4-3.9
		c0-1.6,0.6-2.9,1.7-3.9c1.1-1,2.6-1.5,4.5-1.5s3.4,0.5,4.5,1.4c1.2,0.9,1.8,2.2,1.8,3.7c0,1.8-0.8,3.2-2.3,4
		C56.1,197.2,57.1,198.8,57.1,201.1z M62.3,192.2c0,0.3,0.1,0.6,0.2,0.9c0.1,0.3,0.3,0.5,0.5,0.7s0.4,0.3,0.7,0.5
		c0.3,0.1,0.6,0.2,0.9,0.2c0.3,0,0.6-0.1,0.8-0.2c0.3-0.1,0.5-0.3,0.7-0.5s0.4-0.4,0.5-0.7s0.2-0.6,0.2-0.9c0-0.3-0.1-0.6-0.2-0.9
		c-0.1-0.3-0.3-0.5-0.5-0.7s-0.4-0.4-0.7-0.5c-0.3-0.1-0.5-0.2-0.8-0.2s-0.6,0.1-0.9,0.2c-0.3,0.1-0.5,0.3-0.7,0.5s-0.4,0.4-0.5,0.7
		C62.3,191.6,62.3,191.9,62.3,192.2z M75.6,202.3c0,0.3,0.1,0.6,0.2,0.9c0.1,0.3,0.3,0.5,0.5,0.7s0.4,0.4,0.7,0.5
		c0.3,0.1,0.6,0.2,0.9,0.2s0.6-0.1,0.8-0.2c0.3-0.1,0.5-0.3,0.7-0.5s0.4-0.4,0.5-0.7s0.2-0.6,0.2-0.9c0-0.3-0.1-0.6-0.2-0.9
		c-0.1-0.3-0.3-0.5-0.5-0.7s-0.4-0.4-0.7-0.5c-0.3-0.1-0.5-0.2-0.8-0.2s-0.6,0.1-0.9,0.2c-0.3,0.1-0.5,0.3-0.7,0.5s-0.4,0.4-0.5,0.7
		C75.6,201.7,75.6,202,75.6,202.3z M66.6,207.5h-2.1l11.1-20.4h2.1L66.6,207.5z M72.7,202.3c0-0.7,0.1-1.4,0.4-2s0.6-1.2,1.1-1.6
		c0.5-0.5,1-0.8,1.6-1.1s1.3-0.4,2-0.4s1.3,0.1,2,0.4c0.6,0.3,1.2,0.6,1.6,1.1c0.5,0.5,0.8,1,1.1,1.6c0.3,0.6,0.4,1.3,0.4,2
		s-0.1,1.4-0.4,2s-0.6,1.2-1.1,1.6c-0.5,0.5-1,0.8-1.6,1.1s-1.3,0.4-2,0.4s-1.4-0.1-2-0.4c-0.6-0.3-1.2-0.6-1.6-1.1
		c-0.5-0.5-0.8-1-1.1-1.6S72.7,203,72.7,202.3z M59.4,192.2c0-0.7,0.1-1.4,0.4-2c0.3-0.6,0.6-1.2,1.1-1.6c0.5-0.5,1-0.8,1.6-1.1
		s1.3-0.4,2-0.4c0.7,0,1.3,0.1,2,0.4c0.6,0.3,1.2,0.6,1.6,1.1c0.5,0.5,0.8,1,1.1,1.6c0.3,0.6,0.4,1.3,0.4,2s-0.1,1.4-0.4,2
		s-0.6,1.1-1.1,1.6s-1,0.8-1.6,1.1s-1.3,0.4-2,0.4c-0.7,0-1.4-0.1-2-0.4c-0.6-0.3-1.2-0.6-1.6-1.1c-0.5-0.5-0.8-1-1.1-1.6
		C59.5,193.6,59.4,192.9,59.4,192.2z"/>
	<g>
		<path class="st5" d="M55,88L55,88c22.1,0,40,17.9,40,40l0,0c0,22.1-17.9,40-40,40l0,0c-22.1,0-40-17.9-40-40l0,0
			C15,105.9,32.9,88,55,88z"/>
	</g>
	<path class="st6" d="M18.3,112l36.2,16.5V88c0.2,0,0.3,0,0.5,0c22.1,0,40,17.9,40,40s-17.9,40-40,40s-40-17.9-40-40
		C15,122.3,16.2,116.9,18.3,112z"/>
	<path class="st7" d="M34.1,126.2c0.8,0,1.4-0.3,1.8-0.8c0.4-0.5,0.6-1.1,0.6-1.8c0-0.7-0.2-1.2-0.6-1.7c-0.4-0.5-1-0.7-1.8-0.7
		s-1.4,0.2-1.9,0.7s-0.7,1-0.7,1.7s0.2,1.3,0.7,1.8C32.7,125.9,33.4,126.2,34.1,126.2z M37,132.3c0-0.9-0.3-1.6-0.8-2.2
		c-0.5-0.6-1.2-0.9-2.1-0.9c-0.9,0-1.6,0.3-2.1,0.8s-0.8,1.3-0.8,2.3s0.3,1.7,0.8,2.3s1.2,0.8,2.1,0.8c0.9,0,1.6-0.3,2.1-0.9
		C36.7,133.8,37,133.1,37,132.3z M41,132.1c0,1.8-0.6,3.3-1.9,4.6c-1.2,1.2-2.9,1.9-5,1.9s-3.8-0.6-5-1.7c-1.2-1.1-1.9-2.6-1.9-4.6
		c0-2.3,1-3.9,3-4.9c-1.6-0.8-2.4-2.1-2.4-3.9c0-1.6,0.6-2.9,1.7-3.9s2.6-1.5,4.5-1.5s3.4,0.5,4.5,1.4c1.2,0.9,1.8,2.2,1.8,3.7
		c0,1.8-0.8,3.2-2.3,4C40,128.2,41,129.8,41,132.1z M47.4,128.3c0,2.6,0.2,4.4,0.6,5.5c0.4,1.1,1.1,1.6,2.3,1.6
		c1.1,0,1.9-0.5,2.3-1.6c0.4-1.1,0.6-2.9,0.6-5.5c0-2.7-0.2-4.5-0.6-5.5c-0.4-1-1.1-1.5-2.2-1.5c-1.1,0-1.9,0.5-2.3,1.5
		C47.6,123.8,47.4,125.6,47.4,128.3z M43.4,128.3c0-3.5,0.6-6.1,1.7-7.7c1.1-1.7,2.9-2.5,5.2-2.5s4.1,0.8,5.2,2.5
		c1.1,1.7,1.7,4.2,1.7,7.7s-0.6,6.1-1.7,7.8c-1.1,1.6-2.9,2.5-5.2,2.5s-4-0.8-5.2-2.5C43.9,134.4,43.4,131.8,43.4,128.3z
		 M62.3,123.2c0,0.3,0.1,0.6,0.2,0.9c0.1,0.3,0.3,0.5,0.5,0.7s0.4,0.3,0.7,0.5c0.3,0.1,0.6,0.2,0.9,0.2c0.3,0,0.6-0.1,0.8-0.2
		c0.3-0.1,0.5-0.3,0.7-0.5s0.4-0.4,0.5-0.7c0.1-0.3,0.2-0.6,0.2-0.9s-0.1-0.6-0.2-0.9s-0.3-0.5-0.5-0.7s-0.4-0.4-0.7-0.5
		c-0.3-0.1-0.5-0.2-0.8-0.2s-0.6,0.1-0.9,0.2c-0.3,0.1-0.5,0.3-0.7,0.5s-0.4,0.4-0.5,0.7C62.3,122.6,62.3,122.9,62.3,123.2z
		 M75.6,133.3c0,0.3,0.1,0.6,0.2,0.9c0.1,0.3,0.3,0.5,0.5,0.7s0.4,0.4,0.7,0.5c0.3,0.1,0.6,0.2,0.9,0.2s0.6-0.1,0.8-0.2
		c0.3-0.1,0.5-0.3,0.7-0.5s0.4-0.4,0.5-0.7s0.2-0.6,0.2-0.9c0-0.3-0.1-0.6-0.2-0.9c-0.1-0.3-0.3-0.5-0.5-0.7s-0.4-0.4-0.7-0.5
		c-0.3-0.1-0.5-0.2-0.8-0.2s-0.6,0.1-0.9,0.2c-0.3,0.1-0.5,0.3-0.7,0.5s-0.4,0.4-0.5,0.7C75.6,132.7,75.6,133,75.6,133.3z
		 M66.6,138.5h-2.1l11.1-20.4h2.1L66.6,138.5z M72.7,133.3c0-0.7,0.1-1.4,0.4-2s0.6-1.2,1.1-1.6c0.5-0.5,1-0.8,1.6-1.1
		s1.3-0.4,2-0.4s1.3,0.1,2,0.4c0.6,0.3,1.2,0.6,1.6,1.1c0.5,0.5,0.8,1,1.1,1.6c0.3,0.6,0.4,1.3,0.4,2s-0.1,1.4-0.4,2
		s-0.6,1.2-1.1,1.6c-0.5,0.5-1,0.8-1.6,1.1s-1.3,0.4-2,0.4s-1.4-0.1-2-0.4c-0.6-0.3-1.2-0.6-1.6-1.1c-0.5-0.5-0.8-1-1.1-1.6
		S72.7,134,72.7,133.3z M59.4,123.2c0-0.7,0.1-1.4,0.4-2c0.3-0.6,0.6-1.2,1.1-1.6c0.5-0.5,1-0.8,1.6-1.1c0.6-0.3,1.3-0.4,2-0.4
		c0.7,0,1.3,0.1,2,0.4c0.6,0.3,1.2,0.6,1.6,1.1c0.5,0.5,0.8,1,1.1,1.6c0.3,0.6,0.4,1.3,0.4,2s-0.1,1.4-0.4,2s-0.6,1.1-1.1,1.6
		s-1,0.8-1.6,1.1c-0.6,0.3-1.3,0.4-2,0.4c-0.7,0-1.4-0.1-2-0.4c-0.6-0.3-1.2-0.6-1.6-1.1c-0.5-0.5-0.8-1-1.1-1.6
		C59.5,124.6,59.4,123.9,59.4,123.2z"/>
</g>
</svg>
